<?xml version="1.0" encoding="UTF-8"?>
<svg id="Layer_2" data-name="Layer 2" xmlns="http://www.w3.org/2000/svg" xmlns:xlink="http://www.w3.org/1999/xlink" viewBox="0 0 256.07 255.18">
  <defs>
    <style>
      .cls-1 {
        fill: url(#linear-gradient);
      }

      .cls-1, .cls-2, .cls-3 {
        stroke-width: 0px;
      }

      .cls-2 {
        fill: #fff;
      }

      .cls-3 {
        fill: #6d6e70;
      }
    </style>
    <linearGradient id="linear-gradient" x1="3405.87" y1="-6133.4" x2="3401.45" y2="-6128.98" gradientTransform="translate(58085.42 -202450.34) rotate(45) scale(30.05 -30.05)" gradientUnits="userSpaceOnUse">
      <stop offset="0" stop-color="#1155d9"/>
      <stop offset="1" stop-color="#7b5bf5"/>
    </linearGradient>
  </defs>
  <g id="Layer_2-2" data-name="Layer 2">
    <g id="Stremio-service-logo">
      <g>
        <path class="cls-1" d="m206.47,151.07c7.9,0,15.4,1.68,22.19,4.68l16.9-16.9c7.35-7.35,7.35-19.27,0-26.62L138.85,5.51c-7.35-7.35-19.27-7.35-26.62,0L5.51,112.23c-7.35,7.35-7.35,19.27,0,26.62l106.71,106.71c7.35,7.35,19.27,7.35,26.62,0l17.34-17.34c-3-6.79-4.68-14.29-4.68-22.19,0-30.35,24.61-54.96,54.96-54.96Zm-90.83,16.31c-2.79,2.05-6.72,1.45-8.77-1.34-.79-1.08-1.22-2.38-1.22-3.71v-73.56c0-3.47,2.81-6.27,6.27-6.27,1.34,0,2.64.43,3.71,1.22l50.01,36.78c2.79,2.05,3.39,5.98,1.34,8.77-.38.51-.83.96-1.34,1.34l-50.01,36.78Z"/>
        <path class="cls-2" d="m166.99,129.26c2.05-2.79,1.46-6.72-1.34-8.77l-50.01-36.78c-1.08-.79-2.38-1.22-3.71-1.22-3.47,0-6.27,2.81-6.27,6.27v73.56c0,1.34.43,2.64,1.22,3.71,2.05,2.79,5.98,3.39,8.77,1.34l50.01-36.78c.51-.38.96-.83,1.34-1.34Z"/>
      </g>
      <g>
        <path class="cls-2" d="m212.94,253.91c-1.6,0-2.99-1.04-3.46-2.58l-1.9-5.54-2.2.03-1.93,5.57c-.46,1.49-1.86,2.52-3.46,2.52-.21,0-.42-.02-.62-.05l-2.59-.45c-1.81-.33-3.09-1.96-2.99-3.78l.09-5.85c-.85-.25-1.37-.43-2.06-.71l-3.7,4.55c-.64.87-1.72,1.42-2.87,1.42-.63,0-1.25-.17-1.8-.48l-2.29-1.32c-1.59-.92-2.24-2.88-1.51-4.56l2.08-5.47c-.55-.41-1.14-.89-1.71-1.4l-5.01,3.03c-.54.36-1.23.57-1.94.57-1.08,0-2.09-.48-2.77-1.3l-1.67-2.01c-1.16-1.42-1.09-3.48.17-4.8l3.81-4.4c-.42-.63-.8-1.29-1.15-1.94l-5.73,1.13c-.22.05-.51.09-.79.09-1.51,0-2.87-.96-3.39-2.38l-.9-2.46c-.64-1.72.11-3.64,1.75-4.48l5.11-2.84c-.2-.69-.32-1.47-.43-2.17l-5.77-.93c-1.77-.19-3.15-1.74-3.14-3.58v-2.61c.01-1.83,1.38-3.36,3.19-3.58l5.76-.93c.06-.64.17-1.25.29-1.89l.06-.29-5.12-2.85c-1.59-.82-2.34-2.74-1.71-4.46l.9-2.46c.52-1.42,1.88-2.37,3.39-2.37.28,0,.57.03.85.1l5.71,1.1c.31-.66.69-1.33,1.1-1.97l-3.85-4.39c-1.23-1.3-1.28-3.37-.09-4.77l1.66-2c.7-.82,1.71-1.29,2.78-1.29.7,0,1.39.2,1.98.59l4.98,3.08c.4-.44.88-.84,1.36-1.23l.27-.22-2.09-5.48c-.72-1.63-.08-3.61,1.53-4.53l2.27-1.32c.55-.32,1.17-.48,1.79-.48,1.15,0,2.24.56,2.92,1.49l3.64,4.47s.03.03.04.04c.55-.21,1.54-.58,2.01-.77l-.03-5.9c-.09-1.77,1.19-3.38,2.98-3.71l2.61-.45c.21-.04.42-.05.62-.05,1.61,0,3,1.03,3.48,2.57l1.9,5.54,2.2-.03,1.93-5.58c.47-1.49,1.86-2.52,3.46-2.52.2,0,.41.02.62.05l2.59.45c1.81.33,3.09,1.96,2.99,3.78l-.09,5.85c.77.23,1.72.6,2.11.76l3.65-4.58c.65-.88,1.73-1.43,2.88-1.43.63,0,1.25.17,1.8.48l2.29,1.34c1.58.92,2.23,2.88,1.5,4.56l-2.07,5.47c.55.41,1.14.9,1.71,1.4l5.01-3.03c.54-.36,1.23-.57,1.94-.57,1.08,0,2.08.48,2.77,1.3l1.67,2.01c1.16,1.4,1.11,3.46-.14,4.79l-3.81,4.41c.42.63.8,1.29,1.15,1.94l5.73-1.14c.22-.06.51-.09.79-.09,1.51,0,2.87.96,3.39,2.38l.89,2.47c.64,1.71-.11,3.64-1.75,4.47l-5.11,2.84c.2.67.31,1.43.43,2.16l5.77.95c1.72.2,3.09,1.65,3.19,3.44v2.72c-.01,1.83-1.39,3.37-3.19,3.59l-5.76.93c-.06.64-.17,1.25-.29,1.89l-.05.29,5.12,2.85c1.59.82,2.34,2.74,1.71,4.46l-.89,2.45c-.52,1.42-1.88,2.38-3.39,2.38h0c-.29,0-.57-.03-.85-.1l-5.71-1.11c-.31.66-.69,1.33-1.1,1.98l3.85,4.4c1.23,1.3,1.28,3.36.09,4.77l-1.67,2c-.7.82-1.71,1.29-2.78,1.29-.7,0-1.39-.2-1.98-.59l-5.02-3c-.41.42-.88.8-1.34,1.18l-.31.26,2.09,5.48c.71,1.63.07,3.59-1.53,4.52l-2.28,1.32c-.55.32-1.17.48-1.8.48-1.14,0-2.23-.55-2.9-1.47l-3.65-4.49h-.04c-.54.22-1.17.46-2.06.77l.11,5.87c.09,1.77-1.19,3.38-2.98,3.71l-2.61.46c-.2.04-.41.06-.62.06h-.02Zm-1.68-41.9c-.82,0-1.59.44-2,1.16l-10.41,18.1c-.37.64-.41,1.41-.12,2.08.29.67.9,1.17,1.61,1.33,2,.43,4.06.65,6.12.65,12.74,0,23.93-8.17,27.85-20.33.22-.69.09-1.46-.34-2.04-.43-.58-1.13-.93-1.87-.94h-20.84Zm-24.64-26.5c-.65,0-1.28.28-1.71.76-10.23,11.21-10.27,28.14-.1,39.39.44.49,1.07.77,1.72.77.08,0,.15,0,.23-.01.74-.08,1.4-.5,1.76-1.14l10.43-18.13c.4-.71.4-1.59,0-2.29l-10.33-18.18c-.36-.64-1.02-1.07-1.76-1.15-.08,0-.16-.01-.25-.01Zm19.85-8.78c-2.02,0-4.04.21-6,.62-.7.15-1.3.65-1.6,1.31-.29.67-.25,1.45.11,2.08l10.3,18.13c.41.72,1.17,1.17,2,1.17h20.82c.73,0,1.43-.35,1.86-.94.43-.59.56-1.36.34-2.05-3.91-12.16-15.09-20.33-27.83-20.33Z"/>
        <path class="cls-3" d="m212.91,159.41c.13,0,.27.01.4.03l2.59.45c1.17.22,2,1.27,1.94,2.46l-.09,5.9c0,.54.34,1.02.85,1.18.91.3,2.07.78,2.21.84.13.05.26.08.4.08.34,0,.67-.17.87-.47l3.7-4.65c.45-.62,1.16-.95,1.88-.95.4,0,.8.1,1.16.31l2.28,1.33c1.03.6,1.45,1.87.98,2.96l-2.1,5.52c-.19.5-.03,1.07.39,1.4.54.44,1.11.91,1.67,1.4.23.21.52.32.82.32.22,0,.43-.06.63-.17l5.06-3.04c.39-.26.84-.39,1.28-.39.67,0,1.33.29,1.79.84l1.68,2.02c.76.91.72,2.25-.09,3.11l-3.85,4.44c-.34.42-.38,1.01-.1,1.47.38.63.75,1.27,1.09,1.91.22.41.64.66,1.1.66.07,0,.15,0,.22-.02l5.78-1.13c.18-.04.37-.07.55-.07.96,0,1.85.6,2.19,1.54l.89,2.47c.41,1.11-.07,2.36-1.13,2.9l-5.15,2.86c-.46.27-.7.8-.59,1.32.16.7.27,1.44.38,2.15.07.54.48.97,1.02,1.06l5.8.94c1.16.13,2.05,1.08,2.12,2.25v2.65c0,1.19-.9,2.18-2.08,2.33l-5.81.94c-.53.09-.93.52-1.01,1.05-.1.64-.21,1.23-.33,1.86l-.05.29c-.12.53.12,1.07.59,1.33l5.16,2.87c1.06.54,1.54,1.79,1.13,2.9l-.89,2.46c-.34.94-1.23,1.54-2.2,1.54-.18,0-.37-.02-.55-.07l-5.76-1.12c-.07-.01-.15-.02-.22-.02-.45,0-.88.25-1.1.66-.33.65-.7,1.3-1.09,1.91-.29.46-.25,1.05.1,1.46l3.86,4.45c.82.86.85,2.2.08,3.11l-1.67,2.01c-.46.55-1.12.83-1.8.83-.44,0-.89-.12-1.28-.38l-5.07-3.03c-.19-.12-.41-.17-.63-.17-.29,0-.59.11-.82.31-.56.5-1.12.95-1.67,1.41-.42.34-.57.91-.38,1.41l2.09,5.51c.48,1.09.06,2.37-.98,2.96l-2.28,1.32c-.37.21-.77.31-1.16.31-.72,0-1.43-.33-1.88-.95l-3.79-4.67c-.15-.18-.37-.39-.75-.39-.14,0-.3.03-.48.09l-.14.05c-.54.21-1.15.44-2.02.74-.51.17-.85.64-.85,1.18l.09,5.92c.06,1.18-.77,2.23-1.94,2.44l-2.6.45c-.13.02-.26.04-.4.04h-.02c-1.03,0-1.94-.69-2.25-1.68l-1.92-5.58c-.18-.5-.65-.83-1.17-.83,0,0-.02,0-.03,0h-2.21s-.03,0-.05,0c-.52,0-.99.33-1.17.83l-1.92,5.6c-.31,1-1.23,1.66-2.25,1.66-.13,0-.27-.01-.41-.04l-2.59-.45c-1.17-.22-2-1.27-1.94-2.46l.09-5.89c0-.54-.34-1.02-.85-1.18-.93-.31-1.46-.5-2.25-.82-.09-.04-.18-.05-.28-.05-.31,0-.66.17-.9.47l-3.74,4.6c-.45.62-1.16.95-1.88.95-.4,0-.8-.1-1.16-.31l-2.29-1.32c-1.03-.6-1.45-1.87-.98-2.96l2.1-5.52c.19-.5.03-1.07-.39-1.4-.54-.44-1.11-.91-1.67-1.4-.23-.21-.52-.32-.82-.32-.22,0-.43.06-.63.17l-5.06,3.04c-.39.26-.84.39-1.28.39-.67,0-1.33-.29-1.79-.84l-1.68-2.02c-.75-.92-.7-2.25.11-3.12l3.85-4.44c.35-.42.39-1.01.1-1.47-.38-.63-.75-1.27-1.09-1.91-.22-.41-.64-.66-1.09-.66-.07,0-.15,0-.22.02l-5.78,1.12c-.18.04-.37.07-.55.07-.96,0-1.85-.6-2.2-1.54l-.9-2.47c-.42-1.11.07-2.36,1.13-2.9l5.15-2.87c.46-.27.7-.8.59-1.32-.16-.7-.27-1.44-.38-2.15-.07-.54-.48-.97-1.02-1.06l-5.81-.94c-1.18-.13-2.08-1.13-2.07-2.32v-2.62c0-1.18.89-2.18,2.07-2.32l5.81-.94c.53-.1.94-.52,1.01-1.05.1-.64.21-1.23.33-1.86l.05-.29c.12-.53-.12-1.08-.6-1.34l-5.15-2.86c-1.06-.54-1.54-1.79-1.13-2.91l.9-2.46c.34-.94,1.23-1.54,2.2-1.54.18,0,.37.02.55.07l5.77,1.12c.08.01.15.02.22.02.45,0,.88-.25,1.1-.66.33-.65.7-1.29,1.09-1.91.29-.46.25-1.05-.1-1.46l-3.86-4.44c-.82-.86-.85-2.2-.08-3.11l1.67-2.01c.46-.55,1.13-.83,1.8-.83.44,0,.89.12,1.28.38l5,3.1c.19.11.41.17.62.17.29,0,.59-.11.82-.31.56-.5,1.12-.95,1.67-1.41.42-.34.57-.91.38-1.41l-2.09-5.51c-.48-1.1-.06-2.38.98-2.98l2.28-1.32c.36-.21.76-.31,1.16-.31.72,0,1.44.34,1.89.96l3.68,4.52c.3.35.66.53,1.01.53.11,0,.23-.02.34-.06.51-.19,1.64-.62,2.15-.82.52-.16.88-.64.87-1.19l-.09-5.92c-.06-1.18.77-2.23,1.94-2.44l2.6-.45c.13-.02.27-.03.4-.03,1.02,0,1.95.67,2.26,1.67l1.91,5.58c.18.5.64.83,1.17.83.01,0,.02,0,.03,0h2.21s.03,0,.05,0c.52,0,.99-.33,1.16-.83l1.92-5.61c.31-1,1.24-1.66,2.25-1.66m-1.63,41.91h20.83c1.14,0,2.21-.54,2.88-1.46.67-.92.87-2.1.53-3.19-3.95-12.3-15.47-21.22-29.04-21.22h0c-2.11,0-4.2.22-6.26.65-1.11.25-2.04,1-2.5,2.05-.46,1.04-.4,2.24.17,3.23l10.3,18.13c.63,1.12,1.82,1.81,3.11,1.81m-24.75,26.39c.12,0,.25,0,.37-.02,1.14-.12,2.16-.78,2.73-1.77l10.43-18.13c.63-1.1.63-2.46,0-3.56l-10.33-18.18c-.57-1-1.58-1.67-2.72-1.79-.13-.01-.26-.02-.39-.02-1.01,0-1.98.43-2.66,1.18-10.61,11.63-10.66,29.42-.1,41.1.68.76,1.65,1.19,2.66,1.19m19.93,8.88h0c13.57,0,25.09-8.92,29.05-21.21.34-1.09.14-2.27-.53-3.19-.67-.92-1.74-1.45-2.89-1.46h-20.85c-1.28,0-2.46.68-3.1,1.79l-10.41,18.1c-.57.99-.64,2.19-.18,3.23.46,1.04,1.38,1.81,2.5,2.06,2.1.45,4.25.68,6.4.68m6.45-79.72c-2.14,0-4.01,1.37-4.67,3.4l-1.61,4.69h-.42l-1.6-4.66c-.65-2.05-2.52-3.43-4.68-3.43-.28,0-.56.02-.83.07l-2.6.45c-2.42.44-4.14,2.6-4.04,5.02l.08,4.96c-.13.05-.26.1-.38.15l-3.1-3.81c-.92-1.22-2.37-1.95-3.9-1.95-.85,0-1.68.22-2.42.65l-2.29,1.33c-2.14,1.23-3.02,3.86-2.06,6.14l1.74,4.58c-.1.08-.2.16-.29.24l-4.13-2.56c-.79-.51-1.7-.77-2.64-.77-1.44,0-2.81.63-3.74,1.73l-1.69,2.03c-1.58,1.86-1.52,4.63.15,6.44l3.2,3.68c-.07.13-.15.26-.22.39l-4.78-.92c-.35-.08-.72-.12-1.08-.12-2.04,0-3.89,1.29-4.59,3.21l-.9,2.45c-.85,2.3.14,4.88,2.31,6.03l4.29,2.38c-.03.14-.05.28-.08.42l-4.83.78c-2.41.32-4.23,2.39-4.25,4.82v2.64c-.01,2.46,1.81,4.54,4.27,4.84l4.81.78c.02.14.05.28.07.42l-4.27,2.38c-2.18,1.14-3.17,3.72-2.31,6.03l.9,2.45c.7,1.92,2.54,3.21,4.58,3.21.36,0,.72-.04,1.08-.12l4.79-.93c.07.13.15.26.22.38l-3.19,3.69c-1.65,1.79-1.74,4.54-.19,6.43l1.69,2.03c.92,1.12,2.29,1.76,3.74,1.76.94,0,1.85-.27,2.64-.78l4.2-2.52c.1.09.2.17.3.25l-1.75,4.59c-.94,2.26-.06,4.88,2.06,6.11l2.29,1.32c.74.43,1.58.65,2.44.65,1.52,0,2.97-.72,3.89-1.93l3.08-3.79c.12.05.25.09.38.13l-.08,4.89c-.1,2.44,1.62,4.6,4.02,5.04l2.62.46c.28.05.56.07.85.07,2.14,0,4.01-1.37,4.67-3.4l1.61-4.68h.42l1.6,4.66c.65,2.05,2.52,3.43,4.66,3.43.3,0,.59-.03.87-.08l2.58-.45c2.41-.44,4.14-2.59,4.04-5.02l-.08-4.92c.14-.05.27-.1.39-.14l3.07,3.79c.92,1.21,2.36,1.93,3.89,1.93.85,0,1.69-.23,2.43-.65l2.28-1.32c2.13-1.23,3.01-3.85,2.06-6.12l-1.74-4.59c.1-.08.2-.17.3-.25l4.21,2.52c.79.5,1.69.76,2.62.76,1.45,0,2.81-.63,3.74-1.74l1.69-2.03c1.58-1.86,1.52-4.63-.15-6.44l-3.2-3.69c.07-.13.15-.26.22-.39l4.77.93c.35.08.72.12,1.08.12,2.04,0,3.89-1.29,4.59-3.21l.89-2.47c.85-2.29-.14-4.87-2.32-6.01l-4.29-2.38c.03-.14.05-.28.08-.42l4.83-.78c2.41-.32,4.24-2.39,4.26-4.83v-2.67s0-.09,0-.14c-.13-2.39-1.93-4.33-4.3-4.63l-4.81-.78c-.02-.14-.05-.28-.07-.42l4.27-2.37c2.18-1.14,3.17-3.72,2.31-6.03l-.89-2.45c-.7-1.92-2.54-3.22-4.59-3.22-.36,0-.73.04-1.08.12l-4.79.94c-.07-.13-.14-.25-.22-.38l3.2-3.7c1.64-1.8,1.71-4.56.15-6.43l-1.68-2.02c-.92-1.11-2.29-1.76-3.74-1.76-.94,0-1.85.27-2.64.78l-4.2,2.52c-.1-.09-.2-.17-.3-.25l1.74-4.59c.94-2.26.06-4.88-2.06-6.11l-2.27-1.33c-.75-.43-1.59-.66-2.45-.66-1.53,0-2.98.73-3.9,1.94l-3.04,3.82c-.13-.05-.27-.1-.41-.16l.07-4.91c.1-2.44-1.62-4.6-4.02-5.04l-2.61-.46c-.27-.05-.56-.07-.84-.07h0Zm-1.63,41.91c-.37,0-.71-.2-.89-.52l-10.3-18.13c-.17-.29-.19-.64-.05-.94.13-.3.4-.52.72-.59,1.86-.39,3.79-.59,5.71-.59,12.19,0,22.89,7.82,26.63,19.45.09.29.04.64-.16.9-.19.26-.5.42-.83.42h-20.83Zm-24.75,26.39c-.29,0-.57-.13-.77-.34-9.74-10.77-9.7-26.97.08-37.68.21-.23.49-.35.78-.35.04,0,.07,0,.11,0,.33.04.62.23.79.52l10.33,18.18c.19.33.19.72,0,1.04l-10.43,18.12c-.16.29-.46.48-.78.51-.04,0-.07,0-.11,0h0Zm19.93,8.88c-1.97,0-3.94-.21-5.86-.62-.3-.07-.57-.29-.7-.59-.13-.3-.11-.65.05-.93l10.41-18.11c.18-.32.53-.52.89-.52h20.85c.33,0,.64.15.84.42.19.26.25.61.15.92-3.74,11.61-14.44,19.43-26.62,19.43h0Z"/>
      </g>
    </g>
  </g>
</svg>