<?xml version="1.0" encoding="utf-8"?>
<!-- Generator: Adobe Illustrator 16.0.0, SVG Export Plug-In . SVG Version: 6.00 Build 0)  -->
<!DOCTYPE svg PUBLIC "-//W3C//DTD SVG 1.1//EN" "http://www.w3.org/Graphics/SVG/1.1/DTD/svg11.dtd">
<svg version="1.1" xmlns="http://www.w3.org/2000/svg" xmlns:xlink="http://www.w3.org/1999/xlink" x="0px" y="0px"
	 width="3004.72px" height="3004.72px" viewBox="0 0 3004.72 3004.72" enable-background="new 0 0 3004.72 3004.72"
	 xml:space="preserve">
<g id="Body">
	<linearGradient id="SVGID_1_" gradientUnits="userSpaceOnUse" x1="2080.8506" y1="309.6274" x2="2080.8506" y2="2710.03">
		<stop  offset="0" style="stop-color:#3D5AA3"/>
		<stop  offset="1" style="stop-color:#222C5A"/>
	</linearGradient>
	<polygon fill="url(#SVGID_1_)" points="2684.52,1501.733 1477.181,2710.83 1477.181,292.637 	"/>
	
		<linearGradient id="SVGID_2_" gradientUnits="userSpaceOnUse" x1="-93.334" y1="300.5542" x2="-93.3341" y2="2710.0493" gradientTransform="matrix(0.9987 0 0 1 1145.0063 0)">
		<stop  offset="0" style="stop-color:#7960A9"/>
		<stop  offset="1" style="stop-color:#462979"/>
	</linearGradient>
	<polygon fill="url(#SVGID_2_)" points="269.878,1501.733 1477.217,292.637 1477.217,1101.411 1746.709,1169.411 1798.709,1300.411 
		1737.709,1433.411 1477.217,1466.411 1477.217,1510.411 1772.709,1575.411 1833.709,1815.411 1477.217,1954.411 1477.217,2710.83 	
		"/>
	<g>
		<path fill="#FFFFFF" d="M1583.156,1494.952c49.469,6.312,92.562,16.172,129.25,29.609s67.094,29.391,91.203,47.859
			s42.031,39.359,53.781,62.656c11.734,23.312,17.609,47.969,17.609,74c0,45.344-11.453,84.703-34.328,118.078
			s-53.938,60.875-93.188,82.5s-85.203,37.688-137.891,48.188c-52.688,10.484-108.609,15.734-167.797,15.734
			c-42.406,0-80.609-1.578-114.609-4.703c-34-3.156-65.281-7.656-93.812-13.516c-28.547-5.875-55.203-12.891-79.969-21.062
			s-48.906-17.078-72.406-26.719v-91c52.344,30.797,106.375,53.156,162.078,67.094c55.688,13.938,115.375,20.906,179.031,20.906
			c64.062,0,119.453-4.719,166.156-14.156c46.688-9.438,85.219-22.641,115.578-39.641c30.359-16.984,52.969-37.438,67.844-61.344
			s22.312-50.328,22.312-79.281c0-62.5-37.719-108-113.125-136.531c-75.406-28.516-191.031-43.203-346.875-44.047v-68
			c142.5,0,249.781-12.5,321.875-37.5c72.078-25,108.125-65.047,108.125-120.109c0-51.266-28.859-90.984-86.562-119.141
			s-142.578-42.25-254.625-42.25c-32.734,0-63.266,1.688-91.594,5.062s-55.5,8.422-81.516,15.172
			c-26.031,6.75-51.422,14.953-76.172,24.641s-49.938,21.062-75.531,34.125v-91c28.125-9.156,55.609-17.188,82.484-24.062
			s53.953-12.594,81.25-17.188c27.281-4.578,55.203-8.016,83.75-10.312c28.547-2.281,58.562-3.438,90.062-3.438
			c35.266,0,69.797,1.688,103.594,5.047s65.812,8.703,96.031,16.047s58.031,16.797,83.438,28.344s47.344,25.609,65.812,42.188
			c18.469,16.594,32.859,35.797,43.141,57.625s15.438,46.594,15.438,74.297c0,22.25-5.359,43.875-16.047,64.859
			c-10.703,21-26.859,40.312-48.453,57.938s-48.656,32.844-81.156,45.641C1664.844,1480.374,1626.781,1489.499,1583.156,1494.952z"
			/>
	</g>
</g>
<g id="Top_Board" display="none">
	<polygon display="inline" fill="#FFFFFF" fill-opacity="0.1" points="1477.217,292.637 1477.229,435.104 2614.24,1572.115 
		2684.57,1501.785 	"/>
	<polygon display="inline" fill="#FFFFFF" fill-opacity="0.1" points="1477.232,292.637 1477.22,435.104 340.208,1572.115 
		269.878,1501.785 	"/>
</g>
</svg>
