<svg xmlns="http://www.w3.org/2000/svg" xmlns:xlink="http://www.w3.org/1999/xlink" width="140.047" height="147.496" viewBox="0 0 140.047 147.496">
  <defs>
    <clipPath id="clip-path">
      <rect id="Rectangle_220" data-name="Rectangle 220" width="111" height="106" transform="translate(655.962 447.62)" fill="none"/>
    </clipPath>
  </defs>
  <g id="Group_1140" data-name="Group 1140" transform="translate(-638.915 -447.62)">
    <g id="Group_1120" data-name="Group 1120">
      <g id="Group_1119" data-name="Group 1119" clip-path="url(#clip-path)">
        <g id="Group_1118" data-name="Group 1118">
          <g id="Group_1117" data-name="Group 1117">
            <path id="Path_524" data-name="Path 524" d="M692.982,628.16c33.085,0,59.906,5.979,59.906,13.354s-26.821,13.355-59.906,13.355-59.906-5.979-59.906-13.355S659.9,628.16,692.982,628.16Z" fill="#2c2c43" fill-rule="evenodd" opacity="0.2"/>
            <g id="Group_1069" data-name="Group 1069">
              <g id="Group_1058" data-name="Group 1058">
                <g id="Group_1057" data-name="Group 1057">
                  <path id="Path_525" data-name="Path 525" d="M643.418,613.149c-31.066-6.215-37.182-42.758-25.954-62.367,5.357-9.356,14.353-16.881,16.826-27.375,2.7-11.458-4.354-24.384-15.452-28.311a19.593,19.593,0,0,1-5.211-2.188c-4.593-3.352-6.431-6.946-2.923-11.421,4.368-5.57,29.988,8.034,33.616,23.112,2.534,10.534,1.741,23.11-4.714,31.813-6.786,9.15-14.907,17.917-17.6,28.987-3.481,14.329,6.1,30.941,19.5,35.559" fill="#8ba1d2"/>
                </g>
              </g>
              <g id="Group_1060" data-name="Group 1060">
                <g id="Group_1059" data-name="Group 1059">
                  <path id="Path_526" data-name="Path 526" d="M611.094,479.815c-1.026-.005-1.951.176-1.971.4,0,0,2.087,1.26,1.581,1.274-1.526.042-4.182-1.485-5.064-1.654-.577-.11-.186.37,1.054,2.221,4.654,6.946.107,1.836.823,3.821a11.572,11.572,0,0,0,4.335,6.252,19.766,19.766,0,0,0,5.211,2.188c.494.175.977.374,1.455.584.772-.286,4.414-.221,3.892-.848-.365-.438-1.239-1.272-.876-2.044.447-.954,1.606-2.19,2.628-1.825,0,0-.354-1.827-.692-3.4-.184-.856,3.752-1.785,3.442-2.014-3.72-2.748-8.477-4.7-11.821-4.952C614.329,479.76,612.008,479.819,611.094,479.815Z" fill="#3b4b81"/>
                </g>
              </g>
              <g id="Group_1062" data-name="Group 1062">
                <g id="Group_1061" data-name="Group 1061">
                  <path id="Path_527" data-name="Path 527" d="M643.009,530.315c.805-1.261.609-2.725,1.345-4.024a11.917,11.917,0,0,1-5.019,1.546c-.607.045-1.226-1.769-1.632-1.282-.547.657-1.3,1.243-1.869,1.191-.441-.04-.473-2.564-.649-2.122a3.053,3.053,0,0,1-2.217,1.837c-.366.886-.781,1.749-1.223,2.6,1.8.274,2.473-.422,3.568,1.056.253.342,2.989-1.509,3.412-1.5.495.014.315,1.773.816,1.752.533-.023,1.692-1.888,1.995-2.355C641.974,528.343,642.376,530.462,643.009,530.315Z" fill="#3b4b81"/>
                </g>
              </g>
              <g id="Group_1064" data-name="Group 1064">
                <g id="Group_1063" data-name="Group 1063">
                  <path id="Path_528" data-name="Path 528" d="M622.43,563.862a38.842,38.842,0,0,1,2.029-5.342c-1.078.427-1.675,1.566-2.8,1.706-.817.1-2.154-.731-2.977-.763-1.028-.041-2.089,1.042-3.1.818-.5-.111-.96-1.464-1.45-1.614a44.358,44.358,0,0,0-1.225,5.359c.887.077,1.834,1.059,2.73,1.073.474.008.894-.933,1.37-.94.637-.009.977,1.129.847.5-.23-1.111,1.526-.977,2.046-.615C620.593,564.528,621.586,563.932,622.43,563.862Z" fill="#3b4b81"/>
                </g>
              </g>
              <g id="Group_1066" data-name="Group 1066">
                <g id="Group_1065" data-name="Group 1065">
                  <path id="Path_529" data-name="Path 529" d="M631.121,594.337c.053,1.487-1.2.788-1.9,2.08-.241.444.649,2.559.342,2.976-.25.34-1.1-1.271-1.382-.951-.229.257-.2,2.867-.45,3.11-.307.3-.642-.542-.974-.263-.578.488-1.173,2.077-1.8,2.5a35.611,35.611,0,0,0,2.926,2.484c.439-.546,1.773-.065,2.16-.657.176-.268-.575-1.591-.41-1.867.372-.623,1.963.169,1.779-.542-.876-3.4,3.158-3.467,2.245-4.38a3.9,3.9,0,0,1-.88-2.979C632.208,595.363,631.653,594.864,631.121,594.337Z" fill="#3b4b81"/>
                </g>
              </g>
              <g id="Group_1068" data-name="Group 1068">
                <g id="Group_1067" data-name="Group 1067">
                  <path id="Path_530" data-name="Path 530" d="M642.364,499.667c-.4.846-2.823-.871-2.823-.871-.319.564.881,4.652.353,5.205-.5.527-2.355-1.988-2.355-1.044,0,.712-2.664,4.127-5.148,4.765.344.721.65,1.459.926,2.207a3.5,3.5,0,0,1,2.47,1.514c.212.583.919-1.781,1.47-1.863.707-.1,2.284-.053,2.284.933,0,1.993,3.285-2.495,5.119-3.534C644.747,504.33,643.532,502.137,642.364,499.667Z" fill="#3b4b81"/>
                </g>
              </g>
            </g>
            <g id="Group_1071" data-name="Group 1071">
              <g id="Group_1070" data-name="Group 1070">
                <path id="Path_531" data-name="Path 531" d="M688.335,477.992l-12.043-15.45c-.318,67.31-11.41,86.254-29.561,111-20.839,28.414-.089,70.384,35.141,69.7,18.469-.357,23.733-.547,40.568-4.569a41.078,41.078,0,0,0,31.252-35.957c3.11-31.372,4.108-68.722-21.27-136.94-.2-.534-1.971-4.161-1.971-4.161s-4.9,13.131-6.038,15.99Z" fill="#8ba1d2"/>
              </g>
            </g>
            <g id="Group_1073" data-name="Group 1073">
              <g id="Group_1072" data-name="Group 1072">
                <path id="Path_532" data-name="Path 532" d="M740.31,568.618A23.112,23.112,0,0,0,717.2,545.506c-12.764,0-22.3,9.316-23.112,23.112,0,0-4.751,44.525-12.214,75.858,19,.433,40.5-.311,52.025-10.3C743.149,595.818,740.31,568.618,740.31,568.618Z" fill="#c0b0ca"/>
              </g>
            </g>
            <g id="Group_1076" data-name="Group 1076">
              <g id="Group_1075" data-name="Group 1075">
                <g id="Group_1074" data-name="Group 1074">
                  <path id="Path_533" data-name="Path 533" d="M671.982,528.259c-1.962.3-6.215.939-8.178,1.241a13.719,13.719,0,0,1,6.149-7.233,41.919,41.919,0,0,0-9.808,1.331,26.646,26.646,0,0,1,12.988-14.2c-1.631.123-5.114.065-6.746.188,1.763-2.561,6.792-4.721,9.486-6.273" fill="#8ba1d2"/>
                </g>
              </g>
            </g>
            <g id="Group_1079" data-name="Group 1079">
              <g id="Group_1078" data-name="Group 1078">
                <g id="Group_1077" data-name="Group 1077">
                  <path id="Path_534" data-name="Path 534" d="M748.6,528.2c1.984.073,6.282.213,8.266.286a13.716,13.716,0,0,0-6.943-6.473,41.955,41.955,0,0,1,9.9.187,26.649,26.649,0,0,0-14.545-12.6c1.635-.067,5.088-.528,6.722-.594-2.047-2.34-7.292-3.9-10.148-5.133" fill="#8ba1d2"/>
                </g>
              </g>
            </g>
            <g id="Group_1081" data-name="Group 1081">
              <g id="Group_1080" data-name="Group 1080">
                <path id="Path_535" data-name="Path 535" d="M748.122,608.354c-1.792,17.26-4.331,33.465-8.841,33.156-8.84-.6-1.633-21.121-.435-33.156" fill="#8ba1d2"/>
              </g>
            </g>
            <g id="Group_1083" data-name="Group 1083">
              <g id="Group_1082" data-name="Group 1082">
                <path id="Path_536" data-name="Path 536" d="M686.77,619.191c-1.792,17.26-4.331,33.465-8.841,33.157-8.84-.605-1.633-21.122-.434-33.157" fill="#8ba1d2"/>
              </g>
            </g>
            <g id="Group_1089" data-name="Group 1089">
              <g id="Group_1085" data-name="Group 1085">
                <g id="Group_1084" data-name="Group 1084">
                  <circle id="Ellipse_36" data-name="Ellipse 36" cx="7.142" cy="7.142" r="7.142" transform="matrix(0.923, -0.385, 0.385, 0.923, 716.777, 491.053)" fill="#fff"/>
                </g>
              </g>
              <g id="Group_1088" data-name="Group 1088">
                <g id="Group_1087" data-name="Group 1087">
                  <g id="Group_1086" data-name="Group 1086">
                    <circle id="Ellipse_37" data-name="Ellipse 37" cx="0.816" cy="0.816" r="0.816" transform="translate(725.36 494.168)" fill="#231f20"/>
                  </g>
                </g>
              </g>
            </g>
            <g id="Group_1095" data-name="Group 1095">
              <g id="Group_1091" data-name="Group 1091">
                <g id="Group_1090" data-name="Group 1090">
                  <circle id="Ellipse_38" data-name="Ellipse 38" cx="7.142" cy="7.142" r="7.142" transform="translate(690.959 491.422) rotate(-22.657)" fill="#fff"/>
                </g>
              </g>
              <g id="Group_1094" data-name="Group 1094">
                <g id="Group_1093" data-name="Group 1093">
                  <g id="Group_1092" data-name="Group 1092">
                    <circle id="Ellipse_39" data-name="Ellipse 39" cx="0.777" cy="0.777" r="0.777" transform="translate(699.581 494.576)" fill="#231f20"/>
                  </g>
                </g>
              </g>
            </g>
            <g id="Group_1097" data-name="Group 1097">
              <g id="Group_1096" data-name="Group 1096">
                <path id="Path_537" data-name="Path 537" d="M709.55,507.016H716a1.136,1.136,0,0,1,.845,1.9l-3.227,3.59a1.135,1.135,0,0,1-1.689,0l-3.227-3.59A1.136,1.136,0,0,1,709.55,507.016Z" fill="#3b4b81"/>
              </g>
            </g>
            <g id="Group_1098" data-name="Group 1098">
              <path id="Path_538" data-name="Path 538" d="M695.447,512.362c-10.282,0-15.495-6.251-15.495-18.581,0-8.718,8.281-9.836,15.495-9.836,6.787,0,16.083,0,16.083,8.8C711.53,500.646,704.777,512.362,695.447,512.362Zm0-25.985c-9.278,0-13.063,2.145-13.063,7.4,0,6.933,1.354,16.149,13.063,16.149,7.536,0,13.651-10.4,13.651-17.183C709.1,487.33,704.7,486.377,695.447,486.377Z" fill="#444445"/>
            </g>
            <g id="Group_1099" data-name="Group 1099">
              <path id="Path_539" data-name="Path 539" d="M730.98,512.362c-9.33,0-16.083-11.716-16.083-19.615,0-8.8,9.3-8.8,16.083-8.8,7.214,0,15.495,1.118,15.495,9.836C746.475,506.111,741.262,512.362,730.98,512.362Zm0-25.985c-9.249,0-13.651.953-13.651,6.37,0,6.786,6.116,17.183,13.651,17.183,11.709,0,13.063-9.216,13.063-16.149C744.043,488.522,740.259,486.377,730.98,486.377Z" fill="#444445"/>
            </g>
            <g id="Group_1100" data-name="Group 1100">
              <rect id="Rectangle_219" data-name="Rectangle 219" width="6.799" height="2.432" transform="translate(709.814 492.011)" fill="#444445"/>
            </g>
            <g id="Group_1103" data-name="Group 1103">
              <g id="Group_1102" data-name="Group 1102">
                <path id="Path_540" data-name="Path 540" d="M713.345,520.763c-.042.619,1.65,1.281,1.182,1.689a1.622,1.622,0,0,1-1.573.228c-.525-.181.04-1.151-.346-1.549-.5-.518-.431-4.606-.409-4.995.046-.781-.055-1.622-.055-2.412v-6.141h1.265v9.122" fill="#3b4b81"/>
                <g id="Group_1101" data-name="Group 1101">
                  <path id="Path_541" data-name="Path 541" d="M716.573,517.918l-.241.582a.471.471,0,0,1-.884-.039l-.514-1.621a5.629,5.629,0,0,0-5.03.189l-.462,1.456a.438.438,0,0,1-.821.035l-.171-.411a7.543,7.543,0,0,0,.2,10.668,3.967,3.967,0,0,1,2.115-1.007c3.319-.119,4.887.379,5.747,1.053a7.532,7.532,0,0,0,.062-10.9Z" fill="#3b4b81"/>
                  <path id="Path_542" data-name="Path 542" d="M710.764,527.77a3.967,3.967,0,0,0-2.115,1.007,5.755,5.755,0,0,0,7.862.046C715.651,528.149,714.083,527.651,710.764,527.77Z" fill="#a970cd"/>
                  <path id="Path_543" data-name="Path 543" d="M709.442,518.485l.462-1.456a6.244,6.244,0,0,0-1.454,1.08l.171.411A.438.438,0,0,0,709.442,518.485Z" fill="#bfbfbf"/>
                  <path id="Path_544" data-name="Path 544" d="M716.332,518.5l.241-.582a6.145,6.145,0,0,0-1.639-1.078l.514,1.621A.471.471,0,0,0,716.332,518.5Z" fill="#bfbfbf"/>
                </g>
              </g>
            </g>
            <g id="Group_1104" data-name="Group 1104">
              <path id="Path_545" data-name="Path 545" d="M663.429,546.681a39.316,39.316,0,0,0,6.65,0c1.752-.361-1.314.953-1.314.953h7.108l-1.56,1.168,6.936.368a42.936,42.936,0,0,1-8.615,1.165c-2.894-.1.016,1.387.016,1.387s-4.328-.588-5.637-1.46c-.657-.438-.146,1.46-.146,1.46l-5.62-.547Z" fill="#3b4b81"/>
            </g>
            <g id="Group_1105" data-name="Group 1105">
              <path id="Path_546" data-name="Path 546" d="M712.985,477.895a16.006,16.006,0,0,0,3.128,1.081c.759.084-2.9.657-2.9.657l1.469,1.259-3.031.489,1.562,2.687s-4.006.131-5.813-2.792c-.586-.949-3.23.252-3.23.252s.809-2.092,1.752-2.443c.474-.176-2.683-.054-2.683-.054l1.312-1.047Z" fill="#3b4b81"/>
            </g>
            <g id="Group_1106" data-name="Group 1106">
              <path id="Path_547" data-name="Path 547" d="M654.2,562.834a33.609,33.609,0,0,0,5.68,0c1.5-.309-1.122.813-1.122.813h6.07l-1.332,1,5.922.314a36.582,36.582,0,0,1-7.356.995c-2.472-.083.013,1.185.013,1.185s-3.7-.5-4.814-1.247c-.561-.374-.124,1.247-.124,1.247l-5.331-.518Z" fill="#3b4b81"/>
            </g>
            <g id="Group_1107" data-name="Group 1107">
              <path id="Path_548" data-name="Path 548" d="M659.837,553.965s6.468.477,8.781,0-1.734,1.258-1.734,1.258h9.385l-2.06,1.542,9.157.486s-7.085,1.682-11.374,1.538c-3.822-.129.021,1.831.021,1.831s-5.715-.776-7.443-1.928c-.867-.578-.193,1.928-.193,1.928l-8.092-.786Z" fill="#3b4b81"/>
            </g>
            <g id="Group_1108" data-name="Group 1108">
              <path id="Path_549" data-name="Path 549" d="M708.428,549.17s6.036-3,5.744-6.208,3.026,2.544,3.026,2.544a7.009,7.009,0,0,0,.6-5.465c-.852-3.358,3.549,2.419,3.248,4.808s4.368-1.3,4.514-3.493,2.482,6.576.584,7.814-7.154,2.845-7.592,2.479S708.428,549.17,708.428,549.17Z" fill="#c0b0ca"/>
            </g>
            <g id="Group_1109" data-name="Group 1109">
              <path id="Path_550" data-name="Path 550" d="M738.617,597.754s1.738-3.438,3.573-3.258-1.442-1.741-1.442-1.741a4.007,4.007,0,0,1,3.126-.32c1.916.5-1.368-2.039-2.735-1.877s.763-2.492,2.015-2.566-3.749-1.446-4.465-.366-1.655,4.079-1.448,4.33S738.617,597.754,738.617,597.754Z" fill="#c0b0ca"/>
            </g>
            <g id="Group_1110" data-name="Group 1110">
              <path id="Path_551" data-name="Path 551" d="M700.74,552.233s-3.942,2.044-5.329.511-.626,2.076,1.4,3.484-2.205,2.5-2.862,1.845,1.1,1.825,1.939,2.044S700.74,552.233,700.74,552.233Z" fill="#c0b0ca"/>
            </g>
            <g id="Group_1111" data-name="Group 1111">
              <path id="Path_552" data-name="Path 552" d="M739.615,562.806s.319-4.429,2.351-4.81a2.859,2.859,0,0,0-3.519-.7c-2.26.994-1.165-3.115-.261-3.331s-2.133-.013-2.756.584S739.615,562.806,739.615,562.806Z" fill="#c0b0ca"/>
            </g>
            <g id="Group_1112" data-name="Group 1112">
              <path id="Path_553" data-name="Path 553" d="M739.394,573.987a1.533,1.533,0,0,0,1.57,1.059c1.2-.11,1.533-.526,1.533-.526a3.871,3.871,0,0,1-.949,1.584c-.694.657-.438.493-.438.493a3.985,3.985,0,0,1,.985,1c.494.693-.129,1.606-.129,1.606a2.044,2.044,0,0,0-1.518-.986,1.592,1.592,0,0,1-1.273-1.314" fill="#c0b0ca"/>
            </g>
            <g id="Group_1113" data-name="Group 1113">
              <path id="Path_554" data-name="Path 554" d="M692.19,593.26s-2.081,3.242-3.888,2.874,1.256,1.88,1.256,1.88a4.007,4.007,0,0,1-3.143,0c-1.855-.7,1.152,2.168,2.528,2.147s-1.014,2.4-2.268,2.346,3.581,1.823,4.4.822,2.065-3.887,1.885-4.159S692.19,593.26,692.19,593.26Z" fill="#c0b0ca"/>
            </g>
            <g id="Group_1114" data-name="Group 1114">
              <path id="Path_555" data-name="Path 555" d="M688.978,616.822a1.532,1.532,0,0,0-1.453-1.214c-1.209-.015-1.578.365-1.578.365a3.861,3.861,0,0,1,1.106-1.478c.757-.582.486-.445.486-.445a4.006,4.006,0,0,1-.877-1.1c-.421-.74.294-1.584.294-1.584a2.042,2.042,0,0,0,1.408,1.136,1.593,1.593,0,0,1,1.132,1.438" fill="#c0b0ca"/>
            </g>
            <g id="Group_1115" data-name="Group 1115">
              <path id="Path_556" data-name="Path 556" d="M676.258,469.994l-2.695-1.8,2.695,4.62H674.2l2.053,1.925-1.347,2.182h1.347" fill="#8ba1d2"/>
            </g>
            <g id="Group_1116" data-name="Group 1116">
              <path id="Path_557" data-name="Path 557" d="M733.194,469.416l2.752-3.363-1.226,5.206,1.964-.6-1.4,2.441,1.927,1.692L735,475.61" fill="#8ba1d2"/>
            </g>
          </g>
        </g>
      </g>
    </g>
    <g id="Group_1139" data-name="Group 1139">
      <g id="Group_1121" data-name="Group 1121">
        <path id="Path_558" data-name="Path 558" d="M778.962,577c0,10-31.351,18.114-70.024,18.114s-70.023-8.11-70.023-18.114c0-1.721.928-6.536,2.662-8.113,8.343-7.591,35.342-10,67.361-10,33.731,0,60.715,1.785,67.362,10C777.274,570.092,778.962,575.724,778.962,577Z" fill="#0a0a0f"/>
      </g>
      <g id="Group_1122" data-name="Group 1122">
        <path id="Path_559" data-name="Path 559" d="M776.3,568.889a10.257,10.257,0,0,0-1.656-1.6c-3.083,27.823-87.165,27.823-119.2,21.391,12.845,3.932,32.039,6.432,53.5,6.432,38.673,0,70.024-8.11,70.024-18.114C778.962,575.724,777.274,570.092,776.3,568.889Z" fill="#0a0a0f"/>
      </g>
      <g id="Group_1123" data-name="Group 1123">
        <path id="Path_560" data-name="Path 560" d="M775.037,565.4l-7.878-21.777L650.8,542.641l-8.035,22.873a5.866,5.866,0,0,0-1.185,3.375c0,10,30.158,18.113,67.361,18.113s67.362-8.11,67.362-18.113A5.926,5.926,0,0,0,775.037,565.4Z" fill="#c1b1cb"/>
      </g>
      <g id="Group_1124" data-name="Group 1124">
        <path id="Path_561" data-name="Path 561" d="M775.037,565.4l-7.878-21.777-14.334-.12c-22.316,35.678-70.674,40.476-109.907,29,6.223,8.274,33.415,14.5,66.02,14.5,37.2,0,67.362-8.11,67.362-18.113A5.926,5.926,0,0,0,775.037,565.4Z" fill="#af98be"/>
      </g>
      <g id="Group_1128" data-name="Group 1128">
        <g id="Group_1125" data-name="Group 1125">
          <ellipse id="Ellipse_40" data-name="Ellipse 40" cx="55.913" cy="14.463" rx="55.913" ry="14.463" transform="translate(653.025 529.157)" fill="#ddd"/>
        </g>
        <g id="Group_1126" data-name="Group 1126">
          <path id="Path_562" data-name="Path 562" d="M730.092,530.231c3.262,4.587-.395,11.883-4.059,15.547a59.851,59.851,0,0,1-29.514,11.943c4,.235,8.149.362,12.419.362,30.88,0,55.913-6.475,55.913-14.463C764.851,537.569,750.481,532.389,730.092,530.231Z" fill="#c9c9c9"/>
        </g>
        <g id="Group_1127" data-name="Group 1127">
          <path id="Path_563" data-name="Path 563" d="M708.939,560.392c-28.932,0-58.222-5.761-58.222-16.772s29.29-16.771,58.222-16.771,58.22,5.761,58.22,16.771S737.871,560.392,708.939,560.392Zm0-28.927c-32.724,0-53.606,7.2-53.606,12.155s20.882,12.156,53.606,12.156,53.6-7.2,53.6-12.156S741.661,531.465,708.939,531.465Z" fill="#e6f5fe"/>
        </g>
      </g>
      <g id="Group_1133" data-name="Group 1133">
        <g id="Group_1129" data-name="Group 1129">
          <path id="Path_564" data-name="Path 564" d="M729.534,577.569a6.907,6.907,0,0,1-1.743-1.4,3.2,3.2,0,0,0-5.557,2.37,7.4,7.4,0,0,1-.166,2.416,3.98,3.98,0,0,0-.007,2.7,2.99,2.99,0,0,0,4.529.8,5.057,5.057,0,0,1,2.523-1.146,2.99,2.99,0,0,0,2.4-3.886A4.2,4.2,0,0,0,729.534,577.569Z" fill="#181726"/>
        </g>
        <g id="Group_1130" data-name="Group 1130">
          <path id="Path_565" data-name="Path 565" d="M720.5,576.2a2.429,2.429,0,1,1-3.678-.551A2.65,2.65,0,0,1,720.5,576.2Z" fill="#181726"/>
        </g>
        <g id="Group_1131" data-name="Group 1131">
          <path id="Path_566" data-name="Path 566" d="M727.119,573.261a2.43,2.43,0,1,0,2.007-3.132A2.65,2.65,0,0,0,727.119,573.261Z" fill="#181726"/>
        </g>
        <g id="Group_1132" data-name="Group 1132">
          <path id="Path_567" data-name="Path 567" d="M724.6,570.667a2.429,2.429,0,1,1-3.336-1.644A2.65,2.65,0,0,1,724.6,570.667Z" fill="#181726"/>
        </g>
      </g>
      <g id="Group_1138" data-name="Group 1138">
        <g id="Group_1134" data-name="Group 1134">
          <path id="Path_568" data-name="Path 568" d="M699.745,572.2a6.906,6.906,0,0,1-1.743-1.4,3.2,3.2,0,0,0-5.558,2.369,7.366,7.366,0,0,1-.165,2.416,3.983,3.983,0,0,0-.007,2.7,3.016,3.016,0,0,0,3.586,1.336,2.965,2.965,0,0,0,.942-.54,5.069,5.069,0,0,1,2.524-1.146,2.989,2.989,0,0,0,2.4-3.886A4.214,4.214,0,0,0,699.745,572.2Z" fill="#181726"/>
        </g>
        <g id="Group_1135" data-name="Group 1135">
          <path id="Path_569" data-name="Path 569" d="M690.711,570.831a2.43,2.43,0,1,1-3.679-.55A2.65,2.65,0,0,1,690.711,570.831Z" fill="#181726"/>
        </g>
        <g id="Group_1136" data-name="Group 1136">
          <ellipse id="Ellipse_41" data-name="Ellipse 41" cx="2.393" cy="2.848" rx="2.393" ry="2.848" transform="translate(696.963 565.064) rotate(-7.394)" fill="#181726"/>
        </g>
        <g id="Group_1137" data-name="Group 1137">
          <path id="Path_570" data-name="Path 570" d="M694.811,565.294a2.43,2.43,0,1,1-3.337-1.644A2.65,2.65,0,0,1,694.811,565.294Z" fill="#181726"/>
        </g>
      </g>
    </g>
  </g>
</svg>
