<svg xmlns="http://www.w3.org/2000/svg" width="149.432" height="148.378" viewBox="0 0 149.432 148.378">
  <g id="Group_1928" data-name="Group 1928" transform="translate(-562.235 -34.62)">
    <g id="Group_988" data-name="Group 988">
      <path id="Path_485" data-name="Path 485" d="M614.462,171.12s29-1,17,4,10,6,26,3" fill="none" stroke="#c1b1cb" stroke-miterlimit="10" stroke-width="4"/>
      <g id="Group_976" data-name="Group 976">
        <path id="Path_486" data-name="Path 486" d="M659.479,168.158c9.113-6.668,21.97-8.132,37.17,2.256a25.284,25.284,0,0,0-2.4,12.584h-32.1C655.067,183,653.1,172.828,659.479,168.158Z" fill="#8ba3db"/>
      </g>
      <g id="Group_977" data-name="Group 977">
        <path id="Path_487" data-name="Path 487" d="M696.649,170.414c4.07,2.781,8.468,6.3,11.387,8.741A11.856,11.856,0,0,0,706.507,183H694.245A19.688,19.688,0,0,1,696.649,170.414Z" fill="#d1d9dc"/>
      </g>
      <g id="Group_978" data-name="Group 978">
        <path id="Path_488" data-name="Path 488" d="M709.672,180.544c1.5,1.291,3.034,2.454,1.057,2.454h-4.222a11.856,11.856,0,0,1,1.529-3.843C708.652,179.671,709.205,180.142,709.672,180.544Z" fill="#c1b1cb"/>
      </g>
      <g id="Group_980" data-name="Group 980">
        <g id="Group_979" data-name="Group 979">
          <path id="Path_489" data-name="Path 489" d="M695.732,170.09a20.156,20.156,0,0,1-.625,4.692s-8.669-1.828-11.205-5.054a5.624,5.624,0,0,1-.519-5.608A81.687,81.687,0,0,1,695.732,170.09Z" fill="#dedede"/>
        </g>
      </g>
      <g id="Group_981" data-name="Group 981">
        <path id="Path_490" data-name="Path 490" d="M694.932,174.714s4.214-8.393-.152-13.553c-1.62-1.915-4.742-2.176-7.047-1.187-2.38,1.021-4.376,4.766-2.865,7.681C686.757,171.3,694.932,174.714,694.932,174.714Z" fill="#d1d9dc"/>
      </g>
      <g id="Group_982" data-name="Group 982">
        <path id="Path_491" data-name="Path 491" d="M695.63,173.771s3.526-7.024-.128-11.343c-1.355-1.6-3.968-1.82-5.9-.993-1.992.855-3.662,3.989-2.4,6.428C688.788,170.911,695.63,173.771,695.63,173.771Z" fill="#c1b1cb"/>
      </g>
      <g id="Group_987" data-name="Group 987">
        <g id="Group_983" data-name="Group 983">
          <path id="Path_492" data-name="Path 492" d="M697.213,178.936a2.084,2.084,0,1,0,2.084-2.084A2.084,2.084,0,0,0,697.213,178.936Z" fill="#bfbfbf"/>
          <path id="Path_493" data-name="Path 493" d="M699.3,181.161a2.224,2.224,0,1,0-2.224-2.225A2.227,2.227,0,0,0,699.3,181.161Zm0-4.169a1.944,1.944,0,1,1-1.943,1.944A1.948,1.948,0,0,1,699.3,176.992Z" fill="#afb7bc"/>
        </g>
        <g id="Group_986" data-name="Group 986">
          <g id="Group_984" data-name="Group 984">
            <path id="Path_494" data-name="Path 494" d="M698.053,178.936a1.243,1.243,0,1,0,1.244-1.243A1.244,1.244,0,0,0,698.053,178.936Z" fill="#1d1d1b"/>
          </g>
          <g id="Group_985" data-name="Group 985">
            <circle id="Ellipse_31" data-name="Ellipse 31" cx="0.44" cy="0.44" r="0.44" transform="translate(699.146 178.057)" fill="#bfbfbf"/>
          </g>
        </g>
      </g>
    </g>
    <g id="Group_1049" data-name="Group 1049">
      <g id="Group_1048" data-name="Group 1048">
        <g id="Group_990" data-name="Group 990">
          <g id="Group_989" data-name="Group 989">
            <path id="Path_495" data-name="Path 495" d="M591.5,155.7c-13,1.351-25.213,3.263-24.981,6.661.456,6.661,15.914,1.231,24.981.328" fill="#8ba1d2"/>
          </g>
        </g>
        <g id="Group_1003" data-name="Group 1003">
          <g id="Group_992" data-name="Group 992">
            <g id="Group_991" data-name="Group 991">
              <path id="Path_496" data-name="Path 496" d="M649.934,148.787c23.406-4.683,28.014-32.215,19.555-46.989-4.036-7.049-10.814-12.719-12.677-20.625-2.035-8.633,3.28-18.372,11.642-21.331a14.785,14.785,0,0,0,3.926-1.648c3.461-2.526,4.846-5.234,2.2-8.6-3.29-4.2-22.594,6.053-25.327,17.413-1.91,7.936-1.312,17.412,3.551,23.969,5.114,6.894,11.232,13.5,13.258,21.84,2.622,10.8-4.594,23.311-14.689,26.791" fill="#8ba1d2"/>
            </g>
          </g>
          <g id="Group_994" data-name="Group 994">
            <g id="Group_993" data-name="Group 993">
              <path id="Path_497" data-name="Path 497" d="M674.288,48.329c.774,0,1.47.132,1.485.3,0,0-1.572.949-1.191.96,1.15.031,3.151-1.119,3.815-1.246.435-.084.141.278-.793,1.673-3.507,5.233-.081,1.383-.621,2.878a8.711,8.711,0,0,1-3.266,4.711,14.9,14.9,0,0,1-3.926,1.649c-.372.132-.736.281-1.1.439-.582-.215-3.326-.166-2.932-.639.275-.33.933-.958.66-1.54-.337-.718-1.21-1.65-1.98-1.375,0,0,.267-1.376.521-2.56.138-.645-2.827-1.345-2.593-1.517a19.354,19.354,0,0,1,8.906-3.731C671.851,48.287,673.6,48.332,674.288,48.329Z" fill="#3b4b81"/>
            </g>
          </g>
          <g id="Group_996" data-name="Group 996">
            <g id="Group_995" data-name="Group 995">
              <path id="Path_498" data-name="Path 498" d="M650.243,86.377c-.607-.95-.459-2.053-1.014-3.032a8.973,8.973,0,0,0,3.782,1.165c.457.034.923-1.333,1.229-.966.413.5.979.937,1.409.9.332-.03.356-1.932.489-1.6a2.3,2.3,0,0,0,1.67,1.384c.275.667.589,1.317.922,1.959-1.359.207-1.864-.318-2.689.8-.19.257-2.252-1.137-2.571-1.128-.372.011-.237,1.336-.615,1.32-.4-.017-1.274-1.422-1.5-1.774C651.023,84.892,650.72,86.488,650.243,86.377Z" fill="#3b4b81"/>
            </g>
          </g>
          <g id="Group_998" data-name="Group 998">
            <g id="Group_997" data-name="Group 997">
              <path id="Path_499" data-name="Path 499" d="M665.748,111.653a29.431,29.431,0,0,0-1.529-4.025c.812.321,1.262,1.18,2.108,1.285.616.078,1.622-.551,2.243-.575.774-.03,1.573.786,2.336.617.376-.084.723-1.1,1.092-1.217a33.546,33.546,0,0,1,.923,4.038c-.668.058-1.382.8-2.057.809-.357,0-.673-.7-1.032-.708-.48-.007-.736.85-.638.378.173-.837-1.15-.736-1.542-.463C667.131,112.154,666.384,111.706,665.748,111.653Z" fill="#3b4b81"/>
            </g>
          </g>
          <g id="Group_1000" data-name="Group 1000">
            <g id="Group_999" data-name="Group 999">
              <path id="Path_500" data-name="Path 500" d="M659.2,134.614c-.039,1.12.907.593,1.435,1.567.182.335-.489,1.928-.258,2.242.189.257.826-.958,1.042-.716.172.193.151,2.159.339,2.343.231.226.484-.409.733-.2.436.367.884,1.564,1.357,1.882a26.766,26.766,0,0,1-2.2,1.872c-.33-.411-1.335-.049-1.627-.5-.132-.2.434-1.2.309-1.407-.28-.469-1.478.128-1.34-.408.66-2.558-2.379-2.612-1.691-3.3a2.939,2.939,0,0,0,.662-2.245C658.38,135.386,658.8,135.011,659.2,134.614Z" fill="#3b4b81"/>
            </g>
          </g>
          <g id="Group_1002" data-name="Group 1002">
            <g id="Group_1001" data-name="Group 1001">
              <path id="Path_501" data-name="Path 501" d="M650.729,63.286c.3.637,2.126-.656,2.126-.656.241.425-.663,3.505-.265,3.921.378.4,1.774-1.5,1.774-.786a7.1,7.1,0,0,0,3.878,3.59c-.258.543-.489,1.1-.7,1.663a2.631,2.631,0,0,0-1.861,1.141c-.16.439-.692-1.343-1.108-1.4-.532-.079-1.721-.04-1.721.7,0,1.5-2.475-1.879-3.856-2.662C648.933,66.8,649.849,65.147,650.729,63.286Z" fill="#3b4b81"/>
            </g>
          </g>
        </g>
        <g id="Group_1005" data-name="Group 1005">
          <g id="Group_1004" data-name="Group 1004">
            <path id="Path_502" data-name="Path 502" d="M616.092,46.955l9.074-11.641c.24,50.714,8.6,64.987,22.272,83.634,15.7,21.407.067,53.029-26.476,52.516-13.915-.269-17.881-.412-30.565-3.442A30.951,30.951,0,0,1,566.85,140.93c-2.343-23.637-3.095-51.777,16.025-103.175.15-.4,1.486-3.135,1.486-3.135s3.7,9.894,4.549,12.047Z" fill="#8ba1d2"/>
          </g>
        </g>
        <g id="Group_1010" data-name="Group 1010">
          <g id="Group_1009" data-name="Group 1009">
            <g id="Group_1008" data-name="Group 1008">
              <path id="Path_504" data-name="Path 504" d="M628.413,84.828c1.479.228,4.683.707,6.162.935a10.338,10.338,0,0,0-4.633-5.45,31.636,31.636,0,0,1,7.39,1,20.075,20.075,0,0,0-9.786-10.7c1.229.093,3.854.049,5.082.142-1.328-1.93-5.117-3.558-7.147-4.727" fill="#8ba1d2"/>
            </g>
          </g>
        </g>
        <g id="Group_1013" data-name="Group 1013">
          <g id="Group_1012" data-name="Group 1012">
            <g id="Group_1011" data-name="Group 1011">
              <path id="Path_505" data-name="Path 505" d="M570.687,84.785c-1.495.055-4.733.161-6.228.216a10.337,10.337,0,0,1,5.232-4.877,31.58,31.58,0,0,0-7.456.141,20.076,20.076,0,0,1,10.958-9.5c-1.231-.05-3.833-.4-5.064-.448,1.542-1.762,5.494-2.941,7.646-3.867" fill="#8ba1d2"/>
            </g>
          </g>
        </g>
        <g id="Group_1015" data-name="Group 1015">
          <g id="Group_1014" data-name="Group 1014">
            <path id="Path_506" data-name="Path 506" d="M639.867,165.62c-9,7-28.652,9.789-29.777,6.574-2.206-6.3,14.141-7.4,22.831-10.143" fill="#8ba1d2"/>
          </g>
        </g>
        <g id="Group_1021" data-name="Group 1021">
          <g id="Group_1017" data-name="Group 1017">
            <g id="Group_1016" data-name="Group 1016">
              <circle id="Ellipse_32" data-name="Ellipse 32" cx="5.381" cy="5.381" r="5.381" transform="matrix(0.385, -0.923, 0.923, 0.385, 580.585, 62.582)" fill="#fff"/>
            </g>
          </g>
          <g id="Group_1020" data-name="Group 1020">
            <g id="Group_1019" data-name="Group 1019">
              <g id="Group_1018" data-name="Group 1018">
                <circle id="Ellipse_33" data-name="Ellipse 33" cx="0.615" cy="0.615" r="0.615" transform="translate(586.967 59.143)" fill="#231f20"/>
              </g>
            </g>
          </g>
        </g>
        <g id="Group_1027" data-name="Group 1027">
          <g id="Group_1023" data-name="Group 1023">
            <g id="Group_1022" data-name="Group 1022">
              <circle id="Ellipse_34" data-name="Ellipse 34" cx="5.381" cy="5.381" r="5.381" transform="matrix(0.385, -0.923, 0.923, 0.385, 600.037, 62.86)" fill="#fff"/>
            </g>
          </g>
          <g id="Group_1026" data-name="Group 1026">
            <g id="Group_1025" data-name="Group 1025">
              <g id="Group_1024" data-name="Group 1024">
                <circle id="Ellipse_35" data-name="Ellipse 35" cx="0.585" cy="0.585" r="0.585" transform="translate(606.449 59.45)" fill="#231f20"/>
              </g>
            </g>
          </g>
        </g>
        <g id="Group_1029" data-name="Group 1029">
          <g id="Group_1028" data-name="Group 1028">
            <path id="Path_507" data-name="Path 507" d="M600.108,68.823h-4.862a.856.856,0,0,0-.636,1.428l2.431,2.705a.856.856,0,0,0,1.273,0l2.431-2.705A.856.856,0,0,0,600.108,68.823Z" fill="#3b4b81"/>
          </g>
        </g>
        <g id="Group_1030" data-name="Group 1030">
          <path id="Path_508" data-name="Path 508" d="M610.734,72.851c7.747,0,11.674-4.71,11.674-14,0-6.568-6.239-7.411-11.674-7.411-5.114,0-12.118,0-12.118,6.632C598.616,64.023,603.705,72.851,610.734,72.851Zm0-19.578c6.99,0,9.842,1.616,9.842,5.578,0,5.224-1.02,12.168-9.842,12.168-5.678,0-10.285-7.834-10.285-12.947C600.449,53.991,603.765,53.273,610.734,53.273Z" fill="#444445"/>
        </g>
        <g id="Group_1031" data-name="Group 1031">
          <path id="Path_509" data-name="Path 509" d="M583.962,72.851c7.029,0,12.117-8.828,12.117-14.779,0-6.632-7-6.632-12.117-6.632-5.435,0-11.674.843-11.674,7.411C572.288,68.141,576.215,72.851,583.962,72.851Zm0-19.578c6.969,0,10.285.718,10.285,4.8,0,5.113-4.608,12.947-10.285,12.947-8.822,0-9.842-6.944-9.842-12.168C574.12,54.889,576.971,53.273,583.962,53.273Z" fill="#444445"/>
        </g>
        <g id="Group_1032" data-name="Group 1032">
          <rect id="Rectangle_218" data-name="Rectangle 218" width="5.122" height="1.832" transform="translate(594.787 57.518)" fill="#444445"/>
        </g>
        <g id="Group_1034" data-name="Group 1034">
          <g id="Group_1033" data-name="Group 1033">
            <path id="Path_510" data-name="Path 510" d="M597.638,75.274a5.215,5.215,0,0,0-1.66,2.362,4.872,4.872,0,0,0-.076,1.53,1.71,1.71,0,0,0,.457,1.287c1.508,1.167,2.217.467,2.508.167a3.93,3.93,0,0,0,.418-2.128,2.383,2.383,0,0,0-.3-.993q-.246-.507-.513-1a2.089,2.089,0,0,1-.356-.8c-.034-.588.042-1.222.042-1.817V69.25H597.2v6.873h.953v-.45" fill="#3b4b81"/>
          </g>
        </g>
        <g id="Group_1035" data-name="Group 1035">
          <path id="Path_511" data-name="Path 511" d="M634.858,98.708a29.626,29.626,0,0,1-5.011,0c-1.32-.272.99.718.99.718h-5.356l1.176.88-5.225.277a32.336,32.336,0,0,0,6.49.878c2.181-.074-.012,1.045-.012,1.045s3.261-.443,4.247-1.1c.495-.33.11,1.1.11,1.1l4.235-.412Z" fill="#3b4b81"/>
        </g>
        <g id="Group_1036" data-name="Group 1036">
          <path id="Path_512" data-name="Path 512" d="M597.52,46.882a12.041,12.041,0,0,1-2.357.815c-.571.063,2.185.5,2.185.5l-1.107.948,2.284.369-1.177,2.024s3.018.1,4.379-2.1c.442-.714,2.434.19,2.434.19s-.609-1.576-1.32-1.84c-.357-.133,2.021-.041,2.021-.041l-.988-.789Z" fill="#3b4b81"/>
        </g>
        <g id="Group_1037" data-name="Group 1037">
          <path id="Path_513" data-name="Path 513" d="M641.808,110.878a25.219,25.219,0,0,1-4.279,0c-1.128-.232.845.613.845.613H633.8l1,.752-4.462.237a27.565,27.565,0,0,0,5.543.749c1.862-.063-.011.893-.011.893a13.644,13.644,0,0,0,3.627-.94c.423-.282.094.94.094.94l4.017-.391Z" fill="#3b4b81"/>
        </g>
        <g id="Group_1038" data-name="Group 1038">
          <path id="Path_514" data-name="Path 514" d="M637.564,104.2a39.13,39.13,0,0,1-6.616,0c-1.743-.36,1.307.947,1.307.947h-7.071l1.552,1.162-6.9.367a42.675,42.675,0,0,0,8.569,1.158c2.879-.1-.016,1.38-.016,1.38s4.306-.584,5.608-1.452c.653-.436.145,1.452.145,1.452l6.1-.592Z" fill="#3b4b81"/>
        </g>
        <g id="Group_1925" data-name="Group 1925">
          <g id="Group_1007" data-name="Group 1007">
            <g id="Group_1006" data-name="Group 1006">
              <path id="Path_503" data-name="Path 503" d="M576.932,115.236a17.414,17.414,0,0,1,17.414-17.413c9.617,0,16.8,7.019,17.413,17.413,0,0,3.58,33.547,9.2,57.154-14.315.326-30.514-.234-39.2-7.76C574.793,135.729,576.932,115.236,576.932,115.236Z" fill="#bac5e3"/>
            </g>
          </g>
          <g id="Group_1039" data-name="Group 1039">
            <path id="Path_515" data-name="Path 515" d="M600.954,100.583s-4.548-2.257-4.328-4.677-2.28,1.917-2.28,1.917a5.28,5.28,0,0,1-.452-4.117c.642-2.531-2.674,1.822-2.447,3.621s-3.291-.981-3.4-2.631-1.87,4.955-.44,5.887,5.39,2.144,5.72,1.868S600.954,100.583,600.954,100.583Z" fill="#bac5e3"/>
          </g>
          <g id="Group_1040" data-name="Group 1040">
            <path id="Path_516" data-name="Path 516" d="M578.208,137.188s-1.309-2.59-2.692-2.455,1.087-1.311,1.087-1.311a3.021,3.021,0,0,0-2.356-.242c-1.444.378,1.031-1.536,2.061-1.413s-.575-1.878-1.518-1.934,2.825-1.089,3.364-.276a8.378,8.378,0,0,1,1.091,3.263C579.089,133.01,578.208,137.188,578.208,137.188Z" fill="#bac5e3"/>
          </g>
          <g id="Group_1041" data-name="Group 1041">
            <path id="Path_517" data-name="Path 517" d="M606.746,102.891s2.97,1.54,4.015.385.472,1.564-1.056,2.625,1.661,1.885,2.156,1.39-.831,1.375-1.461,1.54S606.746,102.891,606.746,102.891Z" fill="#bac5e3"/>
          </g>
          <g id="Group_1042" data-name="Group 1042">
            <path id="Path_518" data-name="Path 518" d="M577.456,110.857s-.24-3.337-1.771-3.624a2.154,2.154,0,0,1,2.652-.526c1.7.748.877-2.347.2-2.51s1.607-.01,2.077.44S577.456,110.857,577.456,110.857Z" fill="#bac5e3"/>
          </g>
          <g id="Group_1043" data-name="Group 1043">
            <path id="Path_519" data-name="Path 519" d="M577.623,119.281a1.155,1.155,0,0,1-1.183.8c-.907-.083-1.155-.4-1.155-.4a2.919,2.919,0,0,0,.715,1.193c.523.5.33.372.33.372a2.99,2.99,0,0,0-.742.756c-.373.522.1,1.21.1,1.21a1.541,1.541,0,0,1,1.144-.743,1.2,1.2,0,0,0,.959-.99" fill="#bac5e3"/>
          </g>
          <g id="Group_1044" data-name="Group 1044">
            <path id="Path_520" data-name="Path 520" d="M613.188,133.8s1.568,2.443,2.93,2.166-.947,1.416-.947,1.416a3.019,3.019,0,0,0,2.368,0c1.4-.523-.868,1.634-1.905,1.618s.765,1.809,1.709,1.768-2.7,1.373-3.318.619a8.386,8.386,0,0,1-1.42-3.133C612.741,138.049,613.188,133.8,613.188,133.8Z" fill="#bac5e3"/>
          </g>
          <g id="Group_1045" data-name="Group 1045">
            <path id="Path_521" data-name="Path 521" d="M615.608,151.554a1.153,1.153,0,0,1,1.094-.914c.912-.011,1.19.275,1.19.275a2.91,2.91,0,0,0-.834-1.114c-.57-.438-.366-.335-.366-.335a3.021,3.021,0,0,0,.661-.829c.317-.558-.221-1.193-.221-1.193a1.541,1.541,0,0,1-1.061.856,1.2,1.2,0,0,0-.853,1.083" fill="#bac5e3"/>
          </g>
        </g>
        <g id="Group_1046" data-name="Group 1046">
          <path id="Path_522" data-name="Path 522" d="M625.192,40.93l2.03-1.354-2.03,3.481h1.547l-1.547,1.45,1.015,1.644h-1.015" fill="#8ba1d2"/>
        </g>
        <g id="Group_1047" data-name="Group 1047">
          <path id="Path_523" data-name="Path 523" d="M582.294,40.494,580.22,37.96l.924,3.922-1.479-.453,1.055,1.839-1.452,1.275,1.663.616" fill="#8ba1d2"/>
        </g>
      </g>
    </g>
  </g>
</svg>
