<svg xmlns="http://www.w3.org/2000/svg" xmlns:xlink="http://www.w3.org/1999/xlink" width="164.508" height="164.508" viewBox="0 0 164.508 164.508">
  <defs>
    <clipPath id="clip-path">
      <circle id="Ellipse_47" data-name="Ellipse 47" cx="82.254" cy="82.254" r="82.254" fill="none"/>
    </clipPath>
  </defs>
  <g id="Group_1233" data-name="Group 1233" transform="translate(-218.214 -82.873)">
    <g id="Group_1232" data-name="Group 1232" transform="translate(218.214 82.873)" clip-path="url(#clip-path)">
      <g id="Group_1231" data-name="Group 1231" transform="translate(-36.058 23.58)">
        <g id="Group_1223" data-name="Group 1223" transform="translate(0 18.076)">
          <g id="Group_1147" data-name="Group 1147" transform="translate(0 106.762)">
            <g id="Group_1142" data-name="Group 1142">
              <g id="Group_1141" data-name="Group 1141">
                <path id="Path_571" data-name="Path 571" d="M204.051,181.789c-4.176,17.188,7.315,37.114,23.387,42.654" transform="translate(-192.339 -164.254)" fill="#89a0d2"/>
                <path id="Path_572" data-name="Path 572" d="M234.114,246.151c-37.265-7.456-44.6-51.291-31.133-74.814" transform="translate(-196.721 -171.337)" fill="#89a0d2"/>
              </g>
            </g>
            <g id="Group_1144" data-name="Group 1144" transform="translate(0.795 9.283)">
              <g id="Group_1143" data-name="Group 1143">
                <path id="Path_573" data-name="Path 573" d="M208.615,183.277a46.716,46.716,0,0,1,2.434-6.407c-1.294.512-2.01,1.877-3.355,2.047-.981.122-2.584-.877-3.572-.916-1.233-.049-2.5,1.25-3.72.981-.6-.133-1.151-1.757-1.74-1.936a52.987,52.987,0,0,0-1.468,6.429c1.064.092,2.2,1.27,3.273,1.287.57.008,1.074-1.119,1.644-1.127.763-.012,1.173,1.354,1.017.6-.275-1.334,1.83-1.173,2.455-.738C206.412,184.076,207.6,183.363,208.615,183.277Z" transform="translate(-197.195 -176.87)" fill="#4d5e9a"/>
              </g>
            </g>
            <g id="Group_1146" data-name="Group 1146" transform="translate(15.241 52.249)">
              <g id="Group_1145" data-name="Group 1145">
                <path id="Path_574" data-name="Path 574" d="M213.206,202.48c.062,1.783-1.445.945-2.285,2.495-.289.534.78,3.069.411,3.57-.3.408-1.315-1.525-1.659-1.141-.273.307-.242,3.439-.539,3.731-.369.359-.772-.651-1.169-.315-.693.584-1.408,2.49-2.159,3a42.686,42.686,0,0,0,3.51,2.98c.527-.654,2.126-.077,2.59-.789.211-.32-.69-1.908-.492-2.238.446-.748,2.354.2,2.134-.651-1.05-4.072,3.788-4.159,2.693-5.255a4.683,4.683,0,0,1-1.055-3.574C214.51,203.71,213.844,203.112,213.206,202.48Z" transform="translate(-205.806 -202.48)" fill="#4d5e9a"/>
              </g>
            </g>
          </g>
          <g id="Group_1149" data-name="Group 1149" transform="translate(31.385)">
            <g id="Group_1148" data-name="Group 1148">
              <path id="Path_575" data-name="Path 575" d="M275.319,127.341l-14.447-18.534c-.383,80.745-13.688,103.47-35.462,133.159-25,34.085-.106,84.431,42.154,83.616,22.156-.43,28.471-.658,48.666-5.483a49.276,49.276,0,0,0,37.49-43.134c3.731-37.633,4.929-82.438-25.515-164.272-.238-.641-2.364-4.991-2.364-4.991s-5.884,15.752-7.244,19.18Z" transform="translate(-215.429 -107.702)" fill="#89a0d2"/>
            </g>
          </g>
          <g id="Group_1154" data-name="Group 1154" transform="translate(57.458 49.816)">
            <g id="Group_1153" data-name="Group 1153">
              <g id="Group_1152" data-name="Group 1152">
                <path id="Path_577" data-name="Path 577" d="M245.169,167.32c-2.354.362-7.456,1.127-9.81,1.49a16.454,16.454,0,0,1,7.375-8.677,50.4,50.4,0,0,0-11.766,1.6,31.964,31.964,0,0,1,15.581-17.036c-1.956.148-6.135.077-8.092.225,2.114-3.072,8.147-5.662,11.378-7.525" transform="translate(-230.969 -137.395)" fill="#89a0d2"/>
              </g>
            </g>
          </g>
          <g id="Group_1157" data-name="Group 1157" transform="translate(59.812 58.322)">
            <g id="Group_1156" data-name="Group 1156">
              <g id="Group_1155" data-name="Group 1155">
                <path id="Path_578" data-name="Path 578" d="M242.319,156.051c-1.154.178-6.637,2.543-7.793,2.721a8.082,8.082,0,0,1,3.62-4.258,24.78,24.78,0,0,0-5.775.784,15.688,15.688,0,0,1,7.645-8.358c-.96.072-3.01.037-3.969.111,1.037-1.508,6.755-3.671,8.34-4.585" transform="translate(-232.372 -142.465)" fill="#89a0d2"/>
              </g>
            </g>
          </g>
          <g id="Group_1160" data-name="Group 1160" transform="translate(67.43 50.006)">
            <g id="Group_1159" data-name="Group 1159">
              <g id="Group_1158" data-name="Group 1158">
                <path id="Path_579" data-name="Path 579" d="M242.522,144.618c-.559.086-4.008,1.31-4.567,1.4a3.9,3.9,0,0,1,1.75-2.057,11.89,11.89,0,0,0-2.792.377,7.586,7.586,0,0,1,3.7-4.04c-.465.035-1.455.018-1.919.054.5-.728,4.832-2.4,5.6-2.84" transform="translate(-236.913 -137.508)" fill="#89a0d2"/>
              </g>
            </g>
          </g>
          <g id="Group_1163" data-name="Group 1163" transform="translate(64.311 66.109)">
            <g id="Group_1162" data-name="Group 1162">
              <g id="Group_1161" data-name="Group 1161">
                <path id="Path_580" data-name="Path 580" d="M243.654,160.68c-1.156.178-5.292,2.555-6.446,2.733a8.072,8.072,0,0,1,3.619-4.258,24.753,24.753,0,0,0-5.773.784,15.688,15.688,0,0,1,7.645-8.358c-.96.072-3.012.039-3.971.111,1.039-1.508,6.754-3.671,8.34-4.585" transform="translate(-235.054 -147.106)" fill="#89a0d2"/>
              </g>
            </g>
          </g>
          <g id="Group_1166" data-name="Group 1166" transform="translate(155.468 50.489)">
            <g id="Group_1165" data-name="Group 1165">
              <g id="Group_1164" data-name="Group 1164">
                <path id="Path_581" data-name="Path 581" d="M297.488,166.982c2.379.087,7.536.255,9.915.342a16.459,16.459,0,0,0-8.33-7.764,50.366,50.366,0,0,1,11.872.225A31.964,31.964,0,0,0,293.5,144.666c1.96-.081,6.1-.633,8.063-.713-2.456-2.807-8.748-4.683-12.174-6.157" transform="translate(-289.388 -137.796)" fill="#89a0d2"/>
              </g>
            </g>
          </g>
          <g id="Group_1169" data-name="Group 1169" transform="translate(160.921 58.418)">
            <g id="Group_1168" data-name="Group 1168">
              <g id="Group_1167" data-name="Group 1167">
                <path id="Path_582" data-name="Path 582" d="M296.871,156.356c1.168.044,6.281,1.179,7.449,1.221a8.074,8.074,0,0,0-4.089-3.81,24.711,24.711,0,0,1,5.827.111,15.7,15.7,0,0,0-8.561-7.419c.961-.039,2.995-.31,3.956-.349-1.2-1.377-7.134-2.866-8.815-3.589" transform="translate(-292.638 -142.522)" fill="#89a0d2"/>
              </g>
            </g>
          </g>
          <g id="Group_1172" data-name="Group 1172" transform="translate(157 50.501)">
            <g id="Group_1171" data-name="Group 1171">
              <g id="Group_1170" data-name="Group 1170">
                <path id="Path_583" data-name="Path 583" d="M292.88,144.662c.564.02,4.132.837,4.7.859a3.9,3.9,0,0,0-1.975-1.842,11.974,11.974,0,0,1,2.815.054,7.579,7.579,0,0,0-4.137-3.585c.465-.02,1.446-.151,1.913-.169-.584-.666-5.077-1.824-5.89-2.174" transform="translate(-290.301 -137.803)" fill="#89a0d2"/>
              </g>
            </g>
          </g>
          <g id="Group_1175" data-name="Group 1175" transform="translate(157.354 66.672)">
            <g id="Group_1174" data-name="Group 1174">
              <g id="Group_1173" data-name="Group 1173">
                <path id="Path_584" data-name="Path 584" d="M295.475,160.53c1.168.042,5.55,1.926,6.718,1.97a8.067,8.067,0,0,0-4.087-3.812,24.785,24.785,0,0,1,5.825.111,15.687,15.687,0,0,0-8.561-7.419c.963-.039,2.995-.31,3.958-.349-1.206-1.377-7.134-2.864-8.815-3.589" transform="translate(-290.512 -147.442)" fill="#89a0d2"/>
              </g>
            </g>
          </g>
          <g id="Group_1177" data-name="Group 1177" transform="translate(147.184 175.825)">
            <g id="Group_1176" data-name="Group 1176">
              <path id="Path_585" data-name="Path 585" d="M300.261,212.5c-2.149,20.7-5.194,40.144-10.6,39.774-10.6-.725-1.96-25.337-.522-39.774" transform="translate(-284.45 -212.502)" fill="#89a0d2"/>
            </g>
          </g>
          <g id="Group_1179" data-name="Group 1179" transform="translate(73.587 188.825)">
            <g id="Group_1178" data-name="Group 1178">
              <path id="Path_586" data-name="Path 586" d="M256.394,220.251c-2.151,20.7-5.2,40.144-10.607,39.774-10.6-.725-1.958-25.337-.52-39.774" transform="translate(-240.583 -220.251)" fill="#89a0d2"/>
            </g>
          </g>
          <g id="Group_1187" data-name="Group 1187" transform="translate(130.065 35.596)">
            <g id="Group_1181" data-name="Group 1181" transform="translate(0 0)">
              <g id="Group_1180" data-name="Group 1180">
                <circle id="Ellipse_42" data-name="Ellipse 42" cx="5.544" cy="5.544" r="5.544" transform="translate(0 10.769) rotate(-76.244)" fill="#bfbfbf"/>
              </g>
            </g>
            <g id="Group_1186" data-name="Group 1186" transform="translate(4.018 4.315)">
              <g id="Group_1183" data-name="Group 1183">
                <g id="Group_1182" data-name="Group 1182">
                  <path id="Path_587" data-name="Path 587" d="M281.417,133.878a2.388,2.388,0,1,1-2.387-2.387A2.388,2.388,0,0,1,281.417,133.878Z" transform="translate(-276.641 -131.491)" fill="#0477bd"/>
                </g>
              </g>
              <g id="Group_1185" data-name="Group 1185" transform="translate(1.097 0.866)">
                <g id="Group_1184" data-name="Group 1184">
                  <circle id="Ellipse_43" data-name="Ellipse 43" cx="0.761" cy="0.761" r="0.761" fill="#bfbfbf"/>
                </g>
              </g>
            </g>
          </g>
          <g id="Group_1195" data-name="Group 1195" transform="translate(98.452 35.048)">
            <g id="Group_1189" data-name="Group 1189" transform="translate(0 0)">
              <g id="Group_1188" data-name="Group 1188">
                <circle id="Ellipse_44" data-name="Ellipse 44" cx="5.544" cy="5.544" r="5.544" transform="translate(0 4.271) rotate(-22.657)" fill="#bfbfbf"/>
              </g>
            </g>
            <g id="Group_1194" data-name="Group 1194" transform="translate(4.566 4.863)">
              <g id="Group_1191" data-name="Group 1191">
                <g id="Group_1190" data-name="Group 1190">
                  <circle id="Ellipse_45" data-name="Ellipse 45" cx="2.389" cy="2.389" r="2.389" fill="#0477bd"/>
                </g>
              </g>
              <g id="Group_1193" data-name="Group 1193" transform="translate(1.097 0.866)">
                <g id="Group_1192" data-name="Group 1192">
                  <circle id="Ellipse_46" data-name="Ellipse 46" cx="0.761" cy="0.761" r="0.761" fill="#bfbfbf"/>
                </g>
              </g>
            </g>
          </g>
          <g id="Group_1197" data-name="Group 1197" transform="translate(115.36 54.259)">
            <g id="Group_1196" data-name="Group 1196">
              <path id="Path_588" data-name="Path 588" d="M266.847,140.043h7.741a1.363,1.363,0,0,1,1.013,2.273l-3.871,4.307a1.362,1.362,0,0,1-2.027,0l-3.87-4.307A1.363,1.363,0,0,1,266.847,140.043Z" transform="translate(-265.481 -140.043)" fill="#4d5e9a"/>
            </g>
          </g>
          <g id="Group_1198" data-name="Group 1198" transform="translate(80.971 26.337)">
            <path id="Path_589" data-name="Path 589" d="M280.965,133.517c0,8.608-7.558,22.072-17.834,22.072-15.37,0-17.129-12.224-17.129-20.832s7.669-10.34,17.129-10.34S280.965,124.909,280.965,133.517Z" transform="translate(-244.295 -122.711)" fill="#161616"/>
            <path id="Path_590" data-name="Path 590" d="M263.82,157.984c-12.5,0-18.836-7.583-18.836-22.538,0-10.677,10.068-12.046,18.836-12.046,8.248,0,19.54,0,19.54,10.806C283.36,143.781,275.154,157.984,263.82,157.984Zm-.03-32.4c-11.92,0-16.782,2.721-16.782,9.4,0,14.391,5.176,20.809,16.782,20.809,9.685,0,17.546-13.408,17.546-22.158C281.335,126.792,275.678,125.589,263.79,125.589Z" transform="translate(-244.984 -123.4)" fill="#444445"/>
          </g>
          <g id="Group_1199" data-name="Group 1199" transform="translate(122.892 26.337)">
            <path id="Path_591" data-name="Path 591" d="M270.988,133.517c0,8.608,7.558,22.072,17.834,22.072,15.37,0,17.129-12.224,17.129-20.832s-7.67-10.34-17.129-10.34S270.988,124.909,270.988,133.517Z" transform="translate(-269.282 -122.711)" fill="#161616"/>
            <path id="Path_592" data-name="Path 592" d="M289.511,157.984c-11.335,0-19.54-14.2-19.54-23.778,0-10.806,11.293-10.806,19.54-10.806,8.769,0,18.834,1.369,18.834,12.046C308.345,150.4,302.007,157.984,289.511,157.984Zm.037-32.685c-12.117,0-17.883,1.226-17.883,8.2,0,8.919,8.011,22.584,17.883,22.584,11.828,0,17.1-6.54,17.1-21.208C306.651,128.074,301.7,125.3,289.548,125.3Z" transform="translate(-269.971 -123.4)" fill="#444445"/>
          </g>
          <g id="Group_1200" data-name="Group 1200" transform="translate(117.042 32.983)">
            <rect id="Rectangle_221" data-name="Rectangle 221" width="8.156" height="9.471" fill="#444445"/>
          </g>
          <g id="Group_1211" data-name="Group 1211" transform="translate(108.124 54.883)">
            <g id="Group_1202" data-name="Group 1202" transform="translate(11.713)">
              <g id="Group_1201" data-name="Group 1201">
                <rect id="Rectangle_222" data-name="Rectangle 222" width="1.516" height="13.992" fill="#4d5e9a"/>
              </g>
            </g>
            <g id="Group_1204" data-name="Group 1204" transform="translate(7.256 17.358)">
              <g id="Group_1203" data-name="Group 1203">
                <path id="Path_593" data-name="Path 593" d="M265.493,151.544l.532,1.282a.526.526,0,0,0,.987-.042l.643-2.023Z" transform="translate(-265.493 -150.761)" fill="#bfbfbf"/>
              </g>
            </g>
            <g id="Group_1206" data-name="Group 1206" transform="translate(15.299 17.175)">
              <g id="Group_1205" data-name="Group 1205">
                <path id="Path_594" data-name="Path 594" d="M272.612,151.5l-.572,1.379a.566.566,0,0,1-1.062-.045l-.691-2.178Z" transform="translate(-270.287 -150.652)" fill="#bfbfbf"/>
              </g>
            </g>
            <g id="Group_1208" data-name="Group 1208" transform="translate(0 13.255)">
              <g id="Group_1207" data-name="Group 1207">
                <path id="Path_595" data-name="Path 595" d="M267.64,153.155a7.139,7.139,0,0,1-6.382-3.211.738.738,0,0,1,1.292-.713,5.62,5.62,0,0,0,5.154,2.449,6.059,6.059,0,0,0,5.278-2.961.738.738,0,1,1,1.315.668,7.492,7.492,0,0,1-6.583,3.768Z" transform="translate(-261.168 -148.315)" fill="#4d5e9a"/>
              </g>
            </g>
            <g id="Group_1210" data-name="Group 1210" transform="translate(11.892 13.053)">
              <g id="Group_1209" data-name="Group 1209">
                <path id="Path_596" data-name="Path 596" d="M274.728,153.032a7.134,7.134,0,0,1-6.382-3.213.737.737,0,0,1,1.292-.711c.062.111,1.413,2.441,5.154,2.449a6.021,6.021,0,0,0,5.28-2.963.736.736,0,0,1,1.312.669,7.488,7.488,0,0,1-6.582,3.768Z" transform="translate(-268.256 -148.195)" fill="#4d5e9a"/>
              </g>
            </g>
          </g>
          <g id="Group_1212" data-name="Group 1212" transform="translate(58.78 101.767)">
            <path id="Path_597" data-name="Path 597" d="M234.374,168.436s5.877.433,7.978,0-1.575,1.143-1.575,1.143H249.3l-1.871,1.4,8.32.441s-6.437,1.528-10.335,1.4c-3.471-.117.02,1.664.02,1.664s-5.193-.7-6.763-1.752c-.789-.525-.174,1.752-.174,1.752l-6.743-.656Z" transform="translate(-231.757 -168.36)" fill="#4d5e9a"/>
          </g>
          <g id="Group_1213" data-name="Group 1213" transform="translate(109.155 19.326)">
            <path id="Path_598" data-name="Path 598" d="M273.473,119.221a19.106,19.106,0,0,0,3.753,1.3c.909.1-3.48.789-3.48.789l1.763,1.51-3.637.587,1.874,3.223s-4.8.158-6.973-3.35c-.7-1.137-3.874.3-3.874.3s.97-2.51,2.1-2.929c.569-.211-3.218-.067-3.218-.067l1.574-1.255Z" transform="translate(-261.783 -119.221)" fill="#4d5e9a"/>
          </g>
          <g id="Group_1214" data-name="Group 1214" transform="translate(47.46 121.154)">
            <path id="Path_599" data-name="Path 599" d="M227.881,179.98a40.183,40.183,0,0,0,6.813,0c1.8-.369-1.346.976-1.346.976h7.283l-1.6,1.2,7.105.377a43.95,43.95,0,0,1-8.825,1.193c-2.966-.1.015,1.421.015,1.421s-4.434-.6-5.775-1.495c-.673-.45-.149,1.495-.149,1.495l-6.394-.621Z" transform="translate(-225.01 -179.916)" fill="#4d5e9a"/>
          </g>
          <g id="Group_1215" data-name="Group 1215" transform="translate(52.829 110.48)">
            <path id="Path_600" data-name="Path 600" d="M232.47,173.653s7.759.572,10.534,0-2.082,1.508-2.082,1.508h11.259l-2.471,1.851,10.984.582s-8.5,2.018-13.643,1.845c-4.585-.154.025,2.2.025,2.2s-6.855-.929-8.929-2.312c-1.04-.693-.23,2.312-.23,2.312l-9.707-.943Z" transform="translate(-228.21 -173.553)" fill="#4d5e9a"/>
          </g>
          <g id="Group_1216" data-name="Group 1216" transform="translate(74.017 4.816)">
            <path id="Path_601" data-name="Path 601" d="M243.6,112.412l-2.759-1.839L243.6,115.3h-2.1l2.1,1.97-1.379,2.233H243.6" transform="translate(-240.839 -110.573)" fill="#89a0d2"/>
          </g>
          <g id="Group_1217" data-name="Group 1217" transform="translate(144.278 2.957)">
            <path id="Path_602" data-name="Path 602" d="M282.718,112.184l1.9-2.72-.84,5.41,1.956-.768-1.237,2.6,2.1,1.575-1.938.5" transform="translate(-282.718 -109.465)" fill="#89a0d2"/>
          </g>
          <g id="Group_1219" data-name="Group 1219" transform="translate(149.907 150.464)">
            <path id="Path_604" data-name="Path 604" d="M287.761,210.031s2.084-4.126,4.285-3.909-1.73-2.087-1.73-2.087a4.8,4.8,0,0,1,3.75-.386c2.3.6-1.641-2.444-3.282-2.25s.916-2.99,2.419-3.079-4.5-1.735-5.357-.44-1.986,4.892-1.738,5.194S287.761,210.031,287.761,210.031Z" transform="translate(-286.073 -197.386)" fill="#c0afc9"/>
          </g>
          <g id="Group_1926" data-name="Group 1926">
            <g id="Group_1151" data-name="Group 1151" transform="translate(83.521 100.433)">
              <g id="Group_1150" data-name="Group 1150">
                <path id="Path_576" data-name="Path 576" d="M316.607,195.289a27.725,27.725,0,0,0-27.726-27.724c-15.311,0-26.75,11.175-27.724,27.724,0,0-5.7,53.412-14.653,91,22.792.518,48.583-.372,62.409-12.356C320.013,227.918,316.607,195.289,316.607,195.289Z" transform="translate(-246.504 -167.565)" fill="#bac5e3"/>
              </g>
            </g>
            <g id="Group_1218" data-name="Group 1218" transform="translate(115.379 92.649)">
              <path id="Path_603" data-name="Path 603" d="M265.493,175.1s7.239-3.594,6.89-7.447,3.629,3.053,3.629,3.053a8.4,8.4,0,0,0,.72-6.557c-1.022-4.028,4.258,2.9,3.9,5.768s5.24-1.564,5.414-4.191,2.978,7.889.7,9.373-8.581,3.412-9.108,2.975S265.493,175.1,265.493,175.1Z" transform="translate(-265.493 -162.925)" fill="#bac5e3"/>
            </g>
            <g id="Group_1220" data-name="Group 1220" transform="translate(97.839 108.501)">
              <path id="Path_605" data-name="Path 605" d="M263.354,172.374s-4.728,2.453-6.392.614-.752,2.49,1.683,4.179-2.646,3-3.434,2.213,1.324,2.189,2.325,2.451S263.354,172.374,263.354,172.374Z" transform="translate(-255.038 -172.374)" fill="#bac5e3"/>
            </g>
            <g id="Group_1221" data-name="Group 1221" transform="translate(147.703 110.48)">
              <path id="Path_606" data-name="Path 606" d="M289.847,184.26s.383-5.313,2.82-5.771a3.43,3.43,0,0,0-4.223-.837c-2.711,1.191-1.4-3.738-.312-4s-2.559-.015-3.307.7S289.847,184.26,289.847,184.26Z" transform="translate(-284.759 -173.553)" fill="#bac5e3"/>
            </g>
          </g>
          <g id="Group_1222" data-name="Group 1222" transform="translate(152.262 134.598)">
            <path id="Path_607" data-name="Path 607" d="M287.74,187.929a1.838,1.838,0,0,0,1.882,1.27c1.445-.131,1.839-.631,1.839-.631a4.65,4.65,0,0,1-1.137,1.9c-.832.787-.527.591-.527.591a4.777,4.777,0,0,1,1.183,1.2c.594.832-.154,1.926-.154,1.926A2.459,2.459,0,0,0,289,193.007a1.911,1.911,0,0,1-1.527-1.575" transform="translate(-287.477 -187.929)" fill="#c0afc9"/>
          </g>
        </g>
        <g id="Group_1229" data-name="Group 1229" transform="translate(57.729)">
          <g id="Group_1224" data-name="Group 1224" transform="translate(44.695 3.047)">
            <path id="Path_608" data-name="Path 608" d="M297.473,104.636c.265.508,1.455,2.636,1.309,3.191-.1.372-.631.557-.936.794a11.649,11.649,0,0,1-5.906,1.862,58.4,58.4,0,0,1-16.467-.21,34.694,34.694,0,0,1-15.115-6.28,2.633,2.633,0,0,1-.852-.911,5.716,5.716,0,0,1-.257-1,2.671,2.671,0,0,0-1.478-1.74,2.757,2.757,0,0,1,1.013-.525,19.191,19.191,0,0,1,2.691-.8,17.479,17.479,0,0,1,2.854-.245,97.361,97.361,0,0,1,27.142,3.147,25.669,25.669,0,0,1,4.042,1.253C296.823,103.77,296.838,103.413,297.473,104.636Z" transform="translate(-257.771 -98.744)"/>
          </g>
          <g id="Group_1225" data-name="Group 1225" transform="translate(10.949 31.32)">
            <path id="Path_609" data-name="Path 609" d="M239.571,116.651c-.624-.112-1.334-.324-1.84.055-.342.257.614,1.285.542,1.706a10.929,10.929,0,0,0,2.773,8.654,28,28,0,0,0,7.4,5.7,46.249,46.249,0,0,0,9.075,4.359c2.351.763,3.886,1.557,6.189,2.454,2.038.794,4.844,1.579,6.835,2.483a53.059,53.059,0,0,0,11.722,3.355c14.079,2.79,28.52,4.622,42.778,2.986,3.188-.366,6.451-.938,9.17-2.642s3.51-4.993,3.157-8.182c-.3-2.758-.718-4.181-3.277-6.427-1.988-1.748-2.616-2.285-4.211-2.944-2.923-1.206-6.184-1.184-9.345-1.169-17.489.087-35.277-.648-51.845-6.249-4.924-1.664-9.759-3.74-14.9-4.669a19.261,19.261,0,0,0-7.342-.268C244.457,116.3,241.732,117.047,239.571,116.651Z" transform="translate(-237.657 -115.596)" fill="#bfbfbf"/>
          </g>
          <g id="Group_1226" data-name="Group 1226" transform="translate(15.525 0.181)">
            <path id="Path_610" data-name="Path 610" d="M310.41,108.592c-3.511.57-6.676,1.584-9.811,1.5a65.472,65.472,0,0,1-31.393-9.152c-5.072-2.933-10.294-4.792-16.222-3.481a13.191,13.191,0,0,0-10.051,8.474c-3.05,7.734-3.132,15.148-1.456,23.166.841,4.027,13.125,10.154,18.762,12.548,19.029,8.078,38.993,8.946,59.239,6.7A35.78,35.78,0,0,0,327,146.576c3.518-1.2,4.357-3.491,2.253-6.51-3.142-4.508-6.489-8.88-9.9-13.194-4.011-5.078-7.914-10.164-8.56-16.932A5.058,5.058,0,0,0,310.41,108.592Z" transform="translate(-240.384 -97.035)"/>
          </g>
          <g id="Group_1227" data-name="Group 1227" transform="translate(0 31.599)">
            <path id="Path_611" data-name="Path 611" d="M341.231,134.65c-.007,4.565-2.631,7.067-6.7,8.415a75,75,0,0,1-30.417,3.159c-14.365-1.245-28.536-3.7-41.807-9.548a34.135,34.135,0,0,1-11.727-7.8c-7.36-7.134-7.7-12.5-8.023-12.556-3.652-.651-7.473-1.381-10.258,1.906-2.03,2.394-1.1,5.258.408,7.488a25.223,25.223,0,0,0,5.6,5.964c9.318,7.02,20.143,11.065,30.855,15.365,20.822,8.358,42.535,10.182,64.663,9.231,3.912-.168,7.835-.287,11.731-.659a12.8,12.8,0,0,0,4.729-1.448c2.968-1.6,3.76-4.035,2.572-7.2a9.451,9.451,0,0,0-1.636-3.069C348.212,140.611,341.5,134.467,341.231,134.65Z" transform="translate(-231.131 -115.762)"/>
          </g>
          <g id="Group_1228" data-name="Group 1228" transform="translate(46.923)">
            <path id="Path_612" data-name="Path 612" d="M259.1,100.626c6.085,1.871,13.36,4.884,19.624,5.916,11.143,1.834,15.97.037,17.849-.674-2.309-3.787-5.35-5.493-8.744-6.743C272.705,93.554,259.18,100.3,259.1,100.626Z" transform="translate(-259.099 -96.928)"/>
          </g>
        </g>
        <g id="Group_1230" data-name="Group 1230" transform="translate(104.88 5.156)">
          <path id="Path_613" data-name="Path 613" d="M259.235,100.375a19.788,19.788,0,0,1,5.169,1.263,32.692,32.692,0,0,0,4.968,1.242c3.314.715,6.672,1.574,9.971,2.493a24.473,24.473,0,0,0,4.867.817,12.569,12.569,0,0,0,4.516-.141c1.169-.445,2.045-1.334,1.621-2.728a5.07,5.07,0,0,0-3.251-3.305,5.2,5.2,0,0,1,4.788,2.639,3.891,3.891,0,0,1,.268,3.344,4.929,4.929,0,0,1-2.329,2.475c-2.055,1.035-3.983.881-5.775.943a24.942,24.942,0,0,1-5.437-.713c-3.389-1.012-6.738-2.013-10.086-3.31a21.542,21.542,0,0,1-4.845-2.255A47.047,47.047,0,0,0,259.235,100.375Z" transform="translate(-259.235 -100.001)" fill="#262626"/>
        </g>
      </g>
    </g>
  </g>
</svg>
