<svg xmlns="http://www.w3.org/2000/svg" width="165.263" height="178.655" viewBox="0 0 165.263 178.655">
  <g id="Group_1520" data-name="Group 1520" transform="translate(-644.235 -226.564)">
    <g id="Group_1514" data-name="Group 1514">
      <g id="Group_1513" data-name="Group 1513">
        <path id="Path_660" data-name="Path 660" d="M710.238,385.1c24.927,0,45.135,4.505,45.135,10.062s-20.208,10.061-45.135,10.061-45.136-4.5-45.136-10.061S685.31,385.1,710.238,385.1Z" fill="#2c2c43" fill-rule="evenodd" opacity="0.2"/>
        <g id="Group_1455" data-name="Group 1455">
          <g id="Group_1454" data-name="Group 1454">
            <path id="Path_661" data-name="Path 661" d="M731.325,380.7c13,1.351,25.213,3.263,24.981,6.661-.456,6.661-15.914,1.231-24.981.328" fill="#8ba1d2"/>
          </g>
        </g>
        <g id="Group_1468" data-name="Group 1468">
          <g id="Group_1457" data-name="Group 1457">
            <g id="Group_1456" data-name="Group 1456">
              <path id="Path_662" data-name="Path 662" d="M672.9,373.787c-23.406-4.683-28.014-32.215-19.555-46.989,4.036-7.049,10.814-12.719,12.678-20.625,2.034-8.633-3.281-18.372-11.643-21.331a14.786,14.786,0,0,1-3.926-1.648c-3.46-2.526-4.845-5.234-2.2-8.605,3.29-4.2,22.594,6.053,25.327,17.413,1.91,7.936,1.312,17.412-3.551,23.969-5.113,6.894-11.232,13.5-13.258,21.84-2.622,10.795,4.594,23.311,14.69,26.791" fill="#8ba1d2"/>
            </g>
          </g>
          <g id="Group_1459" data-name="Group 1459">
            <g id="Group_1458" data-name="Group 1458">
              <path id="Path_663" data-name="Path 663" d="M648.541,273.329c-.773,0-1.47.132-1.485.3,0,0,1.572.949,1.191.96-1.15.031-3.151-1.119-3.815-1.246-.435-.084-.141.278.794,1.673,3.506,5.233.08,1.383.62,2.878a8.712,8.712,0,0,0,3.266,4.711,14.9,14.9,0,0,0,3.926,1.649c.372.132.736.281,1.1.439.582-.215,3.326-.166,2.932-.639-.275-.33-.933-.958-.66-1.54.337-.718,1.21-1.65,1.98-1.375,0,0-.266-1.376-.521-2.56-.138-.645,2.827-1.345,2.593-1.517a19.353,19.353,0,0,0-8.906-3.731C650.978,273.287,649.229,273.332,648.541,273.329Z" fill="#3b4b81"/>
            </g>
          </g>
          <g id="Group_1461" data-name="Group 1461">
            <g id="Group_1460" data-name="Group 1460">
              <path id="Path_664" data-name="Path 664" d="M672.587,311.377c.606-.95.458-2.053,1.013-3.032a8.973,8.973,0,0,1-3.782,1.165c-.457.034-.923-1.333-1.229-.966-.412.495-.979.937-1.409.9-.331-.03-.355-1.932-.489-1.6a2.3,2.3,0,0,1-1.67,1.384c-.275.667-.588,1.317-.921,1.959,1.358.207,1.863-.318,2.688.8.191.257,2.252-1.137,2.571-1.128.373.011.237,1.336.615,1.32.4-.017,1.275-1.422,1.5-1.774C671.807,309.892,672.11,311.488,672.587,311.377Z" fill="#3b4b81"/>
            </g>
          </g>
          <g id="Group_1463" data-name="Group 1463">
            <g id="Group_1462" data-name="Group 1462">
              <path id="Path_665" data-name="Path 665" d="M657.081,336.653a29.431,29.431,0,0,1,1.529-4.025c-.812.321-1.262,1.18-2.108,1.285-.615.078-1.622-.551-2.243-.575-.774-.03-1.573.786-2.335.617-.376-.084-.724-1.1-1.093-1.217a33.534,33.534,0,0,0-.923,4.038c.668.058,1.382.8,2.057.809.357.005.674-.7,1.032-.708.48-.007.736.85.638.378-.173-.837,1.15-.736,1.542-.463C655.7,337.154,656.446,336.706,657.081,336.653Z" fill="#3b4b81"/>
            </g>
          </g>
          <g id="Group_1465" data-name="Group 1465">
            <g id="Group_1464" data-name="Group 1464">
              <path id="Path_666" data-name="Path 666" d="M663.63,359.614c.04,1.12-.907.593-1.435,1.567-.182.335.489,1.928.258,2.242-.189.257-.825-.958-1.042-.716-.172.193-.151,2.159-.339,2.343-.231.226-.484-.409-.733-.2-.435.367-.884,1.564-1.357,1.882a26.933,26.933,0,0,0,2.205,1.872c.33-.411,1.335-.049,1.627-.495.132-.2-.433-1.2-.309-1.407.28-.469,1.478.128,1.34-.408-.66-2.558,2.38-2.612,1.691-3.3a2.943,2.943,0,0,1-.662-2.245C664.449,360.386,664.031,360.011,663.63,359.614Z" fill="#3b4b81"/>
            </g>
          </g>
          <g id="Group_1467" data-name="Group 1467">
            <g id="Group_1466" data-name="Group 1466">
              <path id="Path_667" data-name="Path 667" d="M672.1,288.286c-.3.637-2.126-.656-2.126-.656-.24.425.663,3.505.266,3.921-.379.4-1.775-1.5-1.775-.786a7.1,7.1,0,0,1-3.878,3.59c.259.543.489,1.1.7,1.663a2.631,2.631,0,0,1,1.861,1.141c.16.439.692-1.343,1.108-1.4.532-.079,1.721-.04,1.721.7,0,1.5,2.475-1.879,3.856-2.662C673.9,291.8,672.98,290.147,672.1,288.286Z" fill="#3b4b81"/>
            </g>
          </g>
        </g>
        <g id="Group_1470" data-name="Group 1470">
          <g id="Group_1469" data-name="Group 1469">
            <path id="Path_668" data-name="Path 668" d="M706.737,271.955l-9.074-11.641c-.24,50.714-8.6,64.987-22.272,83.634-15.7,21.407-.067,53.029,26.476,52.516,13.916-.269,17.881-.412,30.566-3.442a30.951,30.951,0,0,0,23.546-27.092c2.343-23.637,3.095-51.777-16.025-103.175-.15-.4-1.485-3.135-1.485-3.135s-3.7,9.894-4.55,12.047Z" fill="#8ba1d2"/>
          </g>
        </g>
        <g id="Group_1475" data-name="Group 1475">
          <g id="Group_1474" data-name="Group 1474">
            <g id="Group_1473" data-name="Group 1473">
              <path id="Path_670" data-name="Path 670" d="M694.416,309.828c-1.479.228-4.683.707-6.161.935a10.332,10.332,0,0,1,4.632-5.45,31.638,31.638,0,0,0-7.39,1,20.075,20.075,0,0,1,9.786-10.7c-1.229.093-3.853.049-5.082.142,1.328-1.93,5.117-3.558,7.147-4.727" fill="#8ba1d2"/>
            </g>
          </g>
        </g>
        <g id="Group_1927" data-name="Group 1927">
          <g id="Group_1472" data-name="Group 1472">
            <g id="Group_1471" data-name="Group 1471">
              <path id="Path_669" data-name="Path 669" d="M745.9,340.236a17.414,17.414,0,0,0-17.414-17.413c-9.617,0-16.8,7.019-17.413,17.413,0,0-3.58,33.547-9.2,57.154,14.315.326,30.514-.234,39.2-7.76C748.036,360.729,745.9,340.236,745.9,340.236Z" fill="#bac5e3"/>
            </g>
          </g>
          <g id="Group_1504" data-name="Group 1504">
            <path id="Path_681" data-name="Path 681" d="M721.876,325.583s4.547-2.257,4.327-4.677,2.28,1.917,2.28,1.917a5.28,5.28,0,0,0,.452-4.117c-.642-2.531,2.674,1.822,2.447,3.621s3.292-.981,3.4-2.631,1.87,4.955.44,5.887-5.391,2.144-5.721,1.868S721.876,325.583,721.876,325.583Z" fill="#bac5e3"/>
          </g>
          <g id="Group_1505" data-name="Group 1505">
            <path id="Path_682" data-name="Path 682" d="M744.621,362.188s1.309-2.59,2.692-2.455-1.087-1.311-1.087-1.311a3.021,3.021,0,0,1,2.356-.242c1.444.378-1.031-1.536-2.061-1.413s.575-1.878,1.519-1.934-2.826-1.089-3.365-.276a8.378,8.378,0,0,0-1.091,3.263C743.74,358.01,744.621,362.188,744.621,362.188Z" fill="#bac5e3"/>
          </g>
          <g id="Group_1506" data-name="Group 1506">
            <path id="Path_683" data-name="Path 683" d="M716.083,327.891s-2.97,1.54-4.015.385-.472,1.564,1.056,2.625-1.661,1.885-2.156,1.39.832,1.375,1.461,1.54S716.083,327.891,716.083,327.891Z" fill="#bac5e3"/>
          </g>
          <g id="Group_1507" data-name="Group 1507">
            <path id="Path_684" data-name="Path 684" d="M745.373,335.857s.24-3.337,1.771-3.624a2.153,2.153,0,0,0-2.651-.526c-1.7.748-.878-2.347-.2-2.51s-1.607-.01-2.076.44S745.373,335.857,745.373,335.857Z" fill="#bac5e3"/>
          </g>
          <g id="Group_1509" data-name="Group 1509">
            <path id="Path_686" data-name="Path 686" d="M709.641,358.8s-1.568,2.443-2.929,2.166.946,1.416.946,1.416a3.018,3.018,0,0,1-2.368,0c-1.4-.523.868,1.634,1.905,1.618s-.765,1.809-1.709,1.768,2.7,1.373,3.318.619a8.369,8.369,0,0,0,1.42-3.133C710.088,363.049,709.641,358.8,709.641,358.8Z" fill="#bac5e3"/>
          </g>
          <g id="Group_1510" data-name="Group 1510">
            <path id="Path_687" data-name="Path 687" d="M707.221,376.554a1.153,1.153,0,0,0-1.094-.914c-.911-.011-1.19.275-1.19.275a2.91,2.91,0,0,1,.834-1.114c.57-.438.366-.335.366-.335a3.021,3.021,0,0,1-.661-.829c-.317-.558.221-1.193.221-1.193a1.544,1.544,0,0,0,1.062.856,1.2,1.2,0,0,1,.852,1.083" fill="#bac5e3"/>
          </g>
        </g>
        <g id="Group_1478" data-name="Group 1478">
          <g id="Group_1477" data-name="Group 1477">
            <g id="Group_1476" data-name="Group 1476">
              <path id="Path_671" data-name="Path 671" d="M752.142,309.785c1.495.055,4.733.161,6.228.216a10.337,10.337,0,0,0-5.232-4.877,31.577,31.577,0,0,1,7.456.141,20.075,20.075,0,0,0-10.958-9.5c1.232-.05,3.833-.4,5.065-.448-1.543-1.762-5.495-2.941-7.646-3.867" fill="#8ba1d2"/>
            </g>
          </g>
        </g>
        <g id="Group_1480" data-name="Group 1480">
          <g id="Group_1479" data-name="Group 1479">
            <path id="Path_672" data-name="Path 672" d="M682.962,390.62c9,7,28.652,9.789,29.777,6.574,2.206-6.3-14.141-7.4-22.831-10.143" fill="#8ba1d2"/>
          </g>
        </g>
        <g id="Group_1486" data-name="Group 1486">
          <g id="Group_1482" data-name="Group 1482">
            <g id="Group_1481" data-name="Group 1481">
              <circle id="Ellipse_48" data-name="Ellipse 48" cx="5.381" cy="5.381" r="5.381" transform="matrix(0.923, -0.385, 0.385, 0.923, 728.166, 281.796)" fill="#fff"/>
            </g>
          </g>
          <g id="Group_1485" data-name="Group 1485">
            <g id="Group_1484" data-name="Group 1484">
              <g id="Group_1483" data-name="Group 1483">
                <circle id="Ellipse_49" data-name="Ellipse 49" cx="0.615" cy="0.615" r="0.615" transform="translate(734.633 284.143)" fill="#231f20"/>
              </g>
            </g>
          </g>
        </g>
        <g id="Group_1492" data-name="Group 1492">
          <g id="Group_1488" data-name="Group 1488">
            <g id="Group_1487" data-name="Group 1487">
              <circle id="Ellipse_50" data-name="Ellipse 50" cx="5.381" cy="5.381" r="5.381" transform="matrix(0.923, -0.385, 0.385, 0.923, 708.714, 282.074)" fill="#fff"/>
            </g>
          </g>
          <g id="Group_1491" data-name="Group 1491">
            <g id="Group_1490" data-name="Group 1490">
              <g id="Group_1489" data-name="Group 1489">
                <circle id="Ellipse_51" data-name="Ellipse 51" cx="0.585" cy="0.585" r="0.585" transform="translate(715.21 284.45)" fill="#231f20"/>
              </g>
            </g>
          </g>
        </g>
        <g id="Group_1494" data-name="Group 1494">
          <g id="Group_1493" data-name="Group 1493">
            <path id="Path_673" data-name="Path 673" d="M722.721,293.823h4.862a.855.855,0,0,1,.636,1.428l-2.431,2.7a.856.856,0,0,1-1.273,0l-2.431-2.7A.856.856,0,0,1,722.721,293.823Z" fill="#3b4b81"/>
          </g>
        </g>
        <g id="Group_1495" data-name="Group 1495">
          <path id="Path_674" data-name="Path 674" d="M712.1,297.851c-7.747,0-11.675-4.71-11.675-14,0-6.568,6.239-7.411,11.675-7.411,5.113,0,12.117,0,12.117,6.632C724.213,289.023,719.125,297.851,712.1,297.851Zm0-19.578c-6.991,0-9.843,1.616-9.843,5.578,0,5.224,1.021,12.168,9.843,12.168,5.677,0,10.284-7.834,10.284-12.947C722.38,278.991,719.064,278.273,712.1,278.273Z" fill="#444445"/>
        </g>
        <g id="Group_1496" data-name="Group 1496">
          <path id="Path_675" data-name="Path 675" d="M738.867,297.851c-7.029,0-12.117-8.828-12.117-14.779,0-6.632,7-6.632,12.117-6.632,5.435,0,11.675.843,11.675,7.411C750.542,293.141,746.614,297.851,738.867,297.851Zm0-19.578c-6.969,0-10.285.718-10.285,4.8,0,5.113,4.608,12.947,10.285,12.947,8.822,0,9.842-6.944,9.842-12.168C748.709,279.889,745.858,278.273,738.867,278.273Z" fill="#444445"/>
        </g>
        <g id="Group_1497" data-name="Group 1497">
          <rect id="Rectangle_225" data-name="Rectangle 225" width="5.122" height="1.832" transform="translate(722.92 282.518)" fill="#444445"/>
        </g>
        <g id="Group_1499" data-name="Group 1499">
          <g id="Group_1498" data-name="Group 1498">
            <path id="Path_676" data-name="Path 676" d="M725.191,300.274a5.215,5.215,0,0,1,1.66,2.362,4.874,4.874,0,0,1,.076,1.53,1.706,1.706,0,0,1-.457,1.287c-1.508,1.167-2.217.467-2.508.167a3.939,3.939,0,0,1-.418-2.128,2.382,2.382,0,0,1,.3-.993q.246-.507.513-1a2.089,2.089,0,0,0,.356-.8c.034-.588-.041-1.222-.041-1.817V294.25h.952v6.873h-.952v-.45" fill="#3b4b81"/>
          </g>
        </g>
        <g id="Group_1500" data-name="Group 1500">
          <path id="Path_677" data-name="Path 677" d="M687.971,323.708a29.626,29.626,0,0,0,5.011,0c1.32-.272-.99.718-.99.718h5.356l-1.176.88,5.226.277a32.352,32.352,0,0,1-6.491.878c-2.181-.074.012,1.045.012,1.045s-3.261-.443-4.247-1.1c-.495-.33-.11,1.1-.11,1.1l-4.235-.412Z" fill="#3b4b81"/>
        </g>
        <g id="Group_1501" data-name="Group 1501">
          <path id="Path_678" data-name="Path 678" d="M725.309,271.882a12.038,12.038,0,0,0,2.357.815c.571.063-2.185.495-2.185.495l1.107.948-2.284.369,1.177,2.024s-3.018.1-4.379-2.1c-.442-.714-2.434.19-2.434.19s.609-1.576,1.32-1.84c.357-.133-2.021-.041-2.021-.041l.988-.789Z" fill="#3b4b81"/>
        </g>
        <g id="Group_1502" data-name="Group 1502">
          <path id="Path_679" data-name="Path 679" d="M681.021,335.878a25.23,25.23,0,0,0,4.28,0c1.127-.232-.846.613-.846.613h4.574l-1,.752,4.462.237a27.565,27.565,0,0,1-5.542.749c-1.863-.063.01.893.01.893a13.653,13.653,0,0,1-3.627-.94c-.423-.282-.094.94-.094.94l-4.016-.391Z" fill="#3b4b81"/>
        </g>
        <g id="Group_1503" data-name="Group 1503">
          <path id="Path_680" data-name="Path 680" d="M685.266,329.2a39.131,39.131,0,0,0,6.616,0c1.743-.36-1.308.947-1.308.947h7.072l-1.552,1.162,6.9.367a42.688,42.688,0,0,1-8.57,1.158c-2.879-.1.016,1.38.016,1.38s-4.306-.584-5.607-1.452c-.654-.436-.146,1.452-.146,1.452l-6.1-.592Z" fill="#3b4b81"/>
        </g>
        <g id="Group_1508" data-name="Group 1508">
          <path id="Path_685" data-name="Path 685" d="M745.206,344.281a1.155,1.155,0,0,0,1.183.8c.907-.083,1.155-.4,1.155-.4a2.918,2.918,0,0,1-.715,1.193c-.523.495-.33.372-.33.372a2.99,2.99,0,0,1,.742.756c.373.522-.1,1.21-.1,1.21a1.541,1.541,0,0,0-1.144-.743,1.2,1.2,0,0,1-.959-.99" fill="#c0b0ca"/>
        </g>
        <g id="Group_1511" data-name="Group 1511">
          <path id="Path_688" data-name="Path 688" d="M697.637,265.93l-2.03-1.354,2.03,3.481H696.09l1.547,1.45-1.015,1.644h1.015" fill="#8ba1d2"/>
        </g>
        <g id="Group_1512" data-name="Group 1512">
          <path id="Path_689" data-name="Path 689" d="M740.535,265.494l2.074-2.533-.924,3.922,1.479-.453-1.055,1.839,1.452,1.275-1.663.616" fill="#8ba1d2"/>
        </g>
      </g>
    </g>
    <g id="Group_1515" data-name="Group 1515">
      <rect id="Rectangle_226" data-name="Rectangle 226" width="6" height="80.504" rx="2.616" transform="translate(763.889 276.349) rotate(14.975)" fill="#d8d8d8"/>
      <path id="Path_690" data-name="Path 690" d="M765.2,226.564l-26.481,14.981-8.132,29.318,14.981,26.481,29.318,8.132L801.365,290.5l8.132-29.318L794.516,234.7Z" fill="#f05a38"/>
      <path id="Path_691" data-name="Path 691" d="M766.11,233.99l-21.5,12.161-6.6,23.8,12.161,21.5,23.8,6.6,21.5-12.161,6.6-23.8-12.161-21.5Z" fill="none" stroke="#fff" stroke-miterlimit="10" stroke-width="2.385"/>
      <path id="Path_692" data-name="Path 692" d="M783.4,256.44l-12.79,7.628-7.628-12.79-3.2,1.907,7.628,12.79L754.62,273.6l1.907,3.2,12.79-7.628,7.628,12.79,3.2-1.907-7.628-12.79,12.79-7.628Z" fill="#fff"/>
    </g>
    <g id="Group_1519" data-name="Group 1519">
      <g id="Group_1518" data-name="Group 1518">
        <g id="Group_1517" data-name="Group 1517">
          <g id="Group_1516" data-name="Group 1516">
            <path id="Path_693" data-name="Path 693" d="M755.676,332.529c.2-5.268-1.1-5.538-.453-7.916,1.323-4.848,15.739.007.739,20.007" fill="#8ba1d2"/>
          </g>
        </g>
      </g>
    </g>
  </g>
</svg>
