<svg xmlns="http://www.w3.org/2000/svg" width="278" height="143.59" viewBox="0 0 278 143.59">
  <g id="Group_1453" data-name="Group 1453" transform="translate(-644.083 -350.237)">
    <g id="Group_1447" data-name="Group 1447" transform="translate(644.083 385.406)">
      <g id="Group_1446" data-name="Group 1446">
        <g id="Group_1445" data-name="Group 1445">
          <g id="Group_1434" data-name="Group 1434">
            <g id="Group_1259" data-name="Group 1259" transform="translate(34.085 15.128)">
              <g id="Group_1240" data-name="Group 1240" transform="translate(0.226)">
                <g id="Group_1239" data-name="Group 1239">
                  <g id="Group_1238" data-name="Group 1238">
                    <g id="Group_1237" data-name="Group 1237">
                      <g id="Group_1236" data-name="Group 1236">
                        <g id="Group_1235" data-name="Group 1235">
                          <path id="Path_614" data-name="Path 614" d="M680.451,385.825c-.308-1.509-.991-4.778-1.3-6.289a10.667,10.667,0,0,0-3.61,6.424,32.536,32.536,0,0,1-1.672-7.5,20.693,20.693,0,0,0-6.843,13.281c-.349-1.221-1.329-3.742-1.679-4.963-1.39,1.974-1.609,6.217-2.012,8.6" transform="translate(-663.337 -378.462)" fill="#89a0d2"/>
                        </g>
                      </g>
                    </g>
                  </g>
                </g>
              </g>
              <g id="Group_1246" data-name="Group 1246" transform="translate(4.378 2.101)">
                <g id="Group_1245" data-name="Group 1245">
                  <g id="Group_1244" data-name="Group 1244">
                    <g id="Group_1243" data-name="Group 1243">
                      <g id="Group_1242" data-name="Group 1242">
                        <g id="Group_1241" data-name="Group 1241">
                          <path id="Path_615" data-name="Path 615" d="M673.449,385.509c-.152-.741.053-4.6-.1-5.341a5.225,5.225,0,0,0-1.771,3.152,15.948,15.948,0,0,1-.822-3.68,10.153,10.153,0,0,0-3.357,6.517c-.171-.6-.652-1.836-.823-2.434-.682.968-.713,4.924-.911,6.091" transform="translate(-665.667 -379.641)" fill="#89a0d2"/>
                        </g>
                      </g>
                    </g>
                  </g>
                </g>
              </g>
              <g id="Group_1252" data-name="Group 1252" transform="translate(0 9.94)">
                <g id="Group_1251" data-name="Group 1251">
                  <g id="Group_1250" data-name="Group 1250">
                    <g id="Group_1249" data-name="Group 1249">
                      <g id="Group_1248" data-name="Group 1248">
                        <g id="Group_1247" data-name="Group 1247">
                          <path id="Path_616" data-name="Path 616" d="M667.127,387.381c-.073-.358-.1-2.727-.176-3.085a2.526,2.526,0,0,0-.857,1.524,7.707,7.707,0,0,1-.4-1.78,4.907,4.907,0,0,0-1.623,3.151c-.082-.289-.315-.887-.4-1.176-.33.467-.372,3.47-.467,4.034" transform="translate(-663.21 -384.04)" fill="#89a0d2"/>
                        </g>
                      </g>
                    </g>
                  </g>
                </g>
              </g>
              <g id="Group_1258" data-name="Group 1258" transform="translate(10.115 3.083)">
                <g id="Group_1257" data-name="Group 1257">
                  <g id="Group_1256" data-name="Group 1256">
                    <g id="Group_1255" data-name="Group 1255">
                      <g id="Group_1254" data-name="Group 1254">
                        <g id="Group_1253" data-name="Group 1253">
                          <path id="Path_617" data-name="Path 617" d="M676.358,385.246c-.151-.741.364-3.785.212-4.525a5.227,5.227,0,0,0-1.773,3.152,16.07,16.07,0,0,1-.82-3.682,10.158,10.158,0,0,0-3.357,6.519c-.171-.6-.652-1.837-.823-2.436-.682.969-.713,4.924-.911,6.091" transform="translate(-668.886 -380.192)" fill="#89a0d2"/>
                        </g>
                      </g>
                    </g>
                  </g>
                </g>
              </g>
            </g>
            <g id="Group_1264" data-name="Group 1264" transform="translate(122.839)">
              <g id="Group_1263" data-name="Group 1263">
                <g id="Group_1262" data-name="Group 1262">
                  <g id="Group_1261" data-name="Group 1261">
                    <g id="Group_1260" data-name="Group 1260">
                      <path id="Path_618" data-name="Path 618" d="M725.18,399.3c-7.892-13.445-14.682-26.527-11.253-28.7,6.72-4.27,12.428,14.418,17.968,23.767" transform="translate(-713.016 -369.973)" fill="#8ba1d2"/>
                    </g>
                  </g>
                </g>
              </g>
            </g>
            <g id="Group_1269" data-name="Group 1269" transform="translate(59.826 8.303)">
              <g id="Group_1268" data-name="Group 1268">
                <g id="Group_1267" data-name="Group 1267">
                  <g id="Group_1266" data-name="Group 1266">
                    <g id="Group_1265" data-name="Group 1265">
                      <path id="Path_619" data-name="Path 619" d="M681.7,399.846c1.139-3.7,4.195-9.288,1.887-13.317-3.288-5.743-4.851-5.168-5.74-8.133-2.261-7.547,16.281-3.9,20.441,12.335" transform="translate(-677.655 -374.632)" fill="#8ba1d2"/>
                    </g>
                  </g>
                </g>
              </g>
            </g>
            <g id="Group_1300" data-name="Group 1300" transform="translate(155.048 72.14)">
              <g id="Group_1274" data-name="Group 1274">
                <g id="Group_1273" data-name="Group 1273">
                  <g id="Group_1272" data-name="Group 1272">
                    <g id="Group_1271" data-name="Group 1271">
                      <g id="Group_1270" data-name="Group 1270">
                        <path id="Path_620" data-name="Path 620" d="M731.09,422.919c8.794,27.074,42.047,28.71,58.372,16.64,7.789-5.759,13.563-14.573,22.669-17.879,9.944-3.609,22.216,1.336,26.882,10.829a17.674,17.674,0,0,0,2.5,4.421c3.473,3.749,6.873,5.013,10.5,1.415,4.514-4.48-10.307-25.921-24.141-27.582-9.666-1.16-20.807.862-27.9,7.533-7.456,7.014-14.431,15.177-24.029,18.734-12.424,4.6-34.388-1.333-34.388-26.281" transform="translate(-731.09 -410.455)" fill="#8ba1d2"/>
                      </g>
                    </g>
                  </g>
                </g>
              </g>
              <g id="Group_1279" data-name="Group 1279" transform="translate(108.133 13.757)">
                <g id="Group_1278" data-name="Group 1278">
                  <g id="Group_1277" data-name="Group 1277">
                    <g id="Group_1276" data-name="Group 1276">
                      <g id="Group_1275" data-name="Group 1275">
                        <path id="Path_621" data-name="Path 621" d="M806.006,431.784c.112.916.048,1.761-.15,1.8,0,0-1.342-1.732-1.3-1.278.121,1.367,1.762,3.577,2,4.346.159.5-.31.2-2.092-.709-6.684-3.427-1.65.1-3.5-.335a10.4,10.4,0,0,1-6.032-3.215,17.76,17.76,0,0,1-2.5-4.421c-.207-.422-.435-.832-.672-1.237.173-.72-.266-3.963.349-3.562.429.28,1.263.973,1.916.568.8-.5,1.786-1.663,1.354-2.536,0,0,1.666.125,3.1.26.782.075,1.2-3.534,1.438-3.281,2.841,3.031,5.077,7.073,5.654,10.031C805.718,428.892,805.907,430.97,806.006,431.784Z" transform="translate(-791.77 -418.175)" fill="#3b4b81"/>
                      </g>
                    </g>
                  </g>
                </g>
              </g>
              <g id="Group_1284" data-name="Group 1284" transform="translate(73.383 2.547)">
                <g id="Group_1283" data-name="Group 1283">
                  <g id="Group_1282" data-name="Group 1282">
                    <g id="Group_1281" data-name="Group 1281">
                      <g id="Group_1280" data-name="Group 1280">
                        <path id="Path_622" data-name="Path 622" d="M772.851,413.5c1.043-.85,2.368-.829,3.452-1.62a10.694,10.694,0,0,0-.855,4.64c.023.547,1.707.909,1.315,1.322a2.474,2.474,0,0,0-.868,1.793c.08.388,2.336.153,1.962.356a2.741,2.741,0,0,0-1.408,2.17c-.752.419-1.479.88-2.192,1.363-.435-1.581.118-2.251-1.317-3.072-.331-.191,1.034-2.826.978-3.2-.064-.44-1.615-.1-1.648-.545-.036-.478,1.508-1.707,1.892-2.026C774.719,414.222,772.787,414.085,772.851,413.5Z" transform="translate(-772.27 -411.884)" fill="#3b4b81"/>
                      </g>
                    </g>
                  </g>
                </g>
              </g>
              <g id="Group_1289" data-name="Group 1289" transform="translate(45.774 23.671)">
                <g id="Group_1288" data-name="Group 1288">
                  <g id="Group_1287" data-name="Group 1287">
                    <g id="Group_1286" data-name="Group 1286">
                      <g id="Group_1285" data-name="Group 1285">
                        <path id="Path_623" data-name="Path 623" d="M757.182,426.108a35.025,35.025,0,0,0,4.555-2.37c-.267,1.007-1.222,1.659-1.23,2.675-.007.741.877,1.846.993,2.579.143.912-.713,1.973-.406,2.851.151.433,1.406.7,1.591,1.124a39.584,39.584,0,0,1-4.655,1.654c-.16-.782-1.137-1.525-1.242-2.324-.057-.422.74-.895.695-1.32-.059-.568-1.108-.754-.536-.7,1.016.089.713-1.463.335-1.891C756.779,427.815,757.207,426.869,757.182,426.108Z" transform="translate(-756.777 -423.738)" fill="#3b4b81"/>
                      </g>
                    </g>
                  </g>
                </g>
              </g>
              <g id="Group_1294" data-name="Group 1294" transform="translate(7.761 19.588)">
                <g id="Group_1293" data-name="Group 1293">
                  <g id="Group_1292" data-name="Group 1292">
                    <g id="Group_1291" data-name="Group 1291">
                      <g id="Group_1290" data-name="Group 1290">
                        <path id="Path_624" data-name="Path 624" d="M745.758,423.331c-1.333.109-.577,1.157-1.657,1.916-.371.262-2.351-.312-2.691.007-.278.258,1.249.845.993,1.133-.2.232-2.538.479-2.728.727-.235.3.551.517.337.841-.376.567-1.73,1.265-2.042,1.869a32.6,32.6,0,0,1-2.523-2.352c.442-.449-.126-1.588.362-2,.221-.185,1.479.347,1.709.171.517-.4-.356-1.734.3-1.645,3.12.426,2.764-3.181,3.675-2.461a3.5,3.5,0,0,0,2.75.472C744.729,422.468,745.232,422.91,745.758,423.331Z" transform="translate(-735.445 -421.447)" fill="#3b4b81"/>
                      </g>
                    </g>
                  </g>
                </g>
              </g>
              <g id="Group_1299" data-name="Group 1299" transform="translate(91.47 0.171)">
                <g id="Group_1298" data-name="Group 1298">
                  <g id="Group_1297" data-name="Group 1297">
                    <g id="Group_1296" data-name="Group 1296">
                      <g id="Group_1295" data-name="Group 1295">
                        <path id="Path_625" data-name="Path 625" d="M792.332,411.918c-.713.442,1.073,2.427,1.073,2.427-.47.344-4.243-.3-4.681.23-.417.5,2.021,1.894,1.178,1.992-.636.075-3.406,2.81-3.715,5.093-.679-.232-1.369-.428-2.065-.6a3.15,3.15,0,0,0-1.609-2.046c-.543-.128,1.493-1.005,1.509-1.506.018-.642-.193-2.044-1.071-1.941-1.78.208,1.882-3.193,2.618-4.938C787.922,410.279,790.007,411.134,792.332,411.918Z" transform="translate(-782.419 -410.551)" fill="#3b4b81"/>
                      </g>
                    </g>
                  </g>
                </g>
              </g>
            </g>
            <g id="Group_1305" data-name="Group 1305" transform="translate(0 8.034)">
              <g id="Group_1304" data-name="Group 1304">
                <g id="Group_1303" data-name="Group 1303">
                  <g id="Group_1302" data-name="Group 1302">
                    <g id="Group_1301" data-name="Group 1301">
                      <path id="Path_626" data-name="Path 626" d="M664.717,450.623l-11.952,12.923c24.961.283,56.219,8.664,83.767,7.411,39.2-1.782,71.281-8.91,73.063-39.2.975-16.569-1.34-20.365-7.351-34.708a36.909,36.909,0,0,0-36.422-22.489c-28.27,1.8-61.533,6.339-118.335,38.748-.445.255-3.4,2.352-3.4,2.352s12.355,2.441,15.054,3.031Z" transform="translate(-644.083 -374.481)" fill="#8ba1d2"/>
                    </g>
                  </g>
                </g>
              </g>
            </g>
            <g id="Group_1309" data-name="Group 1309" transform="translate(23.971 61.307)">
              <g id="Group_1308" data-name="Group 1308">
                <g id="Group_1307" data-name="Group 1307">
                  <g id="Group_1306" data-name="Group 1306">
                    <path id="Path_627" data-name="Path 627" d="M683.5,415.97c1.493,9.119-3.293,14.648-14.226,16.439-7.73,1.267-9.926-5.915-10.974-12.31-.985-6.02-2.334-14.261,5.471-15.539C670.77,403.412,682.14,407.7,683.5,415.97Zm-23.042,3.774c1.347,8.228,3.8,11.273,8.461,10.509,6.148-1.007,14.124-3.546,12.422-13.928-1.094-6.683-11.2-10.594-17.218-9.609C659.315,407.5,659.111,411.543,660.454,419.744Z" transform="translate(-657.535 -404.376)" fill="#444445"/>
                  </g>
                </g>
              </g>
            </g>
            <g id="Group_1313" data-name="Group 1313" transform="translate(19.045 29.917)">
              <g id="Group_1312" data-name="Group 1312">
                <g id="Group_1311" data-name="Group 1311">
                  <g id="Group_1310" data-name="Group 1310">
                    <path id="Path_628" data-name="Path 628" d="M680.5,398.239c1.354,8.272-8.055,15.961-15.058,17.109-7.805,1.279-9.154-6.964-10.142-12.982-1.048-6.4-1.258-13.9,6.472-15.168C672.7,385.407,679,389.122,680.5,398.239Zm-23.041,3.774c1.342,8.2,2.826,11.964,7.631,11.179,6.016-.985,14.349-7.917,13.255-14.6-1.7-10.382-10.07-10.245-16.218-9.238C657.459,390.119,656.107,393.786,657.455,402.014Z" transform="translate(-654.77 -386.761)" fill="#444445"/>
                  </g>
                </g>
              </g>
            </g>
            <g id="Group_1317" data-name="Group 1317" transform="translate(28.812 56.737)">
              <g id="Group_1316" data-name="Group 1316">
                <g id="Group_1315" data-name="Group 1315">
                  <g id="Group_1314" data-name="Group 1314">
                    <rect id="Rectangle_223" data-name="Rectangle 223" width="2.185" height="6.109" transform="matrix(0.987, -0.162, 0.162, 0.987, 0, 0.353)" fill="#444445"/>
                  </g>
                </g>
              </g>
            </g>
            <g id="Group_1341" data-name="Group 1341" transform="translate(41.692 51.523)">
              <g id="Group_1322" data-name="Group 1322" transform="translate(0 2.683)">
                <g id="Group_1321" data-name="Group 1321">
                  <g id="Group_1320" data-name="Group 1320">
                    <g id="Group_1319" data-name="Group 1319">
                      <g id="Group_1318" data-name="Group 1318">
                        <path id="Path_629" data-name="Path 629" d="M668.431,407.3l-.937-5.722a1.022,1.022,0,0,1,1.559-1.025l3.651,2.34a1.021,1.021,0,0,1,.244,1.5l-2.714,3.382A1.02,1.02,0,0,1,668.431,407.3Z" transform="translate(-667.479 -400.391)" fill="#3b4b81"/>
                      </g>
                    </g>
                  </g>
                </g>
              </g>
              <g id="Group_1327" data-name="Group 1327" transform="translate(0.658 4.331)">
                <g id="Group_1326" data-name="Group 1326">
                  <g id="Group_1325" data-name="Group 1325">
                    <g id="Group_1324" data-name="Group 1324">
                      <g id="Group_1323" data-name="Group 1323">
                        <rect id="Rectangle_224" data-name="Rectangle 224" width="10.48" height="1.136" transform="matrix(0.987, -0.162, 0.162, 0.987, 0, 1.694)" fill="#3b4b81"/>
                      </g>
                    </g>
                  </g>
                </g>
              </g>
              <g id="Group_1332" data-name="Group 1332" transform="translate(12.136 6.277)">
                <g id="Group_1331" data-name="Group 1331">
                  <g id="Group_1330" data-name="Group 1330">
                    <g id="Group_1329" data-name="Group 1329">
                      <g id="Group_1328" data-name="Group 1328">
                        <path id="Path_630" data-name="Path 630" d="M675.13,403.91l.884-.547a.4.4,0,0,0-.152-.725l-1.573-.23Z" transform="translate(-674.289 -402.408)" fill="#bfbfbf"/>
                      </g>
                    </g>
                  </g>
                </g>
              </g>
              <g id="Group_1337" data-name="Group 1337" transform="translate(11.644 1.172)">
                <g id="Group_1336" data-name="Group 1336">
                  <g id="Group_1335" data-name="Group 1335">
                    <g id="Group_1334" data-name="Group 1334">
                      <g id="Group_1333" data-name="Group 1333">
                        <path id="Path_631" data-name="Path 631" d="M674.355,399.543l1.089.257a.423.423,0,0,1,.095.789l-1.526.773Z" transform="translate(-674.013 -399.543)" fill="#bfbfbf"/>
                      </g>
                    </g>
                  </g>
                </g>
              </g>
              <g id="Group_1340" data-name="Group 1340" transform="translate(9.696)">
                <g id="Group_1339" data-name="Group 1339">
                  <g id="Group_1338" data-name="Group 1338">
                    <path id="Path_632" data-name="Path 632" d="M676.958,407.8a.593.593,0,0,1-1.019.116l-3.019-4.091,1.686-4.546a.558.558,0,0,1,.759-.349.592.592,0,0,1,.349.761l-1.463,3.945,2.639,3.577A.6.6,0,0,1,676.958,407.8Z" transform="translate(-672.92 -398.886)" fill="#3b4b81"/>
                  </g>
                </g>
              </g>
            </g>
            <g id="Group_1345" data-name="Group 1345" transform="translate(84.856 89.358)">
              <g id="Group_1344" data-name="Group 1344">
                <g id="Group_1343" data-name="Group 1343">
                  <g id="Group_1342" data-name="Group 1342">
                    <path id="Path_633" data-name="Path 633" d="M697.817,435.082a35.232,35.232,0,0,0-3-5.166c-1.071-1.2,1.335.59,1.335.59L693.64,426.2l-.7-1.212,1.613.684-2.848-5.553a38.423,38.423,0,0,1,4.8,6.164c1.233,2.292,1.071-.64,1.071-.64s1.5,3.628,1.411,5.04c-.043.707,1.2-.547,1.2-.547l2.114,4.614Z" transform="translate(-691.701 -420.117)" fill="#3b4b81"/>
                  </g>
                </g>
              </g>
            </g>
            <g id="Group_1349" data-name="Group 1349" transform="translate(16.822 59.329)">
              <g id="Group_1348" data-name="Group 1348">
                <g id="Group_1347" data-name="Group 1347">
                  <g id="Group_1346" data-name="Group 1346">
                    <path id="Path_634" data-name="Path 634" d="M653.523,406.294a14.315,14.315,0,0,0,.5-2.931c-.036-.684,1,2.477,1,2.477l.9-1.486.873,2.616,2.156-1.775s.7,3.534-1.632,5.56c-.755.658.693,2.828.693,2.828s-1.973-.413-2.42-1.2c-.226-.394.34,2.388.34,2.388l-1.119-1.012Z" transform="translate(-653.523 -403.266)" fill="#3b4b81"/>
                  </g>
                </g>
              </g>
            </g>
            <g id="Group_1353" data-name="Group 1353" transform="translate(102.462 89.629)">
              <g id="Group_1352" data-name="Group 1352">
                <g id="Group_1351" data-name="Group 1351">
                  <g id="Group_1350" data-name="Group 1350">
                    <path id="Path_635" data-name="Path 635" d="M706.8,433.05a30.121,30.121,0,0,0-2.566-4.412c-.914-1.023,1.141.5,1.141.5l-2.14-3.68-.6-1.035,1.376.584-2.431-4.742a32.85,32.85,0,0,1,4.1,5.264c1.053,1.958.914-.545.914-.545s1.281,3.1,1.206,4.3c-.037.6,1.025-.467,1.025-.467l2,4.375Z" transform="translate(-701.581 -420.269)" fill="#3b4b81"/>
                  </g>
                </g>
              </g>
            </g>
            <g id="Group_1357" data-name="Group 1357" transform="translate(90.177 84.062)">
              <g id="Group_1356" data-name="Group 1356">
                <g id="Group_1355" data-name="Group 1355">
                  <g id="Group_1354" data-name="Group 1354">
                    <path id="Path_636" data-name="Path 636" d="M702.761,436.906s-2.55-5.239-3.965-6.822,1.761.781,1.761.781l-3.309-5.69-.93-1.6,2.128.9-3.758-7.333s4.507,4.744,6.331,8.14c1.627,3.026,1.413-.843,1.413-.843s1.98,4.788,1.864,6.65c-.057.936,1.586-.72,1.586-.72l3.044,6.64Z" transform="translate(-694.687 -417.145)" fill="#3b4b81"/>
                  </g>
                </g>
              </g>
            </g>
            <g id="Group_1391" data-name="Group 1391" transform="translate(65.864 11.846)">
              <g id="Group_1362" data-name="Group 1362" transform="translate(5.178)">
                <g id="Group_1361" data-name="Group 1361">
                  <g id="Group_1360" data-name="Group 1360">
                    <g id="Group_1359" data-name="Group 1359">
                      <g id="Group_1358" data-name="Group 1358">
                        <path id="Path_637" data-name="Path 637" d="M698.2,388.864a20.765,20.765,0,0,0-13.2,26.237c3.6,10.888,14.238,16.395,26.237,13.2,0,0,38.342-8.215,67.177-10.69-3.708-16.918-11.1-34.96-25.025-40.986C718.06,379.55,698.2,388.864,698.2,388.864Z" transform="translate(-683.949 -376.62)" fill="#bac5e3"/>
                      </g>
                    </g>
                  </g>
                </g>
              </g>
              <g id="Group_1366" data-name="Group 1366" transform="translate(0 29.587)">
                <g id="Group_1365" data-name="Group 1365">
                  <g id="Group_1364" data-name="Group 1364">
                    <g id="Group_1363" data-name="Group 1363">
                      <path id="Path_638" data-name="Path 638" d="M692.877,408.564s-4.259-4.3-6.916-3.147,1.317-3.3,1.317-3.3a6.294,6.294,0,0,0-4.831,1.03c-2.625,1.675,1.062-3.71,3.184-4.127s-2.343-3.359-4.254-2.865,4.909-3.972,6.5-2.7,4.446,5.3,4.257,5.777S692.877,408.564,692.877,408.564Z" transform="translate(-681.043 -393.223)" fill="#bac5e3"/>
                    </g>
                  </g>
                </g>
              </g>
              <g id="Group_1370" data-name="Group 1370" transform="translate(34.963 1.992)">
                <g id="Group_1369" data-name="Group 1369">
                  <g id="Group_1368" data-name="Group 1368">
                    <g id="Group_1367" data-name="Group 1367">
                      <path id="Path_639" data-name="Path 639" d="M710.464,381.213s-3.423-.511-3.789-2.128-1.078,1.721-1.078,1.721a3.6,3.6,0,0,1-1.155-2.577c-.114-1.777-1.354,1.743-.829,2.862s-2.341.053-2.758-.994-.177,3.607.948,3.911,3.945.262,4.1.014S710.464,381.213,710.464,381.213Z" transform="translate(-700.664 -377.738)" fill="#bac5e3"/>
                    </g>
                  </g>
                </g>
              </g>
              <g id="Group_1374" data-name="Group 1374" transform="translate(16.616 50.624)">
                <g id="Group_1373" data-name="Group 1373">
                  <g id="Group_1372" data-name="Group 1372">
                    <g id="Group_1371" data-name="Group 1371">
                      <path id="Path_640" data-name="Path 640" d="M690.368,405.028s2.857,2.785,1.939,4.4,1.949-.052,2.577-2.179,2.757,1.176,2.383,1.921,1.244-1.456,1.2-2.231S690.368,405.028,690.368,405.028Z" transform="translate(-690.368 -405.028)" fill="#bac5e3"/>
                    </g>
                  </g>
                </g>
              </g>
              <g id="Group_1378" data-name="Group 1378" transform="translate(7.424 13.828)">
                <g id="Group_1377" data-name="Group 1377">
                  <g id="Group_1376" data-name="Group 1376">
                    <g id="Group_1375" data-name="Group 1375">
                      <path id="Path_641" data-name="Path 641" d="M692.454,385.027s-3.869.978-4.767-.647a2.568,2.568,0,0,0,.4,3.2c1.486,1.648-2.327,1.873-2.768,1.162s.59,1.825,1.276,2.187S692.454,385.027,692.454,385.027Z" transform="translate(-685.21 -384.38)" fill="#bac5e3"/>
                    </g>
                  </g>
                </g>
              </g>
              <g id="Group_1382" data-name="Group 1382" transform="translate(23.848 7.784)">
                <g id="Group_1381" data-name="Group 1381">
                  <g id="Group_1380" data-name="Group 1380">
                    <g id="Group_1379" data-name="Group 1379">
                      <path id="Path_642" data-name="Path 642" d="M694.847,384.714a1.376,1.376,0,0,0,.46-1.638c-.433-1-.88-1.158-.88-1.158a3.47,3.47,0,0,1,1.62.362c.755.406.543.235.543.235a3.618,3.618,0,0,1,.577-1.124c.453-.617,1.408-.342,1.408-.342a1.832,1.832,0,0,0-.414,1.572,1.432,1.432,0,0,1-.761,1.458" transform="translate(-694.426 -380.988)" fill="#bac5e3"/>
                    </g>
                  </g>
                </g>
              </g>
              <g id="Group_1386" data-name="Group 1386" transform="translate(54.028 43.926)">
                <g id="Group_1385" data-name="Group 1385">
                  <g id="Group_1384" data-name="Group 1384">
                    <g id="Group_1383" data-name="Group 1383">
                      <path id="Path_643" data-name="Path 643" d="M711.362,403.685s3.352.861,3.55,2.505,1.247-1.6,1.247-1.6a3.6,3.6,0,0,1,.886,2.682c-.069,1.779,1.525-1.593,1.119-2.762s2.334.189,2.641,1.272.545-3.569-.542-3.988-3.9-.665-4.079-.435S711.362,403.685,711.362,403.685Z" transform="translate(-711.362 -401.27)" fill="#bac5e3"/>
                    </g>
                  </g>
                </g>
              </g>
              <g id="Group_1390" data-name="Group 1390" transform="translate(70.95 42.433)">
                <g id="Group_1389" data-name="Group 1389">
                  <g id="Group_1388" data-name="Group 1388">
                    <g id="Group_1387" data-name="Group 1387">
                      <path id="Path_644" data-name="Path 644" d="M724.943,400.432a1.375,1.375,0,0,0-.626,1.582c.328,1.035.757,1.244.757,1.244a3.482,3.482,0,0,1-1.573-.528c-.711-.481-.517-.289-.517-.289a3.616,3.616,0,0,1-.691,1.058c-.513.567-1.435.2-1.435.2a1.838,1.838,0,0,0,.572-1.522,1.43,1.43,0,0,1,.907-1.37" transform="translate(-720.858 -400.432)" fill="#bac5e3"/>
                    </g>
                  </g>
                </g>
              </g>
            </g>
            <g id="Group_1396" data-name="Group 1396" transform="translate(144.75 43.206)">
              <g id="Group_1395" data-name="Group 1395">
                <g id="Group_1394" data-name="Group 1394">
                  <g id="Group_1393" data-name="Group 1393">
                    <g id="Group_1392" data-name="Group 1392">
                      <path id="Path_645" data-name="Path 645" d="M733.216,424.687c-5.66-14.529-10.289-28.519-6.56-30.127,7.313-3.149,9.985,16.206,13.971,26.315" transform="translate(-725.312 -394.218)" fill="#8ba1d2"/>
                    </g>
                  </g>
                </g>
              </g>
            </g>
            <g id="Group_1421" data-name="Group 1421" transform="translate(43.649 90.399)">
              <g id="Group_1402" data-name="Group 1402" transform="translate(0 1.313)">
                <g id="Group_1401" data-name="Group 1401">
                  <g id="Group_1400" data-name="Group 1400">
                    <g id="Group_1399" data-name="Group 1399">
                      <g id="Group_1398" data-name="Group 1398">
                        <g id="Group_1397" data-name="Group 1397">
                          <path id="Path_646" data-name="Path 646" d="M688.168,422.024c.422,1.483,1.324,4.7,1.746,6.178a10.651,10.651,0,0,1-6.166-4.036,32.587,32.587,0,0,0,1.974,7.426,20.682,20.682,0,0,1-12.194-8.63c.253,1.244.543,3.933.8,5.177-2.142-1.11-4.293-4.776-5.749-6.7" transform="translate(-668.577 -421.438)" fill="#89a0d2"/>
                        </g>
                      </g>
                    </g>
                  </g>
                </g>
              </g>
              <g id="Group_1408" data-name="Group 1408" transform="translate(5.825 3.516)">
                <g id="Group_1407" data-name="Group 1407">
                  <g id="Group_1406" data-name="Group 1406">
                    <g id="Group_1405" data-name="Group 1405">
                      <g id="Group_1404" data-name="Group 1404">
                        <g id="Group_1403" data-name="Group 1403">
                          <path id="Path_647" data-name="Path 647" d="M680.735,422.907c.208.727,2.169,4.058,2.375,4.785a5.22,5.22,0,0,1-3.024-1.98,15.931,15.931,0,0,0,.968,3.642,10.147,10.147,0,0,1-5.984-4.234c.125.609.267,1.93.392,2.539-1.052-.544-2.9-4.042-3.616-4.986" transform="translate(-671.846 -422.674)" fill="#89a0d2"/>
                        </g>
                      </g>
                    </g>
                  </g>
                </g>
              </g>
              <g id="Group_1414" data-name="Group 1414" transform="translate(0.244 2.276)">
                <g id="Group_1413" data-name="Group 1413">
                  <g id="Group_1412" data-name="Group 1412">
                    <g id="Group_1411" data-name="Group 1411">
                      <g id="Group_1410" data-name="Group 1410">
                        <g id="Group_1409" data-name="Group 1409">
                          <path id="Path_648" data-name="Path 648" d="M673.422,422.539c.1.351,1.164,2.466,1.265,2.819a2.532,2.532,0,0,1-1.463-.957,7.743,7.743,0,0,0,.469,1.761,4.905,4.905,0,0,1-2.892-2.048c.061.3.128.934.189,1.228-.508-.264-1.93-2.908-2.276-3.364" transform="translate(-668.714 -421.978)" fill="#89a0d2"/>
                        </g>
                      </g>
                    </g>
                  </g>
                </g>
              </g>
              <g id="Group_1420" data-name="Group 1420" transform="translate(10.462)">
                <g id="Group_1419" data-name="Group 1419">
                  <g id="Group_1418" data-name="Group 1418">
                    <g id="Group_1417" data-name="Group 1417">
                      <g id="Group_1416" data-name="Group 1416">
                        <g id="Group_1415" data-name="Group 1415">
                          <path id="Path_649" data-name="Path 649" d="M683.438,421.8c.207.727,2.067,3.192,2.276,3.919a5.228,5.228,0,0,1-3.026-1.98,16.033,16.033,0,0,0,.968,3.642,10.147,10.147,0,0,1-5.984-4.234c.125.609.267,1.93.392,2.539-1.051-.545-2.9-4.042-3.616-4.986" transform="translate(-674.448 -420.701)" fill="#89a0d2"/>
                        </g>
                      </g>
                    </g>
                  </g>
                </g>
              </g>
            </g>
            <g id="Group_1425" data-name="Group 1425" transform="translate(14.204 96.702)">
              <g id="Group_1424" data-name="Group 1424">
                <g id="Group_1423" data-name="Group 1423">
                  <g id="Group_1422" data-name="Group 1422">
                    <path id="Path_650" data-name="Path 650" d="M654.461,424.238l-2.407,4.331,3.731-2.6.141,1.74,1.491-1.872,1.942.993-.5-2.465" transform="translate(-652.054 -424.238)" fill="#89a0d2"/>
                  </g>
                </g>
              </g>
            </g>
            <g id="Group_1429" data-name="Group 1429" transform="translate(4.457 40.212)">
              <g id="Group_1428" data-name="Group 1428">
                <g id="Group_1427" data-name="Group 1427">
                  <g id="Group_1426" data-name="Group 1426">
                    <path id="Path_651" data-name="Path 651" d="M650.81,397.2l-4.225-2.587,4.528.43-.733-1.585,2.219.9,1.2-1.819.778,2.392" transform="translate(-646.584 -392.538)" fill="#89a0d2"/>
                  </g>
                </g>
              </g>
            </g>
            <g id="Group_1433" data-name="Group 1433" transform="translate(163.04 63.316)">
              <g id="Group_1432" data-name="Group 1432">
                <g id="Group_1431" data-name="Group 1431">
                  <g id="Group_1430" data-name="Group 1430">
                    <path id="Path_652" data-name="Path 652" d="M737.427,415.1s1.21-3.243,2.865-3.265-1.461-1.411-1.461-1.411a3.6,3.6,0,0,1,2.76-.6c1.762.257-1.424-1.684-2.628-1.4s.433-2.3,1.545-2.491-3.493-.92-4.024.116-1.073,3.806-.863,4.011S737.427,415.1,737.427,415.1Z" transform="translate(-735.575 -405.503)" fill="#8ba1d2"/>
                  </g>
                </g>
              </g>
            </g>
          </g>
          <g id="Group_1439" data-name="Group 1439" transform="translate(80.725 45.869)">
            <g id="Group_1438" data-name="Group 1438">
              <g id="Group_1437" data-name="Group 1437">
                <g id="Group_1436" data-name="Group 1436">
                  <g id="Group_1435" data-name="Group 1435">
                    <path id="Path_653" data-name="Path 653" d="M689.383,421c10.216-9.609,10.616-25.647,14.661-25.28,7.93.716,1.05,19.005-.264,29.792" transform="translate(-689.383 -395.713)" fill="#8ba1d2"/>
                  </g>
                </g>
              </g>
            </g>
          </g>
          <g id="Group_1444" data-name="Group 1444" transform="translate(56.653 8.296)">
            <g id="Group_1443" data-name="Group 1443">
              <g id="Group_1442" data-name="Group 1442">
                <g id="Group_1441" data-name="Group 1441">
                  <g id="Group_1440" data-name="Group 1440">
                    <path id="Path_654" data-name="Path 654" d="M685.584,385.377c-5.485-3.7-6.634-2.5-8.739-4.765-4.293-4.624,6.41-10.762,17.3,0" transform="translate(-675.874 -374.628)" fill="#8ba1d2"/>
                  </g>
                </g>
              </g>
            </g>
          </g>
        </g>
      </g>
    </g>
    <g id="Group_1448" data-name="Group 1448" transform="translate(676.835 426.656)">
      <path id="Path_655" data-name="Path 655" d="M663.353,402.03a.89.89,0,0,1-.629-1.52,3.991,3.991,0,0,0,0-5.87.891.891,0,0,1,1.262-1.258,5.719,5.719,0,0,1,0,8.388A.9.9,0,0,1,663.353,402.03Z" transform="translate(-662.462 -393.121)" fill="#3b4b81"/>
    </g>
    <g id="Group_1449" data-name="Group 1449" transform="translate(679.419 453.758)">
      <path id="Path_656" data-name="Path 656" d="M666.831,416.945a.891.891,0,0,1-.784-1.315A3.99,3.99,0,0,0,664.373,410a.891.891,0,0,1,.854-1.565,5.719,5.719,0,0,1,2.386,8.04A.889.889,0,0,1,666.831,416.945Z" transform="translate(-663.912 -408.329)" fill="#3b4b81"/>
    </g>
    <g id="Group_1450" data-name="Group 1450" transform="translate(674.104 385.879)">
      <path id="Path_657" data-name="Path 657" d="M663.537,379.422a3.09,3.09,0,0,1-1.1-.18,1.983,1.983,0,0,1-1.34-2.056l.037-.253,4.045-4.819-3.286.278a.9.9,0,0,1-.964-.811.891.891,0,0,1,.811-.964l4.25-.372a1.729,1.729,0,0,1,1.385.465,1.143,1.143,0,0,1,.278.98,1.352,1.352,0,0,1-.317.627l-4.37,5.2a.414.414,0,0,0,.1.055,2.658,2.658,0,0,0,1.043.029l4.713-.438a.9.9,0,0,1,.969.805.889.889,0,0,1-.806.969l-4.715.438C664.049,379.4,663.8,379.422,663.537,379.422Z" transform="translate(-660.93 -370.238)" fill="#8fafff"/>
    </g>
    <g id="Group_1451" data-name="Group 1451" transform="translate(693.707 368.058)">
      <path id="Path_658" data-name="Path 658" d="M674.537,369.423a3.091,3.091,0,0,1-1.1-.18,1.983,1.983,0,0,1-1.34-2.056l.037-.253,4.045-4.819-3.286.278a.9.9,0,0,1-.964-.811.891.891,0,0,1,.811-.964l4.25-.372a1.717,1.717,0,0,1,1.385.465,1.143,1.143,0,0,1,.278.98,1.354,1.354,0,0,1-.317.627l-4.37,5.2a.414.414,0,0,0,.1.055,2.655,2.655,0,0,0,1.042.029l4.714-.438a.905.905,0,0,1,.969.805.889.889,0,0,1-.806.969l-4.715.438C675.049,369.4,674.8,369.423,674.537,369.423Z" transform="translate(-671.93 -360.238)" fill="#8fafff"/>
    </g>
    <g id="Group_1452" data-name="Group 1452" transform="translate(684.797 350.238)">
      <path id="Path_659" data-name="Path 659" d="M669.537,359.423a3.092,3.092,0,0,1-1.1-.18,1.983,1.983,0,0,1-1.34-2.056l.037-.253,4.045-4.819-3.286.278a.891.891,0,1,1-.153-1.775l4.25-.372a1.717,1.717,0,0,1,1.385.465,1.142,1.142,0,0,1,.278.98,1.351,1.351,0,0,1-.317.627l-4.369,5.2a.409.409,0,0,0,.1.055,2.656,2.656,0,0,0,1.042.029l4.714-.438a.909.909,0,0,1,.969.805.889.889,0,0,1-.805.969l-4.715.438C670.049,359.4,669.8,359.423,669.537,359.423Z" transform="translate(-666.93 -350.238)" fill="#8fafff"/>
    </g>
  </g>
</svg>
