<svg xmlns="http://www.w3.org/2000/svg" xmlns:xlink="http://www.w3.org/1999/xlink" width="430.707" height="124.927" viewBox="0 0 430.707 124.927">
  <defs>
    <clipPath id="clip-path">
      <rect id="Rectangle_1058" data-name="Rectangle 1058" width="271.864" height="34.608" transform="translate(0 0)" fill="none"/>
    </clipPath>
    <linearGradient id="linear-gradient" x1="1" y1="1" x2="0.296" y2="0.296" gradientUnits="objectBoundingBox">
      <stop offset="0" stop-color="#1155d9"/>
      <stop offset="1" stop-color="#7b5bf5"/>
    </linearGradient>
  </defs>
  <g id="stremio-logo-horizontal-white" transform="translate(-295.241 -24.714)">
    <g id="Group_2113" data-name="Group 2113" transform="translate(454.085 69.483)">
      <g id="Group_2110" data-name="Group 2110" transform="translate(0)">
        <g id="Group_2109" data-name="Group 2109" transform="translate(0 0)" clip-path="url(#clip-path)">
          <path id="Path_891" data-name="Path 891" d="M28.151,19.141a14.864,14.864,0,0,0-3.174-1.8,37.668,37.668,0,0,0-3.664-1.32c-1.27-.388-2.59-.752-3.923-1.084s-2.6-.652-3.851-.973c-1.217-.312-2.385-.652-3.471-1.009a16.83,16.83,0,0,1-2.723-1.14,5.486,5.486,0,0,1-1.625-1.261,1.883,1.883,0,0,1-.451-1.274,2.641,2.641,0,0,1,.527-1.671A4.554,4.554,0,0,1,7.58,6.306a12.619,12.619,0,0,1,3.276-.883,32.277,32.277,0,0,1,4.664-.3,28.046,28.046,0,0,1,7.1.86,17.983,17.983,0,0,1,2.452.807c.744.315,1.4.612,1.964.883l1.721.836V2.438L27.858,2.2q-1.475-.385-2.912-.724c-.969-.229-1.974-.434-2.987-.608S19.88.553,18.777.443a37.481,37.481,0,0,0-6.947,0A27.348,27.348,0,0,0,8.44.972,17.35,17.35,0,0,0,5.3,1.985,10.626,10.626,0,0,0,2.6,3.643,7.592,7.592,0,0,0,.7,6.1,7.419,7.419,0,0,0,0,9.375a6.368,6.368,0,0,0,.906,3.384A8.588,8.588,0,0,0,3.194,15.2a14.7,14.7,0,0,0,3.175,1.726,38.451,38.451,0,0,0,3.648,1.251c1.258.363,2.574.705,3.91,1.014q1.969.455,3.817.934c1.205.312,2.366.655,3.451,1.019a14.439,14.439,0,0,1,2.692,1.188,5.471,5.471,0,0,1,1.623,1.381A2.435,2.435,0,0,1,26,25.234a2.9,2.9,0,0,1-.635,1.929A5.309,5.309,0,0,1,23.279,28.6a14.726,14.726,0,0,1-3.585.917,34.394,34.394,0,0,1-4.724.3,35.606,35.606,0,0,1-6.911-.65A19.1,19.1,0,0,1,1.99,26.829L.18,25.751v6.4l.811.276a43.944,43.944,0,0,0,6.4,1.638,43.007,43.007,0,0,0,7.49.6c1.186,0,2.414-.05,3.652-.149a29,29,0,0,0,3.65-.527,19.464,19.464,0,0,0,3.4-1.041,11.139,11.139,0,0,0,2.913-1.737,8.175,8.175,0,0,0,2.062-2.6,7.839,7.839,0,0,0,.778-3.556,6.525,6.525,0,0,0-.9-3.422,8.9,8.9,0,0,0-2.28-2.491" transform="translate(0 -0.057)" fill="#fff"/>
          <path id="Path_892" data-name="Path 892" d="M46.315,5.936H60.335V34.2h5.177V5.936h14.02V.984H46.315Z" transform="translate(-9.33 -0.198)" fill="#fff"/>
          <path id="Path_893" data-name="Path 893" d="M120.337.26c-.327-.048-.675-.089-1.042-.129s-.777-.072-1.217-.1S117.147,0,116.6,0a19.733,19.733,0,0,0-4.716.562,22.578,22.578,0,0,0-4.323,1.54,23.9,23.9,0,0,0-3.91,2.349q-.692.513-1.354,1.066V.785H97.1V34h5.2V11.843a24.468,24.468,0,0,1,2.5-2.506,19.654,19.654,0,0,1,3.308-2.314,17.716,17.716,0,0,1,3.845-1.564,16.379,16.379,0,0,1,4.4-.573,14.262,14.262,0,0,1,2.732.212c.729.149,1.3.286,1.691.407l1.552.481V.6l-.985-.178c-.344-.061-.68-.117-1.006-.163" transform="translate(-19.56 0)" fill="#fff"/>
          <path id="Path_894" data-name="Path 894" d="M167.281,5.212a16.463,16.463,0,0,0-5.945-3.463A24.307,24.307,0,0,0,153.478.563,23.59,23.59,0,0,0,145.7,1.8,18.463,18.463,0,0,0,139.564,5.3a16.028,16.028,0,0,0-4.034,5.452,16.667,16.667,0,0,0-1.443,6.956,16.277,16.277,0,0,0,1.508,7.065,15.249,15.249,0,0,0,4.292,5.389,19.566,19.566,0,0,0,6.628,3.364,29.736,29.736,0,0,0,8.532,1.15c1.322,0,2.555-.043,3.669-.127s2.224-.217,3.3-.394,2.182-.41,3.291-.695,2.3-.624,3.554-1.014l.844-.262v-6.3l-1.833,1.144a11.8,11.8,0,0,1-2.1.982,26.571,26.571,0,0,1-2.986.9,32.969,32.969,0,0,1-3.443.638,26.966,26.966,0,0,1-3.524.236,27.758,27.758,0,0,1-7.152-.822,14.9,14.9,0,0,1-4.989-2.286,10.076,10.076,0,0,1-3.024-3.51,12.067,12.067,0,0,1-1.138-3.435h32.718V17.844a19.486,19.486,0,0,0-1.249-7.133,14.826,14.826,0,0,0-3.709-5.5m-13.859.236a18.914,18.914,0,0,1,6.191.9A11.838,11.838,0,0,1,163.735,8.7a9.569,9.569,0,0,1,2.388,3.36,12.742,12.742,0,0,1,.817,2.836H139.585a12.584,12.584,0,0,1,1.011-2.784,11.025,11.025,0,0,1,2.675-3.4,13.144,13.144,0,0,1,4.221-2.37,17.83,17.83,0,0,1,5.929-.894" transform="translate(-27.012 -0.113)" fill="#fff"/>
          <path id="Path_895" data-name="Path 895" d="M240.04,3.36A10.671,10.671,0,0,0,236.418.933a12.122,12.122,0,0,0-4.664-.877,16.521,16.521,0,0,0-3.8.436,18.821,18.821,0,0,0-3.534,1.222,21.713,21.713,0,0,0-3.314,1.912c-.664.465-1.322.968-1.964,1.5a10.736,10.736,0,0,0-3.587-3.508A11.966,11.966,0,0,0,209.435.056a13.336,13.336,0,0,0-4.017.593,18.6,18.6,0,0,0-3.383,1.441A20.586,20.586,0,0,0,199.2,3.973c-.085.069-.169.136-.254.2V.8h-5.2V34.013h5.2V10.6a19.639,19.639,0,0,1,1.735-1.757A17.418,17.418,0,0,1,203.2,6.963a14.612,14.612,0,0,1,2.83-1.348,9.7,9.7,0,0,1,5.716-.124,5.118,5.118,0,0,1,2.073,1.119,5.315,5.315,0,0,1,1.365,2.065,9.543,9.543,0,0,1,.525,3.414V34.013h5.2V11.729c0-.43,0-.8-.012-1.108,0-.2-.021-.413-.049-.644a18.168,18.168,0,0,1,4.382-3.235,15.665,15.665,0,0,1,2.926-1.187,10.7,10.7,0,0,1,3-.434,9.5,9.5,0,0,1,3.214.478,4.982,4.982,0,0,1,2.019,1.29,5.273,5.273,0,0,1,1.169,2.1,10.712,10.712,0,0,1,.408,3.1V34.013h5.2V11.371a11.955,11.955,0,0,0-.812-4.4A10.933,10.933,0,0,0,240.04,3.36" transform="translate(-39.03 -0.011)" fill="#fff"/>
          <rect id="Rectangle_1057" data-name="Rectangle 1057" width="5.199" height="33.217" transform="translate(215.637 0.785)" fill="#fff"/>
          <path id="Path_896" data-name="Path 896" d="M328.345,9.772a15.066,15.066,0,0,0-4.48-5.4,19.082,19.082,0,0,0-6.6-3.1,31.394,31.394,0,0,0-8-.981,33.642,33.642,0,0,0-5.464.431,24.2,24.2,0,0,0-4.94,1.346,19.065,19.065,0,0,0-4.235,2.312,14.487,14.487,0,0,0-3.311,3.362,15.522,15.522,0,0,0-2.116,4.374,18.262,18.262,0,0,0-.748,5.366,17.162,17.162,0,0,0,1.628,7.7,14.966,14.966,0,0,0,4.505,5.408,19.325,19.325,0,0,0,6.642,3.1,31.742,31.742,0,0,0,8.039.981,31.405,31.405,0,0,0,8-.981,19.085,19.085,0,0,0,6.6-3.1,15.066,15.066,0,0,0,4.48-5.4,17.179,17.179,0,0,0,1.628-7.7,17.179,17.179,0,0,0-1.628-7.7m-3.639,7.7a13.588,13.588,0,0,1-.971,5.319,9.785,9.785,0,0,1-2.811,3.771,13.076,13.076,0,0,1-4.765,2.376,25.359,25.359,0,0,1-6.888.84,25.6,25.6,0,0,1-6.912-.841,13.3,13.3,0,0,1-4.812-2.379,9.767,9.767,0,0,1-2.842-3.772,13.433,13.433,0,0,1-.981-5.314,13.381,13.381,0,0,1,.982-5.283,9.759,9.759,0,0,1,2.84-3.782,13.466,13.466,0,0,1,4.816-2.39,28.572,28.572,0,0,1,13.8-.01,13.076,13.076,0,0,1,4.764,2.375,9.787,9.787,0,0,1,2.812,3.772,13.594,13.594,0,0,1,.971,5.319" transform="translate(-58.108 -0.057)" fill="#fff"/>
        </g>
      </g>
    </g>
    <g id="Group_2115" data-name="Group 2115" transform="translate(295.242 24.714)">
      <rect id="Rectangle_1065" data-name="Rectangle 1065" width="88.336" height="88.336" rx="6" transform="translate(62.463 0) rotate(45)" fill="url(#linear-gradient)"/>
      <path id="Polygon_20" data-name="Polygon 20" d="M22.236,1.1a1,1,0,0,1,1.611,0L44.912,29.739a1,1,0,0,1-.806,1.592H1.977a1,1,0,0,1-.806-1.592Z" transform="translate(84.489 39.422) rotate(90)" fill="#fff"/>
    </g>
  </g>
</svg>
