<svg id="Body" xmlns="http://www.w3.org/2000/svg" viewBox="0 0 214.88 64"><defs><style>.cls-1{fill:#fff;}</style></defs><title>stremio_hor_white</title><path class="cls-1" d="M64.1,32h0l-32-32L0,32H0L32.05,64,64.1,32ZM26.72,44.64v-25L43.64,32.11Z"/><path class="cls-1" d="M92.08,26c-.32-.16-.7-.32-1.12-.5A10.26,10.26,0,0,0,89.51,25a18.22,18.22,0,0,0-1.84-.36,17.5,17.5,0,0,0-2.27-.14,19.43,19.43,0,0,0-2.69.17,8,8,0,0,0-2,.54,3.21,3.21,0,0,0-1.24.93A2.13,2.13,0,0,0,79,27.52a1.7,1.7,0,0,0,.4,1.13,3.79,3.79,0,0,0,1.1.86,9.52,9.52,0,0,0,1.62.68c.62.2,1.28.39,2,.57l2.15.54c.73.19,1.45.38,2.14.6a18.24,18.24,0,0,1,2,.71,7.36,7.36,0,0,1,1.62.91,4.29,4.29,0,0,1,1.1,1.2,3,3,0,0,1,.4,1.56A3.67,3.67,0,0,1,93.15,38a3.9,3.9,0,0,1-1,1.24,5.91,5.91,0,0,1-1.45.86,11.44,11.44,0,0,1-1.77.54,17.42,17.42,0,0,1-1.94.28c-.67.05-1.33.08-2,.08a23.64,23.64,0,0,1-4-.32,24.67,24.67,0,0,1-3.46-.89V37.83a11.06,11.06,0,0,0,3.58,1.39,20.35,20.35,0,0,0,4,.37,20.77,20.77,0,0,0,2.72-.17A8.51,8.51,0,0,0,90,38.86a3.54,3.54,0,0,0,1.42-1,2.29,2.29,0,0,0,.5-1.49,2,2,0,0,0-.4-1.25,3.67,3.67,0,0,0-1.1-.94,8.74,8.74,0,0,0-1.62-.72c-.62-.2-1.27-.4-2-.58s-1.4-.35-2.14-.52-1.45-.36-2.14-.55a20.45,20.45,0,0,1-2-.68,7.31,7.31,0,0,1-1.62-.88,4,4,0,0,1-1.09-1.16,2.87,2.87,0,0,1-.41-1.53A3.51,3.51,0,0,1,77.76,26a3.59,3.59,0,0,1,.9-1.15A5,5,0,0,1,80,24.07a9.14,9.14,0,0,1,1.63-.52,14.7,14.7,0,0,1,1.8-.28c.62-.06,1.24-.09,1.84-.09a18.72,18.72,0,0,1,1.89.09c.59.06,1.17.13,1.72.23s1.09.2,1.62.33,1.06.26,1.6.4Z"/><path class="cls-1" d="M105.28,24.91v15.7h-1.55V24.91H95.94V23.49h17.13v1.42Z"/><path class="cls-1" d="M128.11,24.57a8.34,8.34,0,0,0-1.65-.13,9.65,9.65,0,0,0-2.62.34,10.48,10.48,0,0,0-2.28.93,12.13,12.13,0,0,0-2,1.36A13.33,13.33,0,0,0,118,28.73V40.61h-1.56V23.49H118V27a14.43,14.43,0,0,1,1.81-1.58,12.38,12.38,0,0,1,2.06-1.24,11.24,11.24,0,0,1,2.28-.81,10,10,0,0,1,2.46-.29h.78l.64.05.56.07.53.09v1.53C128.87,24.74,128.54,24.66,128.11,24.57Z"/><path class="cls-1" d="M149.25,39.72c-.7.21-1.34.4-1.94.55s-1.19.28-1.77.37-1.18.17-1.78.22-1.26.06-2,.06a15.64,15.64,0,0,1-4.54-.61,10,10,0,0,1-3.46-1.75,7.74,7.74,0,0,1-2.2-2.76,8.27,8.27,0,0,1-.77-3.64,8.43,8.43,0,0,1,.74-3.58,8.12,8.12,0,0,1,2.07-2.81A9.5,9.5,0,0,1,136.8,24a12.46,12.46,0,0,1,4.1-.65,12.61,12.61,0,0,1,4.15.63,8.45,8.45,0,0,1,3.07,1.78A7.5,7.5,0,0,1,150,28.52a10.15,10.15,0,0,1,.65,3.72v.39H132.39a7.59,7.59,0,0,0,.8,2.87,6.14,6.14,0,0,0,1.88,2.18,8.8,8.8,0,0,0,3,1.38,16,16,0,0,0,4.15.48,14.18,14.18,0,0,0,2-.14,19.36,19.36,0,0,0,2-.36,16.35,16.35,0,0,0,1.74-.53,6.71,6.71,0,0,0,1.28-.6Zm-.12-8.45a7.81,7.81,0,0,0-.59-2.5,6,6,0,0,0-1.49-2.1,7.17,7.17,0,0,0-2.52-1.45,11.31,11.31,0,0,0-3.66-.53,10.73,10.73,0,0,0-3.52.53,8.08,8.08,0,0,0-2.55,1.44,6.8,6.8,0,0,0-1.65,2.1,7.61,7.61,0,0,0-.76,2.51Z"/><path class="cls-1" d="M156.78,23.49v2.63c.36-.31.77-.65,1.22-1a10.55,10.55,0,0,1,1.48-1,9.61,9.61,0,0,1,1.76-.75,6.69,6.69,0,0,1,2-.3,5.93,5.93,0,0,1,3.06.78,5.62,5.62,0,0,1,2.16,2.41,16.75,16.75,0,0,1,1.64-1.33,11.79,11.79,0,0,1,1.74-1,10.29,10.29,0,0,1,1.84-.64,9,9,0,0,1,2-.22,6,6,0,0,1,2.33.44,5.24,5.24,0,0,1,1.79,1.19,5.47,5.47,0,0,1,1.14,1.79,6,6,0,0,1,.41,2.2V40.61h-1.56V29.1a6.54,6.54,0,0,0-.26-1.91,3.62,3.62,0,0,0-.79-1.43,3.51,3.51,0,0,0-1.39-.89,6,6,0,0,0-2-.31,6.52,6.52,0,0,0-1.85.27,9.87,9.87,0,0,0-1.75.71,11.23,11.23,0,0,0-1.56,1,11.09,11.09,0,0,0-1.27,1.16,4,4,0,0,1,.07.6c0,.17,0,.37,0,.6V40.61h-1.56V29.1a5.82,5.82,0,0,0-.34-2.14,3.51,3.51,0,0,0-.93-1.4,3.56,3.56,0,0,0-1.42-.77,6.59,6.59,0,0,0-1.77-.23,5.58,5.58,0,0,0-1.8.31,8.84,8.84,0,0,0-1.7.81A11.26,11.26,0,0,0,158,26.8,10.32,10.32,0,0,0,156.78,28V40.61h-1.56V23.49Z"/><path class="cls-1" d="M187,40.61V23.49h1.56V40.61Z"/><path class="cls-1" d="M214.88,32.06a9,9,0,0,1-.83,4,7.62,7.62,0,0,1-2.3,2.76,9.81,9.81,0,0,1-3.43,1.62,17.11,17.11,0,0,1-4.27.52,17.29,17.29,0,0,1-4.3-.52,10,10,0,0,1-3.46-1.62A7.65,7.65,0,0,1,194,36.05a9,9,0,0,1-.83-4,9.29,9.29,0,0,1,.39-2.78,7.52,7.52,0,0,1,2.77-4,9.9,9.9,0,0,1,2.2-1.2,12.5,12.5,0,0,1,2.61-.71,18.32,18.32,0,0,1,2.93-.23,16.65,16.65,0,0,1,4.27.52,9.81,9.81,0,0,1,3.43,1.62,7.62,7.62,0,0,1,2.3,2.76A9,9,0,0,1,214.88,32.06Zm-1.59,0a8.06,8.06,0,0,0-.6-3.21,6.08,6.08,0,0,0-1.75-2.35,7.77,7.77,0,0,0-2.89-1.44,14.53,14.53,0,0,0-4-.5,14.75,14.75,0,0,0-4,.5,8.19,8.19,0,0,0-2.91,1.45,6.08,6.08,0,0,0-1.77,2.36,8.86,8.86,0,0,0,0,6.41,6.13,6.13,0,0,0,1.77,2.35A8,8,0,0,0,200,39.07a14.75,14.75,0,0,0,4,.5,14.53,14.53,0,0,0,4-.5,7.77,7.77,0,0,0,2.89-1.44,6.08,6.08,0,0,0,1.75-2.35A8.08,8.08,0,0,0,213.29,32.06Z"/></svg>