<svg id="Body" xmlns="http://www.w3.org/2000/svg" viewBox="0 0 206.98 175.8"><title>stremio_vert_black</title><path d="M22.05,153.31c-.49-.23-1.05-.49-1.69-.75a17,17,0,0,0-2.19-.73,24.46,24.46,0,0,0-2.77-.53,23.88,23.88,0,0,0-3.42-.22,28.81,28.81,0,0,0-4.05.26,11.58,11.58,0,0,0-3,.82,4.81,4.81,0,0,0-1.88,1.4,3.21,3.21,0,0,0-.65,2,2.59,2.59,0,0,0,.61,1.7,5.62,5.62,0,0,0,1.66,1.3,14.46,14.46,0,0,0,2.44,1c.93.31,1.92.6,3,.87l3.23.81c1.11.28,2.19.57,3.23.89a31.19,31.19,0,0,1,3,1.07,11.79,11.79,0,0,1,2.44,1.38,6.54,6.54,0,0,1,1.66,1.8,4.54,4.54,0,0,1,.61,2.35,5.44,5.44,0,0,1-.55,2.52,5.77,5.77,0,0,1-1.47,1.86,8.51,8.51,0,0,1-2.18,1.3,15.55,15.55,0,0,1-2.66.81,23,23,0,0,1-2.93.42c-1,.08-2,.13-3,.13a35.27,35.27,0,0,1-6.09-.49A36.42,36.42,0,0,1,.15,174V171.1a16.83,16.83,0,0,0,5.4,2.09,31,31,0,0,0,6,.56,30.37,30.37,0,0,0,4.09-.26,13.48,13.48,0,0,0,3.25-.84A5.45,5.45,0,0,0,21,171.16a3.39,3.39,0,0,0,.76-2.25,3,3,0,0,0-.61-1.88,5.49,5.49,0,0,0-1.65-1.41,12.87,12.87,0,0,0-2.44-1.08c-.93-.32-1.92-.61-3-.88s-2.11-.53-3.22-.78-2.18-.54-3.21-.84-2-.64-3-1a11.51,11.51,0,0,1-2.44-1.33A6.21,6.21,0,0,1,.61,158,4.28,4.28,0,0,1,0,155.64a5.15,5.15,0,0,1,.49-2.3,5.24,5.24,0,0,1,1.34-1.73,7.66,7.66,0,0,1,2-1.23,13.25,13.25,0,0,1,2.45-.79A22.9,22.9,0,0,1,9,149.17c.94-.09,1.86-.13,2.78-.13s1.94,0,2.84.13,1.76.2,2.59.34,1.64.31,2.44.5l2.41.6Z"/><path d="M41.92,151.64v23.65H39.59V151.64H27.87v-2.13H53.65v2.13Z"/><path d="M76.31,151.13a12.94,12.94,0,0,0-2.49-.2,14.39,14.39,0,0,0-3.95.52,15.33,15.33,0,0,0-3.43,1.4,16.8,16.8,0,0,0-2.94,2.05,21.2,21.2,0,0,0-2.44,2.49v17.9H58.72V149.51h2.34v5.25a22.17,22.17,0,0,1,2.73-2.38,18.59,18.59,0,0,1,3.11-1.87,17.61,17.61,0,0,1,3.42-1.22,15.7,15.7,0,0,1,3.71-.44c.44,0,.83,0,1.18,0l1,.07.83.11c.26,0,.53.08.81.13v2.3C77.46,151.38,77,151.26,76.31,151.13Z"/><path d="M108.14,173.94c-1,.32-2,.6-2.92.83s-1.79.42-2.67.57-1.77.25-2.67.31-1.91.11-3,.11a23.9,23.9,0,0,1-6.85-.92,15.17,15.17,0,0,1-5.2-2.64,11.67,11.67,0,0,1-3.31-4.15,12.55,12.55,0,0,1-1.17-5.48,12.84,12.84,0,0,1,1.12-5.41,12.29,12.29,0,0,1,3.12-4.22,14.26,14.26,0,0,1,4.81-2.74,18.61,18.61,0,0,1,6.17-1,19.41,19.41,0,0,1,6.25.94,12.77,12.77,0,0,1,4.62,2.69,11.31,11.31,0,0,1,2.85,4.23,15.23,15.23,0,0,1,1,5.6v.58H82.75A11.5,11.5,0,0,0,84,167.6a9.4,9.4,0,0,0,2.82,3.28A13.42,13.42,0,0,0,91.29,173a24.08,24.08,0,0,0,6.24.73,23,23,0,0,0,3.08-.21,29.41,29.41,0,0,0,3-.55,26.29,26.29,0,0,0,2.61-.79,11.37,11.37,0,0,0,1.93-.91ZM108,161.21a11.81,11.81,0,0,0-.89-3.76,9,9,0,0,0-2.24-3.16,11,11,0,0,0-3.79-2.18,17,17,0,0,0-5.52-.8,16,16,0,0,0-5.29.8,11.86,11.86,0,0,0-3.85,2.17,10.27,10.27,0,0,0-2.48,3.15,11.74,11.74,0,0,0-1.15,3.78Z"/><path d="M119.48,149.51v4c.55-.48,1.16-1,1.84-1.52a15.73,15.73,0,0,1,2.23-1.49,14.07,14.07,0,0,1,2.65-1.12,10.09,10.09,0,0,1,3-.45,9,9,0,0,1,4.62,1.17,8.46,8.46,0,0,1,3.25,3.63,24,24,0,0,1,2.47-2,17.36,17.36,0,0,1,2.62-1.51,15.4,15.4,0,0,1,2.77-1,13,13,0,0,1,3-.33,9.22,9.22,0,0,1,3.51.65,8,8,0,0,1,2.7,1.8,8.22,8.22,0,0,1,1.71,2.7,8.85,8.85,0,0,1,.61,3.31v17.94h-2.34V158a9.74,9.74,0,0,0-.39-2.88,5.33,5.33,0,0,0-1.2-2.15,5.2,5.2,0,0,0-2.08-1.34,8.86,8.86,0,0,0-3-.46,9.85,9.85,0,0,0-2.79.4,14.08,14.08,0,0,0-2.63,1.07,17.14,17.14,0,0,0-2.35,1.51,15.57,15.57,0,0,0-1.91,1.75,7,7,0,0,1,.1.9c0,.25,0,.55,0,.9v17.64H135.5V158a9.11,9.11,0,0,0-.5-3.22,5.44,5.44,0,0,0-1.41-2.11,5.25,5.25,0,0,0-2.13-1.15,9.87,9.87,0,0,0-2.68-.35,8.27,8.27,0,0,0-2.71.47,13.06,13.06,0,0,0-2.56,1.22,15.68,15.68,0,0,0-2.25,1.68,16,16,0,0,0-1.78,1.85v18.95h-2.35V149.51Z"/><path d="M165,175.29V149.51h2.35v25.78Z"/><path d="M207,162.42a13.26,13.26,0,0,1-1.26,6,11.68,11.68,0,0,1-3.45,4.17A15.06,15.06,0,0,1,197.1,175a26.77,26.77,0,0,1-12.91,0,15.18,15.18,0,0,1-5.21-2.43,11.53,11.53,0,0,1-3.47-4.17,13.26,13.26,0,0,1-1.26-6,14.5,14.5,0,0,1,.58-4.2,12.06,12.06,0,0,1,1.64-3.38,11.1,11.1,0,0,1,2.54-2.58,15.33,15.33,0,0,1,3.32-1.81,19.69,19.69,0,0,1,3.93-1.07,27.07,27.07,0,0,1,4.4-.34,25.43,25.43,0,0,1,6.44.78,15.06,15.06,0,0,1,5.17,2.43,11.68,11.68,0,0,1,3.45,4.17A13.28,13.28,0,0,1,207,162.42Zm-2.4,0a12.45,12.45,0,0,0-.89-4.85,9.16,9.16,0,0,0-2.64-3.53,12,12,0,0,0-4.35-2.18,22.28,22.28,0,0,0-6-.74,22,22,0,0,0-6,.75,12.14,12.14,0,0,0-4.39,2.19,9.14,9.14,0,0,0-2.66,3.54,13.27,13.27,0,0,0,0,9.66,9.11,9.11,0,0,0,2.66,3.53,12,12,0,0,0,4.39,2.18,25.06,25.06,0,0,0,12.09,0,11.86,11.86,0,0,0,4.35-2.18,9.16,9.16,0,0,0,2.64-3.53A12.4,12.4,0,0,0,204.58,162.42Z"/><path d="M165.09,61.51h0L103.49,0,41.89,61.51h0L103.49,123l61.59-61.51ZM93.89,84.83V38.61l31.22,23.11Z"/></svg>