<svg id="Body" xmlns="http://www.w3.org/2000/svg" viewBox="0 0 206.98 176.01"><defs><style>.cls-1{fill:#8a5aab;}.cls-2{fill:#3a497d;}.cls-3{fill:#fff;}.cls-4{fill:#633f7e;}</style></defs><title>stremio_vert_light_theme</title><polygon class="cls-1" points="103.49 0 165.09 61.51 103.49 123.02 41.89 61.51 103.49 0"/><polygon class="cls-2" points="103.49 123.02 41.89 61.51 165.09 61.51 103.49 123.02"/><polygon class="cls-3" points="125.11 61.51 93.89 84.62 93.89 38.4 125.11 61.51"/><path class="cls-4" d="M22.05,153.53c-.49-.24-1.05-.49-1.69-.76a17,17,0,0,0-2.19-.73,24.46,24.46,0,0,0-2.77-.53,25.42,25.42,0,0,0-3.42-.22,27.29,27.29,0,0,0-4.05.27,11.22,11.22,0,0,0-3,.81,4.81,4.81,0,0,0-1.88,1.4,3.21,3.21,0,0,0-.65,2A2.63,2.63,0,0,0,3,157.49a5.59,5.59,0,0,0,1.66,1.29,13.68,13.68,0,0,0,2.44,1c.93.31,1.92.6,3,.87l3.23.81c1.11.28,2.19.57,3.23.89a31.19,31.19,0,0,1,3,1.07,11.79,11.79,0,0,1,2.44,1.38,6.54,6.54,0,0,1,1.66,1.8,4.54,4.54,0,0,1,.61,2.35,5.44,5.44,0,0,1-.55,2.52,5.77,5.77,0,0,1-1.47,1.86,8.51,8.51,0,0,1-2.18,1.3,15.55,15.55,0,0,1-2.66.81,23,23,0,0,1-2.93.42c-1,.09-2,.13-3,.13a35.27,35.27,0,0,1-6.09-.49,36.42,36.42,0,0,1-5.21-1.33v-2.87a17,17,0,0,0,5.4,2.08,31,31,0,0,0,6,.56,30.37,30.37,0,0,0,4.09-.26,13,13,0,0,0,3.25-.84A5.45,5.45,0,0,0,21,171.37a3.39,3.39,0,0,0,.76-2.25,3,3,0,0,0-.61-1.88,5.64,5.64,0,0,0-1.65-1.41,12.87,12.87,0,0,0-2.44-1.08c-.93-.31-1.92-.61-3-.87s-2.11-.54-3.22-.79-2.18-.54-3.21-.84-2-.64-3-1a12,12,0,0,1-2.44-1.32,6.38,6.38,0,0,1-1.65-1.76A4.28,4.28,0,0,1,0,155.85a5.15,5.15,0,0,1,.49-2.3,5.35,5.35,0,0,1,1.34-1.73,7.66,7.66,0,0,1,2-1.23,14.05,14.05,0,0,1,2.45-.79A22.9,22.9,0,0,1,9,149.38c.94-.09,1.86-.13,2.78-.13s1.94,0,2.84.13,1.76.2,2.59.35,1.64.31,2.44.49l2.41.6Z"/><path class="cls-4" d="M41.92,151.86V175.5H39.59V151.86H27.87v-2.14H53.65v2.14Z"/><path class="cls-4" d="M76.31,151.34a12.94,12.94,0,0,0-2.49-.2,14.79,14.79,0,0,0-3.95.52,15.33,15.33,0,0,0-3.43,1.4,17.36,17.36,0,0,0-2.94,2.05,21.2,21.2,0,0,0-2.44,2.49v17.9H58.72V149.72h2.34V155a22.17,22.17,0,0,1,2.73-2.38,18.59,18.59,0,0,1,3.11-1.87,18.3,18.3,0,0,1,3.42-1.22,15.7,15.7,0,0,1,3.71-.44c.44,0,.83,0,1.18,0l1,.07.83.11c.26,0,.53.08.81.13v2.31A13.92,13.92,0,0,0,76.31,151.34Z"/><path class="cls-4" d="M108.14,174.15c-1,.32-2,.6-2.92.83s-1.79.42-2.67.57-1.77.25-2.67.32-1.91.1-3,.1a23.9,23.9,0,0,1-6.85-.92,15.17,15.17,0,0,1-5.2-2.64,11.67,11.67,0,0,1-3.31-4.15,12.55,12.55,0,0,1-1.17-5.48,12.84,12.84,0,0,1,1.12-5.41,12.29,12.29,0,0,1,3.12-4.22,14.43,14.43,0,0,1,4.81-2.74,18.62,18.62,0,0,1,6.17-1,19.42,19.42,0,0,1,6.25.93,12.77,12.77,0,0,1,4.62,2.69,11.31,11.31,0,0,1,2.85,4.23,15.23,15.23,0,0,1,1,5.6v.58H82.75A11.5,11.5,0,0,0,84,167.81a9.4,9.4,0,0,0,2.82,3.28,13.42,13.42,0,0,0,4.51,2.07,23.65,23.65,0,0,0,6.24.73,23,23,0,0,0,3.08-.21,29.41,29.41,0,0,0,3-.55,26.29,26.29,0,0,0,2.61-.79,11.37,11.37,0,0,0,1.93-.91ZM108,161.43a11.8,11.8,0,0,0-.89-3.77,9.1,9.1,0,0,0-2.24-3.16,10.81,10.81,0,0,0-3.79-2.17,16.73,16.73,0,0,0-5.52-.81,15.73,15.73,0,0,0-5.29.81,11.84,11.84,0,0,0-3.85,2.16,10.19,10.19,0,0,0-2.48,3.16,11.59,11.59,0,0,0-1.15,3.78Z"/><path class="cls-4" d="M119.48,149.72v4c.55-.48,1.16-1,1.84-1.52a15.73,15.73,0,0,1,2.23-1.49,14.07,14.07,0,0,1,2.65-1.12,10.09,10.09,0,0,1,3-.45,9,9,0,0,1,4.62,1.17,8.46,8.46,0,0,1,3.25,3.63,24,24,0,0,1,2.47-2,18.25,18.25,0,0,1,2.62-1.51,14.62,14.62,0,0,1,2.77-.95,12.47,12.47,0,0,1,3-.34,9.22,9.22,0,0,1,3.51.65,7.87,7.87,0,0,1,2.7,1.81,8.08,8.08,0,0,1,1.71,2.69,8.85,8.85,0,0,1,.61,3.31V175.5h-2.34V158.16a9.84,9.84,0,0,0-.39-2.88,5.33,5.33,0,0,0-1.2-2.15,5.2,5.2,0,0,0-2.08-1.34,8.86,8.86,0,0,0-3-.46,10.23,10.23,0,0,0-2.79.4A14.08,14.08,0,0,0,142,152.8a17.14,17.14,0,0,0-2.35,1.51,15.57,15.57,0,0,0-1.91,1.75,7,7,0,0,1,.1.9c0,.25,0,.55,0,.9V175.5H135.5V158.16a9.15,9.15,0,0,0-.5-3.22,5.44,5.44,0,0,0-1.41-2.11,5.25,5.25,0,0,0-2.13-1.15,9.87,9.87,0,0,0-2.68-.35,8.27,8.27,0,0,0-2.71.47,13.06,13.06,0,0,0-2.56,1.22,15.68,15.68,0,0,0-2.25,1.68,16,16,0,0,0-1.78,1.85V175.5h-2.35V149.72Z"/><path class="cls-4" d="M165,175.5V149.72h2.35V175.5Z"/><path class="cls-4" d="M207,162.63a13.26,13.26,0,0,1-1.26,6,11.6,11.6,0,0,1-3.45,4.17,15.06,15.06,0,0,1-5.17,2.43,26.77,26.77,0,0,1-12.91,0,15.18,15.18,0,0,1-5.21-2.43,11.45,11.45,0,0,1-3.47-4.17,13.26,13.26,0,0,1-1.26-6,14.5,14.5,0,0,1,.58-4.2,12,12,0,0,1,1.64-3.37,10.73,10.73,0,0,1,2.54-2.58,14.94,14.94,0,0,1,3.32-1.82,19.69,19.69,0,0,1,3.93-1.07,27.07,27.07,0,0,1,4.4-.34,25,25,0,0,1,6.44.79,14.71,14.71,0,0,1,5.17,2.43,11.56,11.56,0,0,1,3.45,4.16A13.28,13.28,0,0,1,207,162.63Zm-2.4,0a12.36,12.36,0,0,0-.89-4.84,9.19,9.19,0,0,0-2.64-3.54,12,12,0,0,0-4.35-2.18,22.28,22.28,0,0,0-6-.74,22,22,0,0,0-6,.75,12.14,12.14,0,0,0-4.39,2.19,9.14,9.14,0,0,0-2.66,3.54,13.27,13.27,0,0,0,0,9.66,9.21,9.21,0,0,0,2.66,3.54,12.12,12.12,0,0,0,4.39,2.17,25.06,25.06,0,0,0,12.09,0,12,12,0,0,0,4.35-2.17,9.26,9.26,0,0,0,2.64-3.54A12.4,12.4,0,0,0,204.58,162.63Z"/></svg>