<svg id="Body" xmlns="http://www.w3.org/2000/svg" viewBox="0 0 206.98 176.01"><defs><style>.cls-1{fill:#c1b2cb;}.cls-2{fill:#8a5aab;}.cls-3{fill:#3a497d;}.cls-4{fill:#fff;}</style></defs><title>stremio_vert_dark_theme</title><path class="cls-1" d="M22.05,153.49c-.49-.24-1.05-.49-1.69-.76a15.63,15.63,0,0,0-2.19-.72,24.34,24.34,0,0,0-2.77-.54,25.52,25.52,0,0,0-3.42-.21,27.38,27.38,0,0,0-4.05.26,11.6,11.6,0,0,0-3,.81,4.81,4.81,0,0,0-1.88,1.4,3.23,3.23,0,0,0-.65,2A2.63,2.63,0,0,0,3,157.45a5.44,5.44,0,0,0,1.66,1.29,14.44,14.44,0,0,0,2.44,1c.93.3,1.92.59,3,.86l3.23.82c1.11.27,2.19.57,3.23.89a28.66,28.66,0,0,1,3,1.07,10.94,10.94,0,0,1,2.44,1.38,6.27,6.27,0,0,1,1.66,1.8,4.48,4.48,0,0,1,.61,2.34,5.45,5.45,0,0,1-.55,2.53,5.74,5.74,0,0,1-1.47,1.85,8.51,8.51,0,0,1-2.18,1.3,14.71,14.71,0,0,1-2.66.81,23,23,0,0,1-2.93.43q-1.51.12-3,.12a34.3,34.3,0,0,1-6.09-.49,35.14,35.14,0,0,1-5.21-1.33v-2.87a16.81,16.81,0,0,0,5.4,2.08,30.25,30.25,0,0,0,6,.56,28.82,28.82,0,0,0,4.09-.26,13,13,0,0,0,3.25-.83,5.47,5.47,0,0,0,2.13-1.5,3.39,3.39,0,0,0,.76-2.25,3,3,0,0,0-.61-1.87,5.66,5.66,0,0,0-1.65-1.42,12.87,12.87,0,0,0-2.44-1.08c-.93-.31-1.92-.6-3-.87s-2.11-.53-3.22-.79-2.18-.54-3.21-.84a29.32,29.32,0,0,1-3-1,11.49,11.49,0,0,1-2.44-1.32,6.24,6.24,0,0,1-1.65-1.76,4.27,4.27,0,0,1-.61-2.3,5.12,5.12,0,0,1,.49-2.3,5.28,5.28,0,0,1,1.34-1.74,7.66,7.66,0,0,1,2-1.23,14.05,14.05,0,0,1,2.45-.79A22.9,22.9,0,0,1,9,149.34c.94-.09,1.86-.13,2.78-.13s1.94,0,2.84.13,1.76.21,2.59.35,1.64.31,2.44.5,1.6.38,2.41.6Z"/><path class="cls-1" d="M41.92,151.82v23.64H39.59V151.82H27.87v-2.14H53.65v2.14Z"/><path class="cls-1" d="M76.31,151.3a13.05,13.05,0,0,0-2.49-.19,14.79,14.79,0,0,0-3.95.51,15.81,15.81,0,0,0-3.43,1.4,17.36,17.36,0,0,0-2.94,2,22.86,22.86,0,0,0-2.44,2.49v17.9H58.72V149.68h2.34v5.25a23,23,0,0,1,2.73-2.38,18.59,18.59,0,0,1,3.11-1.87,18.3,18.3,0,0,1,3.42-1.22A15.7,15.7,0,0,1,74,149c.44,0,.83,0,1.18,0s.67,0,1,.08l.83.1.81.13v2.31C77.46,151.56,77,151.43,76.31,151.3Z"/><path class="cls-1" d="M108.14,174.11c-1,.33-2,.61-2.92.84s-1.79.42-2.67.56-1.77.25-2.67.32-1.91.1-3,.1A23.9,23.9,0,0,1,90,175a15.34,15.34,0,0,1-5.2-2.63,11.71,11.71,0,0,1-3.31-4.16,12.51,12.51,0,0,1-1.17-5.48,12.79,12.79,0,0,1,1.12-5.4,12.32,12.32,0,0,1,3.12-4.23,14.43,14.43,0,0,1,4.81-2.74,18.62,18.62,0,0,1,6.17-1,19.14,19.14,0,0,1,6.25.94,12.76,12.76,0,0,1,4.62,2.68,11.31,11.31,0,0,1,2.85,4.23,15.27,15.27,0,0,1,1,5.6v.58H82.75A11.45,11.45,0,0,0,84,167.77a9.31,9.31,0,0,0,2.82,3.28,13.63,13.63,0,0,0,4.51,2.08,24.11,24.11,0,0,0,6.24.72,23,23,0,0,0,3.08-.21,29.41,29.41,0,0,0,3-.55,23.87,23.87,0,0,0,2.61-.79,10.65,10.65,0,0,0,1.93-.91ZM108,161.39a11.74,11.74,0,0,0-.89-3.76,9,9,0,0,0-2.24-3.17,11,11,0,0,0-3.79-2.17,16.73,16.73,0,0,0-5.52-.81,15.73,15.73,0,0,0-5.29.81,11.86,11.86,0,0,0-3.85,2.17,10,10,0,0,0-2.48,3.15,11.59,11.59,0,0,0-1.15,3.78Z"/><path class="cls-1" d="M119.48,149.68v4c.55-.48,1.16-1,1.84-1.52a15.69,15.69,0,0,1,2.23-1.48,14.09,14.09,0,0,1,2.65-1.13,10.09,10.09,0,0,1,3-.45,9,9,0,0,1,4.62,1.17,8.52,8.52,0,0,1,3.25,3.63,23.91,23.91,0,0,1,2.47-2,17.43,17.43,0,0,1,2.62-1.52,14.62,14.62,0,0,1,2.77-.95,12.47,12.47,0,0,1,3-.34,9,9,0,0,1,3.51.66,7.85,7.85,0,0,1,2.7,1.8,8.08,8.08,0,0,1,1.71,2.69,8.89,8.89,0,0,1,.61,3.31v17.94h-2.34V158.12a9.84,9.84,0,0,0-.39-2.88,5.09,5.09,0,0,0-3.28-3.49,9.11,9.11,0,0,0-3-.46,9.87,9.87,0,0,0-2.79.41,13.43,13.43,0,0,0-2.63,1.07,15.44,15.44,0,0,0-2.35,1.51,14.77,14.77,0,0,0-1.91,1.74,7,7,0,0,1,.1.9c0,.25,0,.55,0,.9v17.64H135.5V158.12a9.09,9.09,0,0,0-.5-3.21,5.48,5.48,0,0,0-1.41-2.12,5.37,5.37,0,0,0-2.13-1.15,9.87,9.87,0,0,0-2.68-.35,8.27,8.27,0,0,0-2.71.47,13.65,13.65,0,0,0-2.56,1.22,15.68,15.68,0,0,0-2.25,1.68,16.9,16.9,0,0,0-1.78,1.85v19h-2.35V149.68Z"/><path class="cls-1" d="M165,175.46V149.68h2.35v25.78Z"/><path class="cls-1" d="M207,162.59a13.34,13.34,0,0,1-1.26,6,11.56,11.56,0,0,1-3.45,4.16,14.71,14.71,0,0,1-5.17,2.43,26.77,26.77,0,0,1-12.91,0,14.82,14.82,0,0,1-5.21-2.43,11.41,11.41,0,0,1-3.47-4.16,13.34,13.34,0,0,1-1.26-6,14.38,14.38,0,0,1,.58-4.19,11.93,11.93,0,0,1,1.64-3.38,10.73,10.73,0,0,1,2.54-2.58,14.52,14.52,0,0,1,3.32-1.81,19,19,0,0,1,3.93-1.07,27.05,27.05,0,0,1,4.4-.35,25,25,0,0,1,6.44.79,14.71,14.71,0,0,1,5.17,2.43,11.56,11.56,0,0,1,3.45,4.16A13.34,13.34,0,0,1,207,162.59Zm-2.4,0a12.36,12.36,0,0,0-.89-4.84,9.26,9.26,0,0,0-2.64-3.54A12,12,0,0,0,196.7,152a22.28,22.28,0,0,0-6-.74,22,22,0,0,0-6,.75,12.14,12.14,0,0,0-4.39,2.19,9.17,9.17,0,0,0-2.66,3.55,13.25,13.25,0,0,0,0,9.65,9.21,9.21,0,0,0,2.66,3.54,12.13,12.13,0,0,0,4.39,2.18,25.06,25.06,0,0,0,12.09,0,12,12,0,0,0,4.35-2.18,9.26,9.26,0,0,0,2.64-3.54A12.36,12.36,0,0,0,204.58,162.59Z"/><polygon class="cls-2" points="103.49 0 165.09 61.51 103.49 123.02 41.89 61.51 103.49 0"/><polygon class="cls-3" points="103.49 123.02 41.89 61.51 165.09 61.51 103.49 123.02"/><polygon class="cls-4" points="125.11 61.51 93.89 84.62 93.89 38.4 125.11 61.51"/></svg>