<svg id="Body" xmlns="http://www.w3.org/2000/svg" viewBox="0 0 135.75 138.52"><defs><style>.cls-1{fill:#c1b2cb;}.cls-2{fill:#8a5aab;}.cls-3{fill:#3a497d;}.cls-4{fill:#fff;}</style></defs><title>stremio_sq_dark_theme</title><path class="cls-1" d="M80.65,129.42a2.18,2.18,0,0,0-1-.56,2.89,2.89,0,0,0-1.1,0,4.79,4.79,0,0,0-1.18.33,12.47,12.47,0,0,0-1.24.58c-.42.22-.84.46-1.25.71l-1.22.73c-.39.23-.78.44-1.15.63a7.46,7.46,0,0,1-1,.42,2.35,2.35,0,0,1-.84.1,1,1,0,0,1-.63-.29,1.25,1.25,0,0,1-.37-.73,1.84,1.84,0,0,1,.13-.93,5,5,0,0,1,.65-1.13A11.32,11.32,0,0,1,71.6,128a10,10,0,0,1,1.09-1,10.18,10.18,0,0,1,1-.67,7.65,7.65,0,0,1,.86-.43c.27-.11.52-.21.74-.28l.18-.07-1-1-.09,0-.91.54c-.3.19-.6.39-.89.6s-.6.44-.9.68-.61.53-.91.83a11.4,11.4,0,0,0-.81.89,9,9,0,0,0-.7,1,5.24,5.24,0,0,0-.51,1,3.16,3.16,0,0,0-.24,1,2.31,2.31,0,0,0,.12,1,2.36,2.36,0,0,0,.58.89,2,2,0,0,0,.94.55,2.78,2.78,0,0,0,1.08,0,5.1,5.1,0,0,0,1.17-.34c.4-.17.81-.38,1.21-.6s.83-.47,1.23-.72.82-.5,1.21-.73.78-.45,1.15-.63a5.49,5.49,0,0,1,1-.4,2.09,2.09,0,0,1,.88-.07,1.18,1.18,0,0,1,.68.35,1.33,1.33,0,0,1,.42.83,2.12,2.12,0,0,1-.19,1,5.15,5.15,0,0,1-.71,1.2,13,13,0,0,1-1.15,1.31,12.76,12.76,0,0,1-2,1.62,7.29,7.29,0,0,1-2.22,1l-.21.05,1.08,1.09.08,0a15.18,15.18,0,0,0,2-1.18,16.51,16.51,0,0,0,2-1.71c.29-.3.59-.62.87-1a9,9,0,0,0,.76-1,7,7,0,0,0,.57-1.08,3.67,3.67,0,0,0,.28-1.08,2.71,2.71,0,0,0-.12-1.06A2.64,2.64,0,0,0,80.65,129.42Z"/><polygon class="cls-1" points="84.38 115.52 84.47 115.43 83.64 114.6 75.75 122.49 75.67 122.58 76.49 123.4 80.04 119.86 87.1 126.92 87.19 127.01 88.07 126.13 80.92 118.97 84.38 115.52"/><path class="cls-1" d="M88.38,113.44a6.75,6.75,0,0,1,.26-1.48,6.42,6.42,0,0,1,.61-1.44,6.18,6.18,0,0,1,1-1.32,5.82,5.82,0,0,1,.79-.68h0c.22-.15.41-.26.55-.34l.15-.08-.89-.89-.09.06-.28.21-.29.22-.32.27c-.11.11-.24.22-.37.36a6.86,6.86,0,0,0-1,1.28,8.41,8.41,0,0,0-.68,1.42,8.78,8.78,0,0,0-.38,1.53,10.86,10.86,0,0,0-.1,1.26l-1.47-1.46-.88.89,7.88,7.89.09.08.89-.88-5.47-5.48A8.4,8.4,0,0,1,88.38,113.44Z"/><path class="cls-1" d="M106.57,104.83a3.92,3.92,0,0,1-.3.84,10.49,10.49,0,0,1-.55,1c-.21.35-.46.71-.72,1.06s-.56.67-.86,1a10.4,10.4,0,0,1-2.08,1.65,5.9,5.9,0,0,1-2,.72,4,4,0,0,1-1.79-.13,5.13,5.13,0,0,1-1.53-.84L105,101.9l.08-.09-.26-.26a6.47,6.47,0,0,0-2-1.42,4.84,4.84,0,0,0-2.2-.43,5.75,5.75,0,0,0-2.25.59,8.32,8.32,0,0,0-2.21,1.64,7.92,7.92,0,0,0-1.6,2.19,6.34,6.34,0,0,0-.63,2.33,5.32,5.32,0,0,0,.34,2.27,5.57,5.57,0,0,0,1.32,2,5.63,5.63,0,0,0,2.06,1.34,5.25,5.25,0,0,0,1.71.29q.3,0,.6,0a6.86,6.86,0,0,0,2.42-.79,10.48,10.48,0,0,0,2.38-1.82c.34-.34.63-.65.88-.94s.49-.6.72-.92.44-.64.64-1,.41-.72.64-1.15l0-.08-1-1Zm-3.14-2.93L96,109.33a4.87,4.87,0,0,1-.69-1.34,4.38,4.38,0,0,1-.2-1.66,4.89,4.89,0,0,1,.5-1.77,6.46,6.46,0,0,1,1.33-1.81,7,7,0,0,1,1.88-1.4,4.35,4.35,0,0,1,1.76-.48h.17a3.72,3.72,0,0,1,1.41.27A5.16,5.16,0,0,1,103.43,101.9Z"/><path class="cls-1" d="M116,85.12a3.59,3.59,0,0,0-1.38-.31h0a3.64,3.64,0,0,0-1.36.28,4.15,4.15,0,0,0-1.31.9,5.47,5.47,0,0,0-.8,1,6.11,6.11,0,0,0-.56,1.15,6.79,6.79,0,0,0-.34,1.27,9.53,9.53,0,0,0-.14,1.21,3.7,3.7,0,0,0-2-.07,4,4,0,0,0-1.81,1.07,5,5,0,0,0-.81,1.1,6,6,0,0,0-.46,1.16,6.82,6.82,0,0,0-.24,1.14c0,.27,0,.52-.07.75l-1.1-1.09-.88.89,7.88,7.88.09.09.89-.88-5.79-5.79a8.8,8.8,0,0,1,0-1,6.77,6.77,0,0,1,.17-1.16,6,6,0,0,1,.4-1.12,3.27,3.27,0,0,1,.66-.93,4.17,4.17,0,0,1,.88-.68,2,2,0,0,1,.94-.28,2.2,2.2,0,0,1,1,.2,3.77,3.77,0,0,1,1.09.79l5.24,5.25.09.09.89-.89-5.43-5.42-.27-.28-.27-.21a7.39,7.39,0,0,1,0-1,6.45,6.45,0,0,1,.25-1.14,5.57,5.57,0,0,1,.46-1.1,4.34,4.34,0,0,1,.7-.94,4,4,0,0,1,1-.75,2.07,2.07,0,0,1,1-.21,2.18,2.18,0,0,1,1,.27,4.36,4.36,0,0,1,1,.73l5.24,5.25.09.08.89-.88L117.2,86A3.86,3.86,0,0,0,116,85.12Z"/><polygon class="cls-1" points="118.04 80.2 117.15 81.09 125.04 88.98 125.13 89.07 126.02 88.18 118.13 80.29 118.04 80.2"/><path class="cls-1" d="M135.48,74.46A5.91,5.91,0,0,0,134,72.21h0a5.91,5.91,0,0,0-2.25-1.46,5.13,5.13,0,0,0-2.36-.22,6.45,6.45,0,0,0-2.34.85,10.57,10.57,0,0,0-2.21,1.72,11,11,0,0,0-1.24,1.46,7.93,7.93,0,0,0-.88,1.53,6.45,6.45,0,0,0-.47,1.58,5,5,0,0,0,0,1.6,5.54,5.54,0,0,0,.55,1.55,6.12,6.12,0,0,0,1.11,1.47,6,6,0,0,0,2.24,1.47,5.11,5.11,0,0,0,1.63.27,4.62,4.62,0,0,0,.74-.06,6.76,6.76,0,0,0,2.36-.86,11.32,11.32,0,0,0,2.22-1.73,10.62,10.62,0,0,0,1.72-2.22,6.39,6.39,0,0,0,.85-2.34A5.14,5.14,0,0,0,135.48,74.46Zm-.94,2.16a4.93,4.93,0,0,1-.64,1.93,9.72,9.72,0,0,1-1.58,2,9.26,9.26,0,0,1-2,1.58,5.16,5.16,0,0,1-1.93.66,3.78,3.78,0,0,1-1.82-.26,5.51,5.51,0,0,1-2.85-2.85,3.78,3.78,0,0,1-.26-1.82,5,5,0,0,1,.65-1.94,9.5,9.5,0,0,1,1.58-2,9.76,9.76,0,0,1,2-1.58,4.84,4.84,0,0,1,1.92-.64l.38,0a3.72,3.72,0,0,1,1.43.28,5.16,5.16,0,0,1,1.69,1.17,5.26,5.26,0,0,1,1.17,1.69A3.74,3.74,0,0,1,134.54,76.62Z"/><polygon class="cls-2" points="61.6 0 123.2 61.51 61.6 123.02 0 61.51 61.6 0"/><polygon class="cls-3" points="61.6 123.02 0 61.51 123.2 61.51 61.6 123.02"/><polygon class="cls-4" points="83.22 61.51 52 84.62 52 38.4 83.22 61.51"/></svg>