<svg id="Body" xmlns="http://www.w3.org/2000/svg" viewBox="0 0 136.21 138.52"><defs><style>.cls-1{fill:#633f7e;}.cls-2{fill:#8a5aab;}.cls-3{fill:#3a497d;}.cls-4{fill:#fff;}</style></defs><title>stremio_sq_light_theme</title><path class="cls-1" d="M80.73,129.36a2.06,2.06,0,0,0-1-.56,2.87,2.87,0,0,0-1.1-.05,5.2,5.2,0,0,0-1.19.33,11.61,11.61,0,0,0-1.24.59c-.42.22-.85.46-1.26.71l-1.24.74c-.4.23-.79.45-1.16.63a6.14,6.14,0,0,1-1,.43,2.37,2.37,0,0,1-.85.1,1,1,0,0,1-.63-.3,1.24,1.24,0,0,1-.38-.73,1.91,1.91,0,0,1,.14-.94,4.62,4.62,0,0,1,.65-1.13,12.47,12.47,0,0,1,2.24-2.27,10.22,10.22,0,0,1,1-.67,7.12,7.12,0,0,1,.87-.44l.74-.28.19-.07-1-1-.09,0-.92.55-.9.6c-.29.21-.6.44-.9.69a9.78,9.78,0,0,0-.91.83c-.28.28-.56.59-.82.9a8.66,8.66,0,0,0-.7,1,5.69,5.69,0,0,0-.52,1,3.28,3.28,0,0,0-.24,1,2.37,2.37,0,0,0,.12,1,2.47,2.47,0,0,0,.58.9,2,2,0,0,0,.95.54,2.65,2.65,0,0,0,1.09,0,5,5,0,0,0,1.17-.35,12.47,12.47,0,0,0,1.22-.6c.42-.23.84-.47,1.24-.73l1.22-.74c.4-.23.79-.44,1.16-.62a4.82,4.82,0,0,1,1-.41,2.26,2.26,0,0,1,.88-.07,1.21,1.21,0,0,1,.69.35,1.36,1.36,0,0,1,.42.84,2.18,2.18,0,0,1-.19,1.05,5.26,5.26,0,0,1-.72,1.21,12.12,12.12,0,0,1-1.15,1.31,13.49,13.49,0,0,1-2,1.64,7.4,7.4,0,0,1-2.24,1l-.22,0,1.1,1.1.08,0a14.62,14.62,0,0,0,4-2.91c.29-.3.58-.61.87-.95a9,9,0,0,0,.77-1,6.28,6.28,0,0,0,.58-1.08,4,4,0,0,0,.28-1.09,2.61,2.61,0,0,0-.13-1.07A2.52,2.52,0,0,0,80.73,129.36Z"/><polygon class="cls-1" points="84.57 115.27 83.75 114.44 75.8 122.38 75.72 122.47 76.54 123.3 80.12 119.73 87.23 126.84 87.32 126.93 88.2 126.04 81 118.84 84.57 115.27"/><path class="cls-1" d="M88.51,113.27a7.61,7.61,0,0,1,.27-1.5,6.42,6.42,0,0,1,.61-1.44,5.76,5.76,0,0,1,1-1.33,5.43,5.43,0,0,1,.8-.69c.23-.15.42-.26.56-.34l.15-.08L91,107l-.08.06-.29.2-.29.23a3.76,3.76,0,0,0-.32.28c-.12.1-.24.22-.38.35A7.26,7.26,0,0,0,88,110.85a8,8,0,0,0-.39,1.53,11,11,0,0,0-.1,1.28L86,112.18l-.89.89,7.94,8,.09.08.89-.89-5.51-5.51A9.72,9.72,0,0,1,88.51,113.27Z"/><path class="cls-1" d="M106.83,104.61a4.34,4.34,0,0,1-.3.84,10.49,10.49,0,0,1-.55,1,12.73,12.73,0,0,1-.73,1.07,9.08,9.08,0,0,1-.87,1,10.24,10.24,0,0,1-2.09,1.67,5.66,5.66,0,0,1-2,.72,3.93,3.93,0,0,1-1.81-.13,4.9,4.9,0,0,1-1.54-.85l8.29-8.28.08-.09-.26-.26a6.93,6.93,0,0,0-2-1.44,5.2,5.2,0,0,0-2.22-.43,5.73,5.73,0,0,0-2.27.6,8.63,8.63,0,0,0-2.22,1.65,7.85,7.85,0,0,0-1.61,2.21,6.36,6.36,0,0,0-.64,2.34,5.44,5.44,0,0,0,.34,2.29,5.75,5.75,0,0,0,1.34,2,5.61,5.61,0,0,0,2.07,1.35,5.37,5.37,0,0,0,1.73.29q.3,0,.6,0a6.8,6.8,0,0,0,2.43-.8,10.34,10.34,0,0,0,2.4-1.83c.33-.33.63-.65.88-1s.5-.6.73-.92.44-.65.64-1,.43-.74.64-1.15l0-.08-1.06-1.06Zm-3.16-3-7.48,7.48a4.81,4.81,0,0,1-.7-1.35,4.44,4.44,0,0,1-.2-1.67,5,5,0,0,1,.5-1.79,6.74,6.74,0,0,1,1.35-1.82A7,7,0,0,1,99,101.09a4.7,4.7,0,0,1,1.77-.48H101a3.78,3.78,0,0,1,1.42.27A5.07,5.07,0,0,1,103.67,101.65Z"/><path class="cls-1" d="M116.3,84.75a3.55,3.55,0,0,0-1.39-.3,3.4,3.4,0,0,0-1.42.28,4,4,0,0,0-1.31.9,5.68,5.68,0,0,0-.81,1,6.54,6.54,0,0,0-.56,1.16,7.29,7.29,0,0,0-.35,1.28,11.77,11.77,0,0,0-.14,1.21,3.74,3.74,0,0,0-2-.07,4.06,4.06,0,0,0-1.81,1.08,4.44,4.44,0,0,0-.82,1.1,6.36,6.36,0,0,0-.47,1.17,7.26,7.26,0,0,0-.24,1.16c0,.26,0,.52-.07.75l-1.11-1.1-.89.89,7.94,7.94.09.09.89-.89L106,96.59a7.14,7.14,0,0,1,0-1,7,7,0,0,1,.17-1.18,5.33,5.33,0,0,1,.4-1.12,3.32,3.32,0,0,1,.66-.94,4,4,0,0,1,.89-.68,2.19,2.19,0,0,1,1-.29,2.24,2.24,0,0,1,1,.21,3.67,3.67,0,0,1,1.1.8l5.28,5.28.09.09.89-.89L112,91.36l-.28-.27a2.3,2.3,0,0,0-.27-.22,7.39,7.39,0,0,1,0-1,7.88,7.88,0,0,1,.25-1.15,6.72,6.72,0,0,1,.47-1.11,3.88,3.88,0,0,1,.71-.94,3.55,3.55,0,0,1,1-.76,2,2,0,0,1,1-.21,2.14,2.14,0,0,1,1,.27,4,4,0,0,1,1,.74L122.11,92l.09.09.89-.89-5.55-5.56A4.28,4.28,0,0,0,116.3,84.75Z"/><polygon class="cls-1" points="118.38 79.81 117.49 80.7 125.43 88.64 125.52 88.73 126.41 87.83 118.47 79.89 118.38 79.81"/><path class="cls-1" d="M135.94,74a5.9,5.9,0,0,0-1.47-2.26,6,6,0,0,0-2.26-1.47,5.08,5.08,0,0,0-2.38-.23,6.76,6.76,0,0,0-2.36.86,11,11,0,0,0-2.23,1.73A12.84,12.84,0,0,0,124,74.12a9.21,9.21,0,0,0-.88,1.54,6.92,6.92,0,0,0-.47,1.6,5.05,5.05,0,0,0,0,1.6,5.3,5.3,0,0,0,.55,1.56,6.53,6.53,0,0,0,1.12,1.49,6,6,0,0,0,2.26,1.47,5.17,5.17,0,0,0,1.64.27,6.13,6.13,0,0,0,.74-.05,6.62,6.62,0,0,0,2.38-.87A11.12,11.12,0,0,0,133.57,81a11,11,0,0,0,1.74-2.22,6.54,6.54,0,0,0,.85-2.36A5.08,5.08,0,0,0,135.94,74ZM135,76.19a4.9,4.9,0,0,1-.65,1.94,10.66,10.66,0,0,1-3.63,3.64,5.25,5.25,0,0,1-1.95.66,4,4,0,0,1-1.83-.26A5.23,5.23,0,0,1,125.23,81a5,5,0,0,1-1.16-1.7,3.72,3.72,0,0,1-.26-1.83,5.09,5.09,0,0,1,.65-2,9.14,9.14,0,0,1,1.6-2,9.65,9.65,0,0,1,2-1.6,5.09,5.09,0,0,1,1.94-.64l.38,0a4,4,0,0,1,1.44.28,5.72,5.72,0,0,1,2.88,2.88A3.8,3.8,0,0,1,135,76.19Z"/><polygon class="cls-2" points="61.6 0 123.2 61.51 61.6 123.02 0 61.51 61.6 0"/><polygon class="cls-3" points="61.6 123.02 0 61.51 123.2 61.51 61.6 123.02"/><polygon class="cls-4" points="83.22 61.51 52 84.62 52 38.4 83.22 61.51"/></svg>