<svg id="Body" xmlns="http://www.w3.org/2000/svg" viewBox="0 0 135.64 138.36"><title>stremio_sq_black</title><path d="M75.24,125.49c-.22.07-.47.17-.75.28a8,8,0,0,0-.88.44c-.31.19-.64.41-1,.68a11.43,11.43,0,0,0-1.1,1,12.46,12.46,0,0,0-1.14,1.3,4.51,4.51,0,0,0-.66,1.16,2,2,0,0,0-.15,1,1.38,1.38,0,0,0,.41.8,1.13,1.13,0,0,0,.7.34,2.7,2.7,0,0,0,.9-.11,6.58,6.58,0,0,0,1-.43c.38-.19.77-.4,1.16-.64l1.23-.73c.42-.25.83-.49,1.24-.71a12.2,12.2,0,0,1,1.23-.57,4.86,4.86,0,0,1,1.15-.32,2.82,2.82,0,0,1,1,0,1.93,1.93,0,0,1,.89.53,2.39,2.39,0,0,1,.6.93,2.42,2.42,0,0,1,.12,1,3.39,3.39,0,0,1-.27,1.05,6.37,6.37,0,0,1-.56,1.06,11.59,11.59,0,0,1-.76,1c-.28.33-.57.64-.86.94a14.43,14.43,0,0,1-4,2.86L74,137.5a7.21,7.21,0,0,0,2.26-1,13,13,0,0,0,2-1.63,12.18,12.18,0,0,0,1.16-1.32,5.26,5.26,0,0,0,.73-1.24,2.19,2.19,0,0,0,.19-1.09,1.44,1.44,0,0,0-.45-.91,1.25,1.25,0,0,0-.75-.39,2.34,2.34,0,0,0-.93.08,4.89,4.89,0,0,0-1.06.41c-.38.18-.76.39-1.16.63s-.8.47-1.21.73-.82.5-1.23.72a11.08,11.08,0,0,1-1.2.59,4.88,4.88,0,0,1-1.14.34,2.73,2.73,0,0,1-1,0,1.83,1.83,0,0,1-.88-.52,2.3,2.3,0,0,1-.55-.84,2.43,2.43,0,0,1-.12-.93,3.57,3.57,0,0,1,.23-1,6.56,6.56,0,0,1,.51-1,8.36,8.36,0,0,1,.69-.94,11.31,11.31,0,0,1,.8-.88,9.55,9.55,0,0,1,.9-.82c.3-.25.59-.47.89-.68s.59-.41.89-.59l.91-.55Z"/><path d="M80.74,119l7.16,7.15-.71.71L80,119.68l-3.55,3.54-.65-.64,7.8-7.8.65.64Z"/><path d="M91,108.41a6.12,6.12,0,0,0-.81.69,6.23,6.23,0,0,0-1,1.36,6.89,6.89,0,0,0-.62,1.46,7.13,7.13,0,0,0-.26,1.51,9.25,9.25,0,0,0,0,1.49l5.42,5.41L93,121l-7.8-7.8.71-.71,1.59,1.59a8.86,8.86,0,0,1,.1-1.54,8,8,0,0,1,1-2.91,6.54,6.54,0,0,1,1-1.26c.13-.13.25-.25.37-.35l.31-.27.29-.22.28-.2.7.7A5.22,5.22,0,0,0,91,108.41Z"/><path d="M107.52,105.68q-.33.63-.63,1.14c-.2.34-.42.67-.64,1s-.46.61-.71.9-.54.61-.87.94a10.4,10.4,0,0,1-2.35,1.79,6.71,6.71,0,0,1-2.38.78,5,5,0,0,1-2.26-.26,5.42,5.42,0,0,1-2-1.3,5.6,5.6,0,0,1-1.29-2,5.35,5.35,0,0,1-.34-2.23,6.1,6.1,0,0,1,.63-2.28,8.82,8.82,0,0,1,3.75-3.77,5.35,5.35,0,0,1,2.2-.58,4.9,4.9,0,0,1,2.15.41,6.76,6.76,0,0,1,2,1.4l.17.18-8.32,8.32a5,5,0,0,0,1.68,1,3.93,3.93,0,0,0,1.84.14,5.59,5.59,0,0,0,2-.74,10.06,10.06,0,0,0,2.11-1.67,10.27,10.27,0,0,0,.87-1c.27-.36.52-.72.74-1.07a9.54,9.54,0,0,0,.55-1,5.11,5.11,0,0,0,.31-.86Zm-3.9-3.79a5.17,5.17,0,0,0-1.41-.87,3.89,3.89,0,0,0-1.63-.28,4.59,4.59,0,0,0-1.81.49,6.89,6.89,0,0,0-1.91,1.42,6.69,6.69,0,0,0-1.36,1.85,5,5,0,0,0-.51,1.82,4.4,4.4,0,0,0,.2,1.7,4.87,4.87,0,0,0,.8,1.49Z"/><path d="M103.56,94.86l1.2,1.2q0-.47.09-1a8,8,0,0,1,.23-1.12,6,6,0,0,1,.46-1.14,4.18,4.18,0,0,1,.79-1.06,3.87,3.87,0,0,1,1.75-1,3.65,3.65,0,0,1,2.08.12,9.61,9.61,0,0,1,.15-1.35,6.94,6.94,0,0,1,.33-1.25,6.56,6.56,0,0,1,.55-1.13,5,5,0,0,1,.79-1,4,4,0,0,1,1.26-.87,3.3,3.3,0,0,1,1.36-.27,3.52,3.52,0,0,1,1.34.3,3.89,3.89,0,0,1,1.18.81l5.43,5.43-.71.71-5.25-5.24a4.13,4.13,0,0,0-1-.76,2.42,2.42,0,0,0-1-.29,2.14,2.14,0,0,0-1,.23,3.73,3.73,0,0,0-1.06.78,4.31,4.31,0,0,0-.72,1,5.22,5.22,0,0,0-.47,1.12,6.66,6.66,0,0,0-.31,2.28,1.67,1.67,0,0,1,.31.24c.07.07.17.16.27.27l5.34,5.33-.71.71L111,92.57a3.7,3.7,0,0,0-1.12-.82,2.34,2.34,0,0,0-1.07-.22,2.27,2.27,0,0,0-1,.3,4.23,4.23,0,0,0-.92.7,3.75,3.75,0,0,0-.68,1,5.5,5.5,0,0,0-.4,1.14,6.1,6.1,0,0,0-.17,1.19,5.7,5.7,0,0,0,0,1.1l5.73,5.73-.71.71-7.8-7.8Z"/><path d="M125.14,88.88l-7.8-7.8.71-.71,7.8,7.8Z"/><path d="M133.94,72.29a5.66,5.66,0,0,1,1.43,2.2,4.89,4.89,0,0,1,.22,2.3,6.34,6.34,0,0,1-.83,2.3,11,11,0,0,1-1.71,2.19,10.87,10.87,0,0,1-2.2,1.72,6.6,6.6,0,0,1-2.31.84,5,5,0,0,1-2.31-.21A5.77,5.77,0,0,1,124,82.19a6,6,0,0,1-1.1-1.44,4.9,4.9,0,0,1-.52-1.52,4.74,4.74,0,0,1,0-1.55,6.52,6.52,0,0,1,.46-1.55,7.73,7.73,0,0,1,.87-1.51A12.27,12.27,0,0,1,125,73.18a11.42,11.42,0,0,1,2.19-1.71,6.6,6.6,0,0,1,2.3-.83,4.89,4.89,0,0,1,2.3.22A5.7,5.7,0,0,1,133.94,72.29Zm-.73.73a5.22,5.22,0,0,0-1.73-1.19,3.89,3.89,0,0,0-1.87-.28,5.38,5.38,0,0,0-2,.66,10,10,0,0,0-2,1.6,9.76,9.76,0,0,0-1.6,2.06,5.21,5.21,0,0,0-.67,2,4,4,0,0,0,.27,1.88,5.23,5.23,0,0,0,1.18,1.73,5.36,5.36,0,0,0,1.74,1.19,3.9,3.9,0,0,0,1.88.26,5.2,5.2,0,0,0,2-.66A10.68,10.68,0,0,0,134,78.6a5,5,0,0,0,.66-2,4,4,0,0,0-.27-1.87A5.41,5.41,0,0,0,133.21,73Z"/><path d="M123.2,61.51h0L61.6,0,0,61.51H0L61.6,123l61.59-61.51ZM52,84.83V38.61L83.22,61.72Z"/></svg>