<svg id="Body" xmlns="http://www.w3.org/2000/svg" viewBox="0 0 216.17 65.29"><defs><style>.cls-1{fill:#c1b2cb;}.cls-2{fill:#8a5aab;}.cls-3{fill:#3a497d;}.cls-4{fill:#fff;}</style></defs><title>stremio_hor_dark_theme</title><path class="cls-1" d="M93.37,26.67c-.32-.16-.7-.33-1.12-.51a10.26,10.26,0,0,0-1.45-.48A15.91,15.91,0,0,0,89,25.33a15.72,15.72,0,0,0-2.27-.15,18,18,0,0,0-2.69.18,7.24,7.24,0,0,0-2,.54,3,3,0,0,0-1.24.93,2.1,2.1,0,0,0-.43,1.33,1.74,1.74,0,0,0,.4,1.14,3.79,3.79,0,0,0,1.1.86,10.43,10.43,0,0,0,1.62.67c.62.21,1.28.4,2,.58l2.15.54c.73.18,1.45.38,2.14.59a19.71,19.71,0,0,1,2,.71,7.38,7.38,0,0,1,1.62.92,4.4,4.4,0,0,1,1.1,1.19,3,3,0,0,1,.41,1.56,3.59,3.59,0,0,1-.37,1.68,3.86,3.86,0,0,1-1,1.23,5.45,5.45,0,0,1-1.45.86,9.61,9.61,0,0,1-1.77.54,13.53,13.53,0,0,1-1.94.28c-.67.06-1.33.08-2,.08a22.75,22.75,0,0,1-4-.32,24.66,24.66,0,0,1-3.46-.88V38.48a11.36,11.36,0,0,0,3.58,1.38,20.41,20.41,0,0,0,4,.38,19.1,19.1,0,0,0,2.72-.18,8.72,8.72,0,0,0,2.16-.55,3.79,3.79,0,0,0,1.41-1,2.27,2.27,0,0,0,.5-1.5,2,2,0,0,0-.4-1.25,3.81,3.81,0,0,0-1.1-.94,8.75,8.75,0,0,0-1.62-.71c-.62-.21-1.27-.4-2-.58L86,33c-.73-.17-1.44-.35-2.13-.55a20.66,20.66,0,0,1-2-.67,7.31,7.31,0,0,1-1.62-.88,4.15,4.15,0,0,1-1.09-1.17,2.87,2.87,0,0,1-.41-1.53,3.44,3.44,0,0,1,.33-1.53A3.53,3.53,0,0,1,80,25.53a5.24,5.24,0,0,1,1.32-.81,9.15,9.15,0,0,1,1.63-.53,14.7,14.7,0,0,1,1.8-.28c.62-.06,1.24-.08,1.84-.08a18.83,18.83,0,0,1,1.89.08c.6.06,1.17.14,1.72.23s1.09.21,1.62.33l1.6.4Z"/><path class="cls-1" d="M106.57,25.56v15.7H105V25.56H97.24V24.14h17.12v1.42Z"/><path class="cls-1" d="M129.4,25.21a9.1,9.1,0,0,0-1.65-.13,9.64,9.64,0,0,0-2.62.35,10,10,0,0,0-2.28.92,12.19,12.19,0,0,0-1.95,1.37,14,14,0,0,0-1.62,1.65V41.26h-1.56V24.14h1.56v3.49A15.26,15.26,0,0,1,121.09,26a13.09,13.09,0,0,1,2.06-1.24,12.59,12.59,0,0,1,2.28-.81,10.49,10.49,0,0,1,2.46-.29l.78,0,.65.05.55.07.54.08v1.54A9.86,9.86,0,0,0,129.4,25.21Z"/><path class="cls-1" d="M150.54,40.36c-.7.22-1.34.4-1.94.55s-1.19.28-1.77.38-1.17.16-1.78.21-1.26.07-2,.07a15.66,15.66,0,0,1-4.55-.61,10.15,10.15,0,0,1-3.46-1.75,7.85,7.85,0,0,1-2.2-2.76,8.44,8.44,0,0,1-.77-3.64,8.67,8.67,0,0,1,.74-3.59,8.21,8.21,0,0,1,2.07-2.8,9.6,9.6,0,0,1,3.19-1.82,12.46,12.46,0,0,1,4.1-.65,12.89,12.89,0,0,1,4.15.62,8.51,8.51,0,0,1,3.07,1.78,7.58,7.58,0,0,1,1.89,2.81,10.22,10.22,0,0,1,.65,3.72v.39H133.68a7.69,7.69,0,0,0,.8,2.88,6.31,6.31,0,0,0,1.88,2.18,8.89,8.89,0,0,0,3,1.38,16,16,0,0,0,4.15.48,15.78,15.78,0,0,0,2-.14,17,17,0,0,0,2-.37,15.73,15.73,0,0,0,1.74-.52,7.34,7.34,0,0,0,1.28-.61Zm-.12-8.45a7.94,7.94,0,0,0-.59-2.5,6,6,0,0,0-1.49-2.1,7.31,7.31,0,0,0-2.52-1.44,11,11,0,0,0-3.66-.54,10.36,10.36,0,0,0-3.51.54,8,8,0,0,0-2.56,1.44,6.76,6.76,0,0,0-1.65,2.09,7.61,7.61,0,0,0-.76,2.51Z"/><path class="cls-1" d="M158.07,24.14v2.63c.36-.32.77-.66,1.22-1a10.59,10.59,0,0,1,1.48-1,9.61,9.61,0,0,1,1.76-.75,7,7,0,0,1,2-.29,6.06,6.06,0,0,1,3.07.77,5.69,5.69,0,0,1,2.15,2.42,14.56,14.56,0,0,1,1.65-1.33,10.46,10.46,0,0,1,1.73-1A9.56,9.56,0,0,1,175,24a8.47,8.47,0,0,1,2-.22,6.13,6.13,0,0,1,2.34.43,5.18,5.18,0,0,1,1.78,1.2,5.27,5.27,0,0,1,1.14,1.79,5.9,5.9,0,0,1,.41,2.2V41.26h-1.56V29.74a6.6,6.6,0,0,0-.25-1.91,3.71,3.71,0,0,0-.8-1.43,3.47,3.47,0,0,0-1.39-.89,6,6,0,0,0-2-.3,6.52,6.52,0,0,0-1.85.27,8.56,8.56,0,0,0-1.75.71,10.91,10.91,0,0,0-1.56,1,10.25,10.25,0,0,0-1.27,1.16,3.69,3.69,0,0,1,.07.6c0,.16,0,.36,0,.59V41.26h-1.56V29.74a5.76,5.76,0,0,0-.34-2.13A3.41,3.41,0,0,0,166,25.44a6.59,6.59,0,0,0-1.77-.23,5.33,5.33,0,0,0-1.8.31,8.84,8.84,0,0,0-1.7.81,10.39,10.39,0,0,0-1.5,1.11,13.3,13.3,0,0,0-1.18,1.23V41.26h-1.56V24.14Z"/><path class="cls-1" d="M188.31,41.26V24.14h1.56V41.26Z"/><path class="cls-1" d="M216.17,32.71a8.92,8.92,0,0,1-.83,4,7.73,7.73,0,0,1-2.29,2.77,10.11,10.11,0,0,1-3.44,1.61,16.6,16.6,0,0,1-4.27.52,16.84,16.84,0,0,1-4.3-.52,10.13,10.13,0,0,1-3.46-1.61,7.56,7.56,0,0,1-2.3-2.77,8.78,8.78,0,0,1-.84-4,9.41,9.41,0,0,1,.39-2.79,7.88,7.88,0,0,1,1.08-2.24A7.41,7.41,0,0,1,197.6,26a9.9,9.9,0,0,1,2.2-1.2,12.5,12.5,0,0,1,2.61-.71,17.31,17.31,0,0,1,2.93-.23,16.6,16.6,0,0,1,4.27.52A10.11,10.11,0,0,1,213.05,26a7.73,7.73,0,0,1,2.29,2.77A8.92,8.92,0,0,1,216.17,32.71Zm-1.59,0a8.33,8.33,0,0,0-.59-3.22,6,6,0,0,0-1.76-2.34,7.81,7.81,0,0,0-2.88-1.45,14.62,14.62,0,0,0-4-.49,14.35,14.35,0,0,0-4,.5,8,8,0,0,0-2.91,1.45,6,6,0,0,0-1.78,2.35,9,9,0,0,0,0,6.41,6,6,0,0,0,1.78,2.35,8,8,0,0,0,2.91,1.45,16.69,16.69,0,0,0,8,0,7.81,7.81,0,0,0,2.88-1.45A6,6,0,0,0,214,35.92,8.24,8.24,0,0,0,214.58,32.71Z"/><polygon class="cls-2" points="32.7 0 65.39 32.65 32.7 65.29 0 32.65 32.7 0"/><polygon class="cls-3" points="32.7 65.29 0 32.65 65.39 32.65 32.7 65.29"/><polygon class="cls-4" points="44.17 32.65 27.6 44.91 27.6 20.38 44.17 32.65"/></svg>